<mxfile host="app.diagrams.net" modified="2022-04-10T00:25:22.363Z" agent="5.0 (Windows NT 10.0; Win64; x64) AppleWebKit/537.36 (KHTML, like Gecko) Chrome/100.0.4896.75 Safari/537.36" etag="3ZiGETmijD8XGi-wX_zv" version="17.4.2" type="github">
  <diagram id="HT6r6XyvwpQBPIijasMT" name="Page-1">
    <mxGraphModel dx="2436" dy="1573" grid="1" gridSize="10" guides="1" tooltips="1" connect="1" arrows="1" fold="1" page="1" pageScale="1" pageWidth="827" pageHeight="1169" math="0" shadow="0">
      <root>
        <mxCell id="0" />
        <mxCell id="1" parent="0" />
        <mxCell id="lO3RNEd2ny1g0KPbYaqU-1" value="" style="rounded=0;whiteSpace=wrap;html=1;fontSize=11;fillColor=none;strokeColor=#6c8ebf;strokeWidth=3;" parent="1" vertex="1">
          <mxGeometry x="120" y="430" width="480" height="230" as="geometry" />
        </mxCell>
        <mxCell id="lO3RNEd2ny1g0KPbYaqU-2" value="" style="rounded=0;whiteSpace=wrap;html=1;fontSize=11;fillColor=none;strokeColor=#6c8ebf;strokeWidth=3;" parent="1" vertex="1">
          <mxGeometry x="-540" y="430" width="480" height="230" as="geometry" />
        </mxCell>
        <mxCell id="lO3RNEd2ny1g0KPbYaqU-3" style="edgeStyle=orthogonalEdgeStyle;rounded=0;orthogonalLoop=1;jettySize=auto;html=1;exitX=0.5;exitY=1;exitDx=0;exitDy=0;entryX=0.5;entryY=0;entryDx=0;entryDy=0;" parent="1" source="lO3RNEd2ny1g0KPbYaqU-4" target="lO3RNEd2ny1g0KPbYaqU-7" edge="1">
          <mxGeometry relative="1" as="geometry" />
        </mxCell>
        <mxCell id="lO3RNEd2ny1g0KPbYaqU-4" value="HIHI Im a message" style="rounded=0;whiteSpace=wrap;html=1;align=left;" parent="1" vertex="1">
          <mxGeometry x="-800" y="300" width="220" height="40" as="geometry" />
        </mxCell>
        <mxCell id="lO3RNEd2ny1g0KPbYaqU-5" value="Application Layer" style="text;html=1;strokeColor=none;fillColor=none;align=center;verticalAlign=middle;whiteSpace=wrap;rounded=0;" parent="1" vertex="1">
          <mxGeometry x="-870" y="305" width="60" height="30" as="geometry" />
        </mxCell>
        <mxCell id="lO3RNEd2ny1g0KPbYaqU-6" style="edgeStyle=orthogonalEdgeStyle;rounded=0;orthogonalLoop=1;jettySize=auto;html=1;exitX=0.5;exitY=1;exitDx=0;exitDy=0;entryX=0.5;entryY=0;entryDx=0;entryDy=0;" parent="1" source="lO3RNEd2ny1g0KPbYaqU-7" target="lO3RNEd2ny1g0KPbYaqU-10" edge="1">
          <mxGeometry relative="1" as="geometry" />
        </mxCell>
        <mxCell id="lO3RNEd2ny1g0KPbYaqU-7" value="registered or ordinary mail" style="rounded=0;whiteSpace=wrap;html=1;align=left;" parent="1" vertex="1">
          <mxGeometry x="-800" y="370" width="220" height="40" as="geometry" />
        </mxCell>
        <mxCell id="lO3RNEd2ny1g0KPbYaqU-8" value="Transport Layer" style="text;html=1;strokeColor=none;fillColor=none;align=center;verticalAlign=middle;whiteSpace=wrap;rounded=0;" parent="1" vertex="1">
          <mxGeometry x="-870" y="380" width="60" height="30" as="geometry" />
        </mxCell>
        <mxCell id="lO3RNEd2ny1g0KPbYaqU-9" style="edgeStyle=orthogonalEdgeStyle;rounded=0;orthogonalLoop=1;jettySize=auto;html=1;exitX=0.5;exitY=1;exitDx=0;exitDy=0;entryX=0.5;entryY=0;entryDx=0;entryDy=0;" parent="1" source="lO3RNEd2ny1g0KPbYaqU-10" target="lO3RNEd2ny1g0KPbYaqU-14" edge="1">
          <mxGeometry relative="1" as="geometry" />
        </mxCell>
        <mxCell id="lO3RNEd2ny1g0KPbYaqU-10" value="&lt;font&gt;&lt;font style=&quot;font-size: 11px&quot;&gt;&lt;span style=&quot;font-size: 12px&quot;&gt;registered&lt;/span&gt;&amp;nbsp;mail&lt;br&gt;source address: NCKU&lt;br&gt;destination address: TA&#39;s home in Taipei&lt;br&gt;&lt;/font&gt;&lt;/font&gt;" style="rounded=0;whiteSpace=wrap;html=1;align=left;" parent="1" vertex="1">
          <mxGeometry x="-800" y="440" width="220" height="70" as="geometry" />
        </mxCell>
        <mxCell id="lO3RNEd2ny1g0KPbYaqU-11" value="Network&lt;br&gt;Layer" style="text;html=1;strokeColor=none;fillColor=none;align=center;verticalAlign=middle;whiteSpace=wrap;rounded=0;" parent="1" vertex="1">
          <mxGeometry x="-870" y="450" width="60" height="30" as="geometry" />
        </mxCell>
        <mxCell id="lO3RNEd2ny1g0KPbYaqU-12" value="Link&lt;br&gt;Layer" style="text;html=1;strokeColor=none;fillColor=none;align=center;verticalAlign=middle;whiteSpace=wrap;rounded=0;" parent="1" vertex="1">
          <mxGeometry x="-870" y="555" width="60" height="30" as="geometry" />
        </mxCell>
        <mxCell id="lO3RNEd2ny1g0KPbYaqU-13" style="edgeStyle=orthogonalEdgeStyle;rounded=0;orthogonalLoop=1;jettySize=auto;html=1;entryX=0;entryY=0.5;entryDx=0;entryDy=0;fontSize=11;fontColor=#666666;" parent="1" source="lO3RNEd2ny1g0KPbYaqU-14" target="lO3RNEd2ny1g0KPbYaqU-16" edge="1">
          <mxGeometry relative="1" as="geometry" />
        </mxCell>
        <mxCell id="lO3RNEd2ny1g0KPbYaqU-14" value="&lt;font&gt;&lt;font style=&quot;font-size: 11px&quot;&gt;&lt;span style=&quot;font-size: 12px&quot;&gt;registered&lt;/span&gt;&amp;nbsp;mail&lt;br&gt;source address: NCKU&lt;br&gt;destination address: TA&#39;s home in Taipei&lt;br&gt;&lt;/font&gt;&lt;/font&gt;" style="rounded=0;whiteSpace=wrap;html=1;align=left;" parent="1" vertex="1">
          <mxGeometry x="-800" y="540" width="220" height="70" as="geometry" />
        </mxCell>
        <mxCell id="lO3RNEd2ny1g0KPbYaqU-15" style="edgeStyle=orthogonalEdgeStyle;rounded=0;orthogonalLoop=1;jettySize=auto;html=1;exitX=0.75;exitY=0;exitDx=0;exitDy=0;entryX=0.203;entryY=0.984;entryDx=0;entryDy=0;entryPerimeter=0;fontSize=11;fontColor=#666666;" parent="1" source="lO3RNEd2ny1g0KPbYaqU-16" target="lO3RNEd2ny1g0KPbYaqU-22" edge="1">
          <mxGeometry relative="1" as="geometry" />
        </mxCell>
        <mxCell id="lO3RNEd2ny1g0KPbYaqU-16" value="&lt;font&gt;&lt;font style=&quot;font-size: 11px&quot;&gt;&lt;span style=&quot;font-size: 12px&quot;&gt;registered&lt;/span&gt;&amp;nbsp;mail&lt;br&gt;source address: NCKU&lt;br&gt;destination address: TA&#39;s home in Taipei&lt;br&gt;&lt;/font&gt;&lt;/font&gt;" style="rounded=0;whiteSpace=wrap;html=1;align=left;" parent="1" vertex="1">
          <mxGeometry x="-530" y="540" width="220" height="70" as="geometry" />
        </mxCell>
        <mxCell id="lO3RNEd2ny1g0KPbYaqU-17" value="&lt;font style=&quot;font-size: 11px&quot; color=&quot;#666666&quot;&gt;From: NCKU&lt;br&gt;To: Tainan Post Office&lt;br style=&quot;font-size: 11px&quot;&gt;(sent to gateway)&lt;br&gt;&lt;/font&gt;" style="text;html=1;strokeColor=none;fillColor=none;align=center;verticalAlign=middle;whiteSpace=wrap;rounded=0;" parent="1" vertex="1">
          <mxGeometry x="-760" y="620" width="140" height="30" as="geometry" />
        </mxCell>
        <mxCell id="lO3RNEd2ny1g0KPbYaqU-18" value="&lt;span style=&quot;color: rgb(102 , 102 , 102) ; font-size: 11px&quot;&gt;From: NCKU&lt;/span&gt;&lt;br style=&quot;color: rgb(102 , 102 , 102) ; font-size: 11px&quot;&gt;&lt;span style=&quot;color: rgb(102 , 102 , 102) ; font-size: 11px&quot;&gt;To: Tainan Post Office&lt;/span&gt;" style="text;html=1;strokeColor=none;fillColor=none;align=center;verticalAlign=middle;whiteSpace=wrap;rounded=0;" parent="1" vertex="1">
          <mxGeometry x="-495" y="620" width="150" height="30" as="geometry" />
        </mxCell>
        <mxCell id="lO3RNEd2ny1g0KPbYaqU-19" value="&lt;font&gt;&lt;font style=&quot;font-size: 11px&quot;&gt;&lt;span style=&quot;font-size: 12px&quot;&gt;registered&lt;/span&gt;&amp;nbsp;mail&lt;br&gt;source address: NCKU&lt;br&gt;destination address: TA&#39;s home in Taipei&lt;br&gt;&lt;/font&gt;&lt;/font&gt;" style="rounded=0;whiteSpace=wrap;html=1;align=left;" parent="1" vertex="1">
          <mxGeometry x="-290" y="540" width="220" height="70" as="geometry" />
        </mxCell>
        <mxCell id="lO3RNEd2ny1g0KPbYaqU-20" value="&lt;span style=&quot;color: rgb(102 , 102 , 102) ; font-size: 11px&quot;&gt;From:&amp;nbsp;&lt;/span&gt;&lt;span style=&quot;color: rgb(102 , 102 , 102) ; font-size: 11px&quot;&gt;Tainan Post Office&lt;/span&gt;&lt;br style=&quot;color: rgb(102 , 102 , 102) ; font-size: 11px&quot;&gt;&lt;span style=&quot;color: rgb(102 , 102 , 102) ; font-size: 11px&quot;&gt;To: Chiayi transfer station&lt;/span&gt;" style="text;html=1;strokeColor=none;fillColor=none;align=center;verticalAlign=middle;whiteSpace=wrap;rounded=0;" parent="1" vertex="1">
          <mxGeometry x="-255" y="620" width="150" height="30" as="geometry" />
        </mxCell>
        <mxCell id="lO3RNEd2ny1g0KPbYaqU-21" style="edgeStyle=orthogonalEdgeStyle;rounded=0;orthogonalLoop=1;jettySize=auto;html=1;exitX=0.75;exitY=1;exitDx=0;exitDy=0;entryX=0.206;entryY=-0.021;entryDx=0;entryDy=0;entryPerimeter=0;fontSize=11;fontColor=#666666;" parent="1" edge="1">
          <mxGeometry relative="1" as="geometry">
            <mxPoint x="-235.00000000000045" y="510" as="sourcePoint" />
            <mxPoint x="-234.6800000000003" y="538.5299999999997" as="targetPoint" />
          </mxGeometry>
        </mxCell>
        <mxCell id="lO3RNEd2ny1g0KPbYaqU-22" value="&lt;font&gt;&lt;font style=&quot;font-size: 11px&quot;&gt;&lt;span style=&quot;font-size: 12px&quot;&gt;registered&lt;/span&gt;&amp;nbsp;mail&lt;br&gt;source address: NCKU&lt;br&gt;destination address: TA&#39;s home in Taipei&lt;br&gt;&lt;/font&gt;&lt;/font&gt;" style="rounded=0;whiteSpace=wrap;html=1;align=left;" parent="1" vertex="1">
          <mxGeometry x="-410" y="440" width="220" height="70" as="geometry" />
        </mxCell>
        <mxCell id="lO3RNEd2ny1g0KPbYaqU-23" value="&lt;font color=&quot;#000000&quot; style=&quot;font-size: 12px&quot;&gt;Router&lt;br&gt;Tainan Post Office&lt;br&gt;&lt;b&gt;How to send the mail to TA&#39;s home in Taipei&lt;/b&gt;&lt;/font&gt;" style="text;html=1;strokeColor=none;fillColor=none;align=center;verticalAlign=middle;whiteSpace=wrap;rounded=1;fontSize=11;fontColor=#666666;" parent="1" vertex="1">
          <mxGeometry x="-427.5" y="390" width="255" height="30" as="geometry" />
        </mxCell>
        <mxCell id="lO3RNEd2ny1g0KPbYaqU-24" style="edgeStyle=orthogonalEdgeStyle;rounded=0;orthogonalLoop=1;jettySize=auto;html=1;exitX=0.75;exitY=0;exitDx=0;exitDy=0;entryX=0.203;entryY=0.984;entryDx=0;entryDy=0;entryPerimeter=0;fontSize=11;fontColor=#666666;" parent="1" source="lO3RNEd2ny1g0KPbYaqU-25" target="lO3RNEd2ny1g0KPbYaqU-31" edge="1">
          <mxGeometry relative="1" as="geometry" />
        </mxCell>
        <mxCell id="lO3RNEd2ny1g0KPbYaqU-25" value="&lt;font&gt;&lt;font style=&quot;font-size: 11px&quot;&gt;&lt;span style=&quot;font-size: 12px&quot;&gt;registered&lt;/span&gt;&amp;nbsp;mail&lt;br&gt;source address: NCKU&lt;br&gt;destination address: TA&#39;s home in Taipei&lt;br&gt;&lt;/font&gt;&lt;/font&gt;" style="rounded=0;whiteSpace=wrap;html=1;align=left;" parent="1" vertex="1">
          <mxGeometry x="130" y="540" width="220" height="70" as="geometry" />
        </mxCell>
        <mxCell id="lO3RNEd2ny1g0KPbYaqU-26" value="&lt;font style=&quot;font-size: 11px&quot; color=&quot;#666666&quot;&gt;From:&amp;nbsp;&lt;/font&gt;&lt;span style=&quot;color: rgb(102 , 102 , 102) ; font-size: 11px&quot;&gt;New Taipei transfer station&lt;/span&gt;&lt;font style=&quot;font-size: 11px&quot; color=&quot;#666666&quot;&gt;&lt;br&gt;To:&amp;nbsp;&lt;/font&gt;&lt;span style=&quot;color: rgb(102 , 102 , 102) ; font-size: 11px&quot;&gt;Taipei Post Office&lt;/span&gt;&lt;font style=&quot;font-size: 11px&quot; color=&quot;#666666&quot;&gt;&lt;br&gt;&lt;/font&gt;" style="text;html=1;strokeColor=none;fillColor=none;align=center;verticalAlign=middle;whiteSpace=wrap;rounded=0;" parent="1" vertex="1">
          <mxGeometry x="147.5" y="620" width="185" height="30" as="geometry" />
        </mxCell>
        <mxCell id="lO3RNEd2ny1g0KPbYaqU-27" style="edgeStyle=orthogonalEdgeStyle;rounded=0;orthogonalLoop=1;jettySize=auto;html=1;entryX=0;entryY=0.5;entryDx=0;entryDy=0;fontSize=12;fontColor=#000000;" parent="1" source="lO3RNEd2ny1g0KPbYaqU-28" target="lO3RNEd2ny1g0KPbYaqU-40" edge="1">
          <mxGeometry relative="1" as="geometry" />
        </mxCell>
        <mxCell id="lO3RNEd2ny1g0KPbYaqU-28" value="&lt;font&gt;&lt;font style=&quot;font-size: 11px&quot;&gt;&lt;span style=&quot;font-size: 12px&quot;&gt;registered&lt;/span&gt;&amp;nbsp;mail&lt;br&gt;source address: NCKU&lt;br&gt;destination address: TA&#39;s home in Taipei&lt;br&gt;&lt;/font&gt;&lt;/font&gt;" style="rounded=0;whiteSpace=wrap;html=1;align=left;" parent="1" vertex="1">
          <mxGeometry x="370" y="540" width="220" height="70" as="geometry" />
        </mxCell>
        <mxCell id="lO3RNEd2ny1g0KPbYaqU-29" value="&lt;font color=&quot;#666666&quot; style=&quot;font-size: 11px&quot;&gt;From:&amp;nbsp;&lt;/font&gt;&lt;span style=&quot;color: rgb(102 , 102 , 102) ; font-size: 11px&quot;&gt;Taipei Post Office&lt;/span&gt;&lt;font color=&quot;#666666&quot; style=&quot;font-size: 11px&quot;&gt;&lt;br&gt;To: TA&#39;s home in Taipei&lt;/font&gt;&lt;font style=&quot;font-size: 11px&quot; color=&quot;#666666&quot;&gt;&lt;br&gt;&lt;/font&gt;" style="text;html=1;strokeColor=none;fillColor=none;align=center;verticalAlign=middle;whiteSpace=wrap;rounded=0;" parent="1" vertex="1">
          <mxGeometry x="405" y="620" width="150" height="30" as="geometry" />
        </mxCell>
        <mxCell id="lO3RNEd2ny1g0KPbYaqU-30" style="edgeStyle=orthogonalEdgeStyle;rounded=0;orthogonalLoop=1;jettySize=auto;html=1;exitX=0.75;exitY=1;exitDx=0;exitDy=0;entryX=0.206;entryY=-0.021;entryDx=0;entryDy=0;entryPerimeter=0;fontSize=11;fontColor=#666666;" parent="1" edge="1">
          <mxGeometry relative="1" as="geometry">
            <mxPoint x="425" y="510" as="sourcePoint" />
            <mxPoint x="425.3199999999997" y="538.5299999999997" as="targetPoint" />
          </mxGeometry>
        </mxCell>
        <mxCell id="lO3RNEd2ny1g0KPbYaqU-31" value="&lt;font&gt;&lt;font style=&quot;font-size: 11px&quot;&gt;&lt;span style=&quot;font-size: 12px&quot;&gt;registered&lt;/span&gt;&amp;nbsp;mail&lt;br&gt;source address: NCKU&lt;br&gt;destination address: TA&#39;s home in Taipei&lt;br&gt;&lt;/font&gt;&lt;/font&gt;" style="rounded=0;whiteSpace=wrap;html=1;align=left;" parent="1" vertex="1">
          <mxGeometry x="250" y="440" width="220" height="70" as="geometry" />
        </mxCell>
        <mxCell id="lO3RNEd2ny1g0KPbYaqU-32" value="&lt;span style=&quot;color: rgb(0 , 0 , 0) ; font-size: 12px&quot;&gt;Router&lt;/span&gt;&lt;br style=&quot;color: rgb(0 , 0 , 0) ; font-size: 12px&quot;&gt;&lt;span style=&quot;color: rgb(0 , 0 , 0) ; font-size: 12px&quot;&gt;Taipei Post Office&lt;/span&gt;&lt;br style=&quot;color: rgb(0 , 0 , 0) ; font-size: 12px&quot;&gt;&lt;b style=&quot;color: rgb(0 , 0 , 0) ; font-size: 12px&quot;&gt;How to send the mail to TA&#39;s home in Taipei&lt;br&gt;&lt;/b&gt;&lt;font color=&quot;#000000&quot; style=&quot;font-size: 12px&quot;&gt;&lt;b&gt;Wait, TA&#39;s home in Taipei is in my area just send it directly&lt;/b&gt;&lt;br&gt;&lt;/font&gt;" style="text;html=1;strokeColor=none;fillColor=none;align=center;verticalAlign=middle;whiteSpace=wrap;rounded=1;fontSize=11;fontColor=#666666;" parent="1" vertex="1">
          <mxGeometry x="95" y="380" width="530" height="30" as="geometry" />
        </mxCell>
        <mxCell id="lO3RNEd2ny1g0KPbYaqU-33" style="edgeStyle=orthogonalEdgeStyle;rounded=0;orthogonalLoop=1;jettySize=auto;html=1;exitX=0.5;exitY=1;exitDx=0;exitDy=0;fontSize=12;fontColor=#000000;" parent="1" edge="1">
          <mxGeometry relative="1" as="geometry">
            <mxPoint x="360" y="410" as="sourcePoint" />
            <mxPoint x="360" y="410" as="targetPoint" />
          </mxGeometry>
        </mxCell>
        <mxCell id="lO3RNEd2ny1g0KPbYaqU-34" value="HIHI Im a message" style="rounded=0;whiteSpace=wrap;html=1;align=left;" parent="1" vertex="1">
          <mxGeometry x="640" y="300" width="220" height="40" as="geometry" />
        </mxCell>
        <mxCell id="lO3RNEd2ny1g0KPbYaqU-35" style="edgeStyle=orthogonalEdgeStyle;rounded=0;orthogonalLoop=1;jettySize=auto;html=1;fontSize=12;fontColor=#000000;" parent="1" source="lO3RNEd2ny1g0KPbYaqU-36" target="lO3RNEd2ny1g0KPbYaqU-34" edge="1">
          <mxGeometry relative="1" as="geometry" />
        </mxCell>
        <mxCell id="lO3RNEd2ny1g0KPbYaqU-36" value="registered mail" style="rounded=0;whiteSpace=wrap;html=1;align=left;" parent="1" vertex="1">
          <mxGeometry x="640" y="370" width="220" height="40" as="geometry" />
        </mxCell>
        <mxCell id="lO3RNEd2ny1g0KPbYaqU-37" style="edgeStyle=orthogonalEdgeStyle;rounded=0;orthogonalLoop=1;jettySize=auto;html=1;fontSize=12;fontColor=#000000;" parent="1" source="lO3RNEd2ny1g0KPbYaqU-38" target="lO3RNEd2ny1g0KPbYaqU-36" edge="1">
          <mxGeometry relative="1" as="geometry" />
        </mxCell>
        <mxCell id="lO3RNEd2ny1g0KPbYaqU-38" value="&lt;font&gt;&lt;font style=&quot;font-size: 11px&quot;&gt;&lt;span style=&quot;font-size: 12px&quot;&gt;registered&lt;/span&gt;&amp;nbsp;mail&lt;br&gt;source address: NCKU&lt;br&gt;destination address: TA&#39;s home in Taipei&lt;br&gt;&lt;/font&gt;&lt;/font&gt;" style="rounded=0;whiteSpace=wrap;html=1;align=left;" parent="1" vertex="1">
          <mxGeometry x="640" y="440" width="220" height="70" as="geometry" />
        </mxCell>
        <mxCell id="lO3RNEd2ny1g0KPbYaqU-39" style="edgeStyle=orthogonalEdgeStyle;rounded=0;orthogonalLoop=1;jettySize=auto;html=1;entryX=0.5;entryY=1;entryDx=0;entryDy=0;fontSize=12;fontColor=#000000;" parent="1" source="lO3RNEd2ny1g0KPbYaqU-40" target="lO3RNEd2ny1g0KPbYaqU-38" edge="1">
          <mxGeometry relative="1" as="geometry" />
        </mxCell>
        <mxCell id="lO3RNEd2ny1g0KPbYaqU-40" value="&lt;font&gt;&lt;font style=&quot;font-size: 11px&quot;&gt;&lt;span style=&quot;font-size: 12px&quot;&gt;registered&lt;/span&gt;&amp;nbsp;mail&lt;br&gt;source address: NCKU&lt;br&gt;destination address: TA&#39;s home in Taipei&lt;br&gt;&lt;/font&gt;&lt;/font&gt;" style="rounded=0;whiteSpace=wrap;html=1;align=left;" parent="1" vertex="1">
          <mxGeometry x="640" y="540" width="220" height="70" as="geometry" />
        </mxCell>
        <mxCell id="lO3RNEd2ny1g0KPbYaqU-42" value="" style="endArrow=none;dashed=1;html=1;dashPattern=1 3;strokeWidth=2;rounded=0;fontSize=12;fontColor=#000000;" parent="1" edge="1">
          <mxGeometry width="50" height="50" relative="1" as="geometry">
            <mxPoint x="10" y="574.6700000000001" as="sourcePoint" />
            <mxPoint x="50" y="574.6700000000001" as="targetPoint" />
          </mxGeometry>
        </mxCell>
        <mxCell id="lO3RNEd2ny1g0KPbYaqU-43" value="" style="shape=flexArrow;endArrow=classic;html=1;rounded=0;fontSize=12;fontColor=#000000;" parent="1" edge="1">
          <mxGeometry width="50" height="50" relative="1" as="geometry">
            <mxPoint x="-50" y="575" as="sourcePoint" />
            <mxPoint y="575" as="targetPoint" />
          </mxGeometry>
        </mxCell>
        <mxCell id="lO3RNEd2ny1g0KPbYaqU-44" value="" style="shape=flexArrow;endArrow=classic;html=1;rounded=0;fontSize=12;fontColor=#000000;" parent="1" edge="1">
          <mxGeometry width="50" height="50" relative="1" as="geometry">
            <mxPoint x="60" y="574.6700000000001" as="sourcePoint" />
            <mxPoint x="110" y="574.6700000000001" as="targetPoint" />
          </mxGeometry>
        </mxCell>
        <mxCell id="lO3RNEd2ny1g0KPbYaqU-48" value="" style="shape=image;verticalLabelPosition=bottom;labelBackgroundColor=default;verticalAlign=top;aspect=fixed;imageAspect=0;image=https://i.imgur.com/GE6F5y4.png;" parent="1" vertex="1">
          <mxGeometry x="-150" y="730" width="520" height="142" as="geometry" />
        </mxCell>
        <mxCell id="lO3RNEd2ny1g0KPbYaqU-49" value="&lt;font color=&quot;#666666&quot; style=&quot;font-size: 11px&quot;&gt;From:&amp;nbsp;&lt;/font&gt;&lt;span style=&quot;color: rgb(102 , 102 , 102) ; font-size: 11px&quot;&gt;Taipei Post Office&lt;/span&gt;&lt;font color=&quot;#666666&quot; style=&quot;font-size: 11px&quot;&gt;&lt;br&gt;To: TA&#39;s home in Taipei&lt;/font&gt;&lt;font style=&quot;font-size: 11px&quot; color=&quot;#666666&quot;&gt;&lt;br&gt;&lt;/font&gt;" style="text;html=1;strokeColor=none;fillColor=none;align=center;verticalAlign=middle;whiteSpace=wrap;rounded=0;" parent="1" vertex="1">
          <mxGeometry x="675" y="620" width="150" height="30" as="geometry" />
        </mxCell>
        <mxCell id="7d2Lsice15qWXbKU-YTQ-1" value="&lt;b style=&quot;font-weight: normal&quot; id=&quot;docs-internal-guid-344d6376-7fff-51d5-41c8-37c17d0230b1&quot;&gt;&lt;img width=&quot;308px;&quot; height=&quot;504px;&quot; src=&quot;https://lh3.googleusercontent.com/bl_xvNcr8CzjHQkjHUrwmmOG-JzX40xEMUFrWrWqdESbgpibKUzehJAQN8K8hABYvx4YmGA79dAiDgM0W0hOldANqx_5JHAqDdbNMDNjMCs_SNSHaQLeGFy3uN8MfiCyNQ&quot;&gt;&lt;/b&gt;" style="text;whiteSpace=wrap;html=1;" vertex="1" parent="1">
          <mxGeometry x="-530" y="-150" width="330" height="520" as="geometry" />
        </mxCell>
        <mxCell id="7d2Lsice15qWXbKU-YTQ-4" value="&lt;b style=&quot;font-weight: normal&quot; id=&quot;docs-internal-guid-367e1236-7fff-11ce-2830-82f97136d65d&quot;&gt;&lt;img width=&quot;311px;&quot; height=&quot;517px;&quot; src=&quot;https://lh3.googleusercontent.com/1laZLPNM5bLZ-Jceej-_HHufThYPkSsodQXON5-cgOuDG9h7ysKytwQ_Q90azR57HZpU893Btx1X4fbenRbOqW1AvdOFM0PYm_QpfBZ4tmURzXuJHvIM8_RAgo2KsmoY_Q&quot;&gt;&lt;/b&gt;" style="text;whiteSpace=wrap;html=1;" vertex="1" parent="1">
          <mxGeometry x="243.5" y="-160" width="340" height="540" as="geometry" />
        </mxCell>
        <mxCell id="7d2Lsice15qWXbKU-YTQ-5" value="" style="shape=image;verticalLabelPosition=bottom;labelBackgroundColor=default;verticalAlign=top;aspect=fixed;imageAspect=0;image=data:image/png,iVBORw0KGgoAAAANSUhEUgAAAQAAAAGRCAYAAACKSG2AAAAgAElEQVR4nOy92ZPdyXXn98nM3373uvfWXgAK+9boHc1uiiJFUhJljWbkkBUOa2zryf4D/OSwI/xgh/06L361JxzhCdkTMyFLGolkkGNKTXazVzYaS2MHCqh9ufvy2zP9UNVNNtmiKE93owncTwQCgXsv6v7y96vzzZMnzzkpjDGGCRMmPJHIR30BEyZMeHRMBGDChCeYiQBMmPAEY33Si2ECK3v5530tEyZM+AyQAk7NqU987xMFYBBqfnhzIgATJjwOKPmPFIBMQ2882RyYMOFxwPolC/1JDGDChCeYiQBMmPAEMxGACROeYCYCMGHCE8xEACZMeIL5xF2ACRMeDwwCjUQjhEaSYxNiETNmitS4gHjUF/lImQjAhMcSRUpRtimrNoEaUFBDfBUSqCGOiFmLl1kJjzHQM2g+eY/8SWAiABMeOyQZTfsBZwvvUXO2UGKEUCm5kiSqgAU8lWzRcHa4OzzOZnqUmCJPojcwEYAJjxVC5FScVc4Vf8xUsc0GLiPTJBYWiXBIhY3SCTOqx1LhLnW3xf3hNnfGZ+npWfQTZhJP1mgnPJYINCU2CUQby005WrnJgr/DfRNwT86QCRtz8EkAlE8ofXq5x5Ld4VTlCr4c8d7wNxjo5iMcyefPRAAm/NpTlyt8rfE9Ci5IIhw1ooXHntUkx+GTWt5kwmHPajDKfYTcpu7t4I/HDLThSVoKTARgwq8tAs2cusSLpe8TVZdoZzG2zrBTzbo3T1+WMXkGfHJdi0ESygLDXFG1+vhOD5nlT9Qy4MkZ6YTHDk/0+UrjDdLqHLfkHNqyEdkIL7tNL01JrBTDvvmnOuXD7neWtFBiPwXGCEliQFkpvhoiRAbmyTGLSSLQhF9bptQ9glKNcdxHCxtjDAOt6eMRxBtIk+x/0Bi00eQHf1Kdoo3mwzyB9MDrd50hUqaPckifOxMBmPBricBQszsoqRkKHwCDIQciVQIhKCY7gCE3+mNxgDzPyfOIQt6lmbepEOFJRcXfxve2EeLJ6YXx5Pg6Ex4jDLYaM1UYYqJ7jLwLZDonNxkYgzIpwmhyYYMBbTQGgzEGozXonCnT54JsUVAWylZIq8gsLU4U32IllfSTeVIe/0zBiQBM+DXC4IkhFbtPuThmujhkmKYkskCcJyR5gtJjiskmxmjGVpXU5KRpSjJKkI4kDVOafsRxr48vFeu5y8hITJrTUJLDQZti9ip7/Wna1jP0Y8nITIN5PJ3liQBM+LXBYcwx7zLLlYe4Xk7dGXBPLKCFjSU1OhlSiVdRaZ9MKGKdk6FJw4S03cepeIx3IuZnRjQCzTUzxZY1gxb7qcC7ekRBWfjFDnXxPse8Pht9h/eHv01qSo949J8NEwGY8GtDyepxqvqQIGizoy0qJsfKQ5SOKacddHSfSLiMrSqlZBO3v4rJXaoiYabcQXhF7jcKzASwmmSs2mWMASUMAsFYFhhrkLKJWyzxTH6Pk9UZVsYt9vREACZMeKRoBInOmTIJfh6SGsN0sslAQ0/bjKwaHVFBJEPQI6KxZsrscG7aY9a2MEpwyBsTRQNuW4eIsZAmRxhQ4qcFQVooQlHgXl7nWb3NKe9d0u6QgXUKjf0I78Cnz0QAJvzaMNBTvNN7idPZuxwrblBggA6axKnLnjNHaARhlDBcz2iJOsF0Ccd2mJK7jNOMJNPkYcYHcZNhUAX2A4SZFkgpEeLjAb+W1eRaGOKO72B1xzi1BpGafRRD/8yYCMCEXwMMRXZZNG8xSGb5SfoV9kbXea65Qr1axd9bI5Mu0miUrQnmqug0B9ciVT6ZsLlMnU3RJLYgSnLs3CDVvsFrNPv5fx8vC44zwUY2zTNzfQ4FY27oBBmnGG1hzOOxOzARgAlfYAwWCfPyEsfdd5gTr7IavEQvbbKXnubdzgIvu9sEhTlMYgi3R9SqNRIV0+13cYMALRy09HGSkFRZGM8i6w3h4ZhCo4hX8NFaQ6rBMoxGI5yii+3ZDLcHWLubiDM5UaXCtHWFYvI+Ml2iNywidYhbqKGTAdvjMgMzh/k1S62ZCMCELwwCgyBDkeHRoyB2OSn+muPl2/iiz46colM7QS49Do3eptebZdC6gz3/ErW8zJw7xWJpgdd++EN219Y4/rtfpmD7SMeiEN7EEiClRbVWoaAtPvjBZV78ykWG/SEbK+sE0xViO8P2HAAqizUK8w6l4atcTH+CLJ3EK0yRp+8SiQFFt0KuB1Cu046rXBktsxKdJ0pn4dekychEACY8UgQaiwiXPr7oURJbVMU6c+oSVWeL3CuzLuepxCHCsiEbErtlusXTVLKbyKhDFgumLZ/moTluX73DxsoaX/vqb+Lg8cb33iE7OUNzrk5g+ViqgMwhFxGdvQ55kpPFGZ29DrMnFinMltCuYWRiDAYhFe7UU1TzLlnSI4l2GWYZJTnG9O+QYNPzcoKCzVP6J8TDh2xaXyfRSxht8YuJRAaBAfTBv9Qj9RomAjDhc0eSYJkIi5C6ekhd3KcublFRuzgqBBmy6yzwvvciiV3DsnzGJkcJg0x2SNQU0g6Igzpm2GO0uYFTHPHBzirf//aPOH3yBI1ane6gR7cz4i+//Ra/87sXKJwuU5Ilrr17mY3VdXqdHuT7OcJbG1vINyXNuSYnnjtFVEgxOqSZbuAq2EpzhrrAfL7DDBE9q86m4zOV7VBMdrjHLCrMKY7ucKLWJ/SeJsuaYCSCA+9GGIQARYYkIzMWu+k8vXwa84g8hokATPhc8OhSEJv4YkBBhVjJJvFwh+emr+LLDkO7wUB79OUMXXeGvjdLojwEgmq8zp5q4JMyE68ghE0qlsiVz9gqoZVPo3qEv/qrvyaJuoisy6V3XiNKBfVqjXjQ4+9evc5XF46TlFK0C5bnIJVEqn0DtR2LOEmIRUZMhjGGRrLGaTaJQpt7pk5RSYSjINlmNxJcHZ7kuCs4nK8w3LwNTo05e4MFeZvMu0tizyIQGCMQ+yrAhz6PJTRSu1zqvcxwXCObCMCExwVJjid6OGKMp7cpiB2mvT3q1kOCfANjO+wJm5XQZbd0GMwMYyza1gxju4IWFplyAIEEXB2TSxsvbVPRfYrJbUYiROiENBW0/KMoWeHCixd5anSUmYqNdCpIu4ilJIPzh7n7cBUhoW0GHHrpGMeOHaW700YIiZCS+cV5Zg4tUDpaQQcpZdPnFHtUg2nuxyk2ijk5IhAabTKGwxjT3aLQHGFZLk0rw8rvM123ye0SPZ2TZl0wmr4zx8iaQguFNpLc2FRNnyNyiFLw4XLgUTARgAmfKoqYQ+J1jnqXwUqILIfA7DLvGWxL0UsD+vY0ndox9JTNpfYQRES5qciUg6VDgqRDZJUZObPMZ11mpWLPKuBmW2xZCyjlktvTzIQ3sJM15CBhz6ljO1vcvn6FE6+cwfaKZMKn02lz5YNbnHzhAnFRkmQpOtOUjYsxkGcZOt+vFpxplFm7cZ/lpSbPHfdoWDVE1me2cIjZpIUb7xImA5TQlPOYc6Udpj0bz5tj3lfshDbXg2OMpU/Efu/BSrxKP1e03ebBWn/fFRA6RWd9hMgPYgKPhokATPhUEOQ4DDipfsAZ/1V04LBbOIOlM7SGoUiYchyGdgGT9CiJLjqokUaCfu4wkCXCzhhLK/JynUreYna0xWEd4Vo+cbBEmjbYsGYpJltMG01Rh7h+ldOlHrHb5XJ7m/W1DSruYQrWHqGpMLJc9u6u8fzl2ywWFIM/+T2GjQbt9g47Wztc/sllKtUKWmuagcWNtRZDVcCaAasyTTqCUnifJIvY0AXWnUPMmQ69PGEdmx2vjqVsUqEh32DNO4UW+4E9L+shdULfmiY3CiHlz980hNjvS/ComAjAhP8gXNNhits0rYfMuGvU3RV6wTyd0gWsdICb7zAqnCI2KbXsFj4x65VnUVmfWriG58eEWUI+NvSHKZ2hTeQfplA5wXzne1RGN4krL1GOHrBp14isGiXlMjN+j9L4LgCz+h1MdJvrpsbm1i7fefUmvq3RKNKB5JWbKyyvrOIazczdbf6fi8/x9s4up86c5MILF+i1e9y8doPvffdHrK/v8PRT59lYvYnpD1jZHHP2ZJV71LnnHGIoAwZpwIx3izCp0reWEELsBzTFHhp5MNMbLB2S4ZCIgC9qWfFEACb8oxDkuKbHlLjLEfEas/46vpNi0WGkPLYrLxM6M5SHlymO7jEonSNXAalw6SUrTGU7rHOO3D9MwT/G5ughUdJG6hS/OYRog+233uP4cbBKQ/reHCLZoDi6StE/ScVNmNUdKskDrOIConIOoYpo4eI6Gbbt0A1tosggWz2Ov32V8w838PP9dba8dosv7e7yyn/7n1I7VSLVLVZw4elTjIYjnj61yMWlTYp+QD+u8mDUY5zW2XIbJNLDsJ8i3Jx3eT56wJtxSGIHKLnv2iuTkh3UFWhhI8lRCnL5cQEwCITJsUWKEOaROQETAZjwK7KflTcnLvGM+xc0nRUSb4qeKLBjH6Zb+B20KjEVP6Te/SHV/iVE4TCz43e5Ky12yhdp2bM0LMPy+G1M4UVs/xx7dkhbGxwd0sy2+fLhFDPn41iC3VYBpRwWl+ZJkx7ZcIPluE156ink4p9iwg10/zZm/CY67vPMwleY/c+fp+CXmb17D/G9K+T3139uGIbF3Q7W//43BP/Df8ygLHCzDr/1TIHDC4uYwU3wp8niFpKUxrJgZWzT3R1TbEjswEELxSDpM2c8Bm+8RX7yGaYaYzLpkUnv4IsEkVWmHK/jmIgQj5/1Aoa49JVN2YlwFCTZ5/YgP8ZEACb8gxTFNlW5xYx4jyPFywjP5Y7/DQZWHY3Yn+mEZHr0Ptqu0ar+BkYFNESEYysCCUonDK0mO8P7NFwPO7xEpDxmCdH5Lov5Dotugi4+hzYaGffp7M0wHkE1K5HZxwiqy7ilGjobYLa+h04G6MIZRHodVTnNrK/wo2usfn+T8DvruFvJQcxNgPmZWVYbshtrjP/FX8B/dp6qkxL09xjZ0wyNohtFrIgmQ+ESTh0hjQxZq7Mfo/As8iRn1UxRzB/y5TN1tootTJrSdpYx2kLIfWvWwmbozFBKNjFCInVOqgIy4RLLgLWsSiO9TcGcYMijKTeeCMCEvxdBTpFdXrH/N+YL19n2jnK39HWE08DJ+gTJDirtkKgSSeEkydQ3SOOU3M4Y8QJebwWDQ6ptfL2FpUaEusiNcJYpE1ISu0wN12koAcF5tkebrLddTGWZeV+y9NxRpLBoDXvcuvY65H1OHIN52cWNdknVIrFzHt+6ihzcYNB+SPdhm+lbe7jbCSiBXHARCvR6jEkMxrbJHBt7NCZ76wEqGbD0XzyLOPwcN7G5LmZIhPux++AE0Dw5A4DRmngUEyO4XVriN6fXmA1X+VvzMqP8EIIEy+kjMEiTE9s1XD1ibvg+qfTZLpzHCIEwkCOIlSRX5iAh6fOPE0wEYMInYjFmRt7gjPV9Fpy32bJPsx2cQxlNEK4gTUxqVRn5R8ili6M83FCxcfch8xcOkYbT/OjqKoN2iyxLefZEzpHjAQ/DI/zldz+gUvRweEiSpBhhY9ldYiMZx3ucfUrhnz2OUmMsLCIRM8xcLl/uUm80mK4WyeUiQuf44btYjouJY3aG0+wlsHykiFxZg7LE+f1Z8pURemcLkpxRqcgPayW+tr2LPwzJL3cY/J93Cf9gTOfcCVIXtNQIJX6hPBhASEmhXkSYHCfpMQ47lLxZCCXKGaJkhKNDKmZE1YywyVEqRki47R0lOxAXLRRDGVATaxTdFdr5YXS+v3wQaD6sjPjsn/OECT+HIGdBXuKi929o2mtsqDmctE1zeBktfbRdYRCcJLHrICSWUIhRzvrqOmsrq1RnavR3O2y3R3R22uRpSqWywMnTZ8hGA9760Wv80T/9BndWWty7t4IRitnFRSr1GusP16kGDpYUXNp9D6MNaZ6y/nCdezdv8qoludmsQuayOFfl6UMJ5WgT7Br1IGLhpEYcO0k+Y5ClFHlqimzLHETmc0ZZxv/t5Jz6nRMcf/UWei/CvbEFXzmDSSr0tttY1RJeLdgXAQxKx/uNQ9AIs3/SgK3HeOmQfp4w7xY4mlxn1SyhtGSRAdOmhzIpubAwUqCCKrkY0dcxQ2MxlCUSbLRboyY2CZOrSHwcmWErw056iEFeAeRnKgQTAZjwC9S4x3nnuzTkHVIjcSQkBEghidw5AJQOkSZFCxdLKHZW1vjxD35Mp9WhXC5z5+YtxqMhjm0RJmNu3t/hhReeRguXUrHECy+8QJa9QWtvDy0sDh1eYnppHq01lgWWkkilQWQoNEUXPNfCcX2UOwVSIU1MNOpRkoJ8vMtaq8nhpiR1UtaWypSdAfN6D5F2EOiDEIDm2PNLBF/zsaZfZPCdKwwaRSpHy5STELHXh0oBcRC1FyajkO5i52N+1kU3QjJy64RUmI73OGRr6mxjjMHG0MJnW8wQChcjBIfoMJ/vMi8UqXDo6S5tfAKvwoI9YEm+izI2lgyRxKwNDrMZL9LLZ2nrpc+sYGgiABN+BkPRbHLO/jZz6godGdAqPcts+AG+EvSTNntT30DqEDvtUBzdIvIW0PYU9fkmc4tz9Lo9jh5b5v7t2+xsrLN0aIEwjFg6cpjAadPLUrQxDMcRs9N1XnrxGYQUlOozaNsmzzKkgFOHFcuLxxj2RkgUtpDs7bQ4trzMzPwSrhgw797GG7yHCBaQeUSSS4ZmCsdbwinY2MSg+wgT8WG6rStHfPPULovN04y+3uTeYkDoW0xPtVn04ctHetwuJYTiwzuiiFSFVBYw4kO3XJBLZz/ibwxXtKAmImqEoDPuihptWSYWPubgBKK7uWAXG08IqkRUTY9pMURnAUMsxm5ObCSpdNBacbT2kGNmj3u9Gd4e1IgpfyZPfCIAEw4w1LjP0/afc9h+nZa/yG75IqF/mMQ/gmfGlDtvcLT7ffpWk553hMza//UJxrfw7Bnu3bpLmibsrT/gwukFWlvrSMthHCV4CsqFGptiGyE0gSe5eWeVp88uU6pUuXprjVxAYAkcqShmbf72nRX2eiO+8tvfxK0O8IoVytUpdrfWWV17wDefzqkU6yTuCeRom2MzGdgpyjLMz8+zvtsgHb3DtAiBEDBUCoovn5pmbB3l5tpV5DGJpSR7MsCXEScXlpiKN3g/HtNxlzBCElu/xPiEoKUadE3KukmRyhBKH/1zxT1jVSZUJYTJ2TQJgZyiIHI0ggEOibDQAqRJqeourmNwEGgdH8QEPhsmAjABgIA9zlt/zSnn/2XPW2Bj6rdI3EUQikFwjKHRjGSVpdbfMMcKgRmwVnyJ1Kpi2WXWr6xy+8ZNvv5bXyKLB/zdq+8w6A95IShyfnWL9Sji3vnDjClhhMJzJBrJa29eQguXwXDEzPQU4XBMOt2k6x5hbe9HDMcZgyQHy8L1A0pFj2F3SLe9R54V0LKExsEpHaHstzCjh5jBFsauEw3r4CwgrB7QByC3AuT0RbJxzFb5MJSaGKlIpccwa+ON15ivHELsXuNNWWBs13+FuyfIhUMonF/6KYPACItYWCT4dH/mdWE01XSDY3RZ8Evs9AI+6D/LZnzsM5v9YSIAEw4IaDGvrqGVRYZFMXxImg3JrRK59MmVT+zU2ap8CTfr00xWWei9znr5ZYw3z8pqm2/9099jtiyoNGaYWTxE9dYtTr13jeMPNhg83MT57/5X0hefY7nTJ95a4+kL5xl2t/AKU1y5eo2p+jRR1iKTDjuRQ5Tup9X6UwF+30fpMU50E5V1AQMmR2cxvttD1U6DyaBxETO4j+59wInqADV1AWkXPhqnwCDyhGh0g3jqq+S2z4dr+7Yzy+Uo4uJwnfnZ5zi/c41L6jkSWfjkm/YfgEGQJznj3S51b8ysGLBxs8d2WRHNVLgc/i6ddAnzGZvoRAAmACCVC9JizzvKRuMPEBictI2TtJA6QuoEqSOctEWmCgyKZ6iNPqCT7jLyZnnxay+hwowHt29y9liZjfVpNu7cZKnkYeWamjGwscvZv/guZwH1r75DNrvE4Nwyp5ZqnDj8m1y6scnNO6s0DYTDCKMNQgksT+HakvEo5ts/WuPOvVWmG0Ucp45bmyHKY+5svIuwiiwoTdmvIA/9JxSjFibtk+iED7OAHOVhZV1ujKqs3m9TnC5Smi0jpMSg2PWWuTbs8or1gBP1E6RbP+JK+Wtk0v2l9+9XxRhDFqVkSY4lNYetNs8XU0q24NrRZd5aP0vSvYiQn09/gIkATNjf6hIJueUydmbI7AogSO0aAFJnSBMjTIoXb1EaXkdG29jkFNMtwrCK5foUUxujPK7dHbB+7w7/5E//gOrGJntRjLvexkszCEPQhvy1qxy1b3D49Rq3XIt/V/RpBwE7wzHLJ48SNH1e+Mo5CPuUBx+AURT8AgvzTY4dnuLMyUPMzBr6o1tcD3PulL4GQnAr71EfrXOi9yrTXgEpBJCDkIAmTmNudfq0pp6hkKboKELlHggLc1DFt+6f5kH/VY6Wz3KkeY71cYsdOf//7+aag0NLowxpK/Isp3V3j1LF4nhzzNFaRjus8/ruBbbSE6TVMuJzTAiaCMATjiKlyn0WeIPctegVz/PzGWlaWuiDXxUtHIROEdF9UhS14VXs0X2UFMSVb3FkyUfFY/7o957j5FxCWNoj/W/+EHtTk272yH70JqLTw9luYcUJ1uYuTwnB4XqNvRnJ3vJhSqUCbuceh6rbuHMBPhbO1CzPnZvm+eMZlelpQj1ivX2be7nHtncSjcSJxth5D63HbMcRmV1lqrKMDEYgtoCMUWZxPz9EOdoj6fYouSNmRorMrRF58+TCIhc5d+2j1Hu3CCqnmM9ajPWYMQ5a/IomYwxJmB5kIRu6D9oUZ8tYrkW14XK4mnBIpuyE53i3e5Fh/qvEGj59JgLwhNPI3+VU9n8R2Jot91naURFXZAgpSKIEx3NQ1k/d0Vz5pHaVNHbZknMIr4GvRwTpDl7v21SdGlOzZ2G8hh4MkeO7TC/OMzg2z2q2TPiNC9jbHWrff4PKm5ex4xCxO6C816a81+bo+g7m/evEzxYpPdVAPXUeEcSUykOmLsAo2eNqa8SmvcDYOkVseyid0Fi5x8w7N7BKMfdfeZnt2hlcoZnrb3BksIanEwA8V3KkkpLnCdUlEMpFKUMgEhZpUdRjdB4zUhb9qIebv83J4BClaIPrmU/bnv3oLMFfhtaG4XYft+ThVXwqizWUo7BlxpFan2URszZY5troWUZ57TN7vv8QEwF4QhFops0lTut/TXfUI7JL9MYu3bBNbbaBshSt9T2CcoGp2amPnAJhMqx8BEA/OE7oLSJ1RDm8z8LgDaZkvJ9z1/+AxKozxiYZrzDII4R0UNUmcWOWjdN/RPL0HLPb11CXNjB7kN3bxeoNEN0+3hrk73QwyyvoaYM6USSZrXNn6ShrpSUSUQQMjh5RDHc4/a++x9Rra4zm62zWL9B7cYFYyv3efri4Bzv4iVDctA6ROS74B3ci8yBTVKNtGlaPqoKyHuKYlDgZUVS7LLp18myXDzJFz5r+aH//772/QhDUiwdHj0ucooswmum8wzEV0R0vcGP4PL380Z40NBGAJ5QK93nF+ZcU/W1UcRqrECDdEb5rsJUit2uUpn6+Qk3jpG3srEvoHyK1qxhhkasisSrhyDJmq0F6/4dkXpe8FJPKgJ7yGVllcumh8jF22gFAPCuwxx72K19m9XrK2r9/yGwro9Lew+/swmYLvQnGlejX2uRzHcovaebOjBnMzqCLEicfk4gSZmCBMXi7PeZ+eIX2qSXSagHNxzvuGfYz8TAgEGhtE49mScM6Y7XMrtXHIsYho2QGTNHjlH6bhjAsegFJuMWN3GFo1fhlxTtCCtySy2Crj+3ZOEWHqm5xWraJowZXuk/TzRc+7cf6j2YiAE8oZ8S/Y9G6xkbpeZQ7x8g7ggKKJsPKdkizBOqLZLn86Pdc5SFevElkz0IqCAb3YR2cu7uUerdxTUZ06To63SI7VEKejwmeTknsFklaQjsNQncBpUOsfIRKtvFKDbTbYL074MrXfp9Nr0ljcIOl1dvMfe/H6DhHjWLY1Th7bRZW+zRnbjI+Uiee9ll95QVGc03u/NFXqV1fRSUpjav3aVy9z+ZvnMfsZ/Dv77UDYDDaAIosrZAlFfK0gLIisrhCEjZAGCx7zNDfZWhJFlWBYhZhRMYhr0wcrnNb2IwJ9n+q/HsKhxCkUYrJNRU/5pzcwssLvNl9iq3s+EdxlUfJo7+CCY+EGXUTnQ8ZWTX6xfMkdh1h9L6Ln/Xxkm1EHrF5r8vCyUUkmkJ4D4PE7Cqaf/59CrduI3sZqjtGphGJkJhBBEIg7iakaxWo1Sme6NFXNnbWJ1cBkTuPl7aY1rvkdo21YcyDbJmwViI85bMjl5kdxXgXLa70XKb+/CrOMKR8fxPVyfA7A7z7I7Sj8N8esvP8Ju2zh+ieWGDq2gO8Vp/p927TemoZXRDkP5OVZ/iwPYBFGtXIojpCprildaQz3K/nFxmW10VZY4QY0s88poRmHO5SClxO+A6jcJN76hBGOp9o/EZrjDYUm0WEEBxRO8zZBd7aOsOD5Dw5vzxp6PNiIgBPIJKMomwjhEWv9BSpXQfE/jaYUKT2FF6yud/o03eIxyHl6C7GkWSqRPXSG0z91evIKN7/geZjf4ExiChDrozp3wpwjjrMRHfQOoPuq+Tlc5QLM3hC0xtsMJAnKZZjvN0upb3rnFqoUAvaqPM1wrDA5TN/QnEQM/N3l2i8+j7eTgeZZqg4pXZjjdKDHQ59x8MeRQCoJKV2dYWpW+sMnl/ESPujijqBQAhJnnkYbeOVV5AyR9lDLLfz4QAQMgcgw+aetYgy20x7FqHW+FaFU4Eii3ZpOcso4TLqjdm+v0WxVGDx8AIIQ9cMkJ5hNt+gmmt+3HmROyIiKDoAACAASURBVNEZUoLP5Tn/KkwE4AnkhPhLilbIg8KXiNx5QCBMhsojcuVhhIUWDk42YHquTnLjB9y+u8NL5y2CfMDmWsxswYMwRjcdBgsLZI6PneaU37v50feoYYRzY5fhS+ewZiKmog1KpQVU/Qymd4VcJxRKhzjtBpzwN9kQI8aJohpF3HGW8PIWR8UO283TDGZsWnNV5O+/SO3mGnOvXaV6e43CegtrHGON458O0IDTH1Pc6TJKF8j4+BFdBkWeBlhWiOO34Zd05jUIUtVgJ50mixKKtuTdq6vMzjQ4U91hhSHdtofuC87Pn8AYQ/9+ByPAnfeossWz9oAb/a9yffj8x7yRLwITAXgCOa5eJ7ddVqtf3Z8RjaaUd1mMb2PiFn1jYUxGeXgD22tQO9IgWn4K7DK9Ucbw9Pu0j2a01yJaJ87Sfeo5jOXx0v/yZx//ImMI3r3L4MWTjA4fZcoNUI0LmO0fYJSPnPkau71NHsY2mangNQugE96jxlDWCbIxzxQ8SuNb7HrHyW2JmCoTffkcm18+R7DZpn7tAWf+5XewxhH2ON5v/QX4rT5H/u2rjKds5JeOIN68S9xOuPZf/UcIkeP4rX3DF/kvvVcCgRKKvb2Im/c3cKVg6+FDGutd5ufnOLKUU2xUeTDM2Xi4Tq5ziqUibtHDU2NOiR4qtVntVci/gOb2xbuiCZ8plohxCk12rYjYquMbTSHdYXH8Ps3kIUIqmkhwm4jqN/ar4dIhw2iHweAGW4nD3pElWmKBYXGPsLSAl0umbt6n8uZVAIxS6MBDDcegDaXVBwRhner8OehdZzzewWq+jG69y9A6wgO1QCYzhNmfiXsbfewgoeOACTzmTYutNN0P5KmfzqDjuSnC2Rpbzx2n+HCHF/7FvyHYbH/0vrfXw+mHiBdnSP+nV/ixOE2v1gBAyPRXvmdCCKQRZDns7LTodoaUi0VMHlGvn+byzft4pRq1RpXb129jWRaN2YAjYoNimvHm7gvs5sc+nQf4KTMRgCeMuriJE13jwcK3sJSDm/c4ktyk7vmI4BxG+eRZRBJ1iLq36Yoi93XAwD7EuPjUR5lwbj7gcDCk77jsjVIq//pHiCwHAcl8nc4/+w1m/o9vIwYh5fc38L56CuP+hDRpse2fYcEK6I93Sb0Kubc/C3+4t65ci4IZcET2iNOAvigglcQI+QsBNxmnWMOQY3/5+kevGSXRjk1UKxH7AbkxqLKPJQRKJ2RYv3hIx9+DEAKRQm+7y87WLkHBp9Zs4BUDPM/CSlY5vthgq9Vipzti0B3gOS55SVIqVrkzXOR++jw59qfx+D51JgLwGCAApcAiJUsibL9EloOtNMJotIE0B0XCvH2XYWkZ4y9jZZKizPDdKvnwBsKuMupfouUus2udRpeb7OYRvfzAQDEIo7F1iJv3SVSBVPnY45haq4swYKQiOTmL+4KHfe0I2Q+uk692Cb/373EaF9hunmNsNbHi+0h3iq5/FHPQZss1Cb4UeCWP5eQOZa/KtUTzwD0GQv3CrrvbHTL7wyvMvHWT2bduIIzBKMngyCyt507SPjrL7rkjBLpD5FZYSnYopusM3EOMjEUogv32Hr9UDAwGg5QC2943FyMtRtpiNxTs9noEvkJnAl+PKTgCS6eQG9bGNe4k54lN8TN46p8OEwF4DPAcQyD6JN0HbN69xonzL2P5VUTSJRx2cIIKXmATmG3GrR22my/jU+L9H77Nl3/zGfaUZEGskIgGQ7fI0D/H3ds9SsUMe6ZIlYyUnFiEOGkLP+0QWyU63mGSVDH9+hssbu0hjCGrBiT/7AQLswb5jUXy929h2jn5pZD2t4psHTpNM7yFzvsEwQyZOTiww2jmdJtFM+Zu26ZvuewWpuk4xf2188/E6FSSUru5yvTbNzn03bdxu/uZiUk5YPviabZfPMXmy2fJlEQbw6a0CS0PW+9RSe4wYzbZSGDTP8u+9Oyb+SehjSEXmursFEmSksQJURjR7w9Js5zS1BLuXodiocHCdI1SsYCUFl5pih1zjEE285m18/o0mAjAY0DZg2znDitXX2c06HHt9U0uvvJbjId9bDvAcQyzUx2yrZv87bt3eMqp4Lkpr33vbzlzfJm84JKOl9jsurS6mlDf4e1LdzBGcvrpMyhbUa4XmV4MSdNdxladsV1HC4W3tsWJVy/hHEThB186S2VuA89/jrRwCXm4QN7uw27CaCXBnE6o6h49bRFnmiJdhCzi6DHTpo/K+vSp0WEaR1SIhwlRf0gwtX+8lpCC2soWJ/7sB0xdW0HFKQhB78IxWheOcuf3XiAseGRy/ywASypwq3QRxLLJhldgjhE6cAlsl1TnJDo/8EJ+EZ1pWrstinbAzLkFdKaRSOIownEdHC9gdrzFfDOgtfGQ2abGcnwexHO0RmWy/Ivp+n/IRAAeA2yZMx73GPa61Op1Hq7cI03GeL5Hc/EEqUqx7B5Xbm9w8+4aQlp0uj2KruK1H7yKJeD8iQVKJQ9jIkw8Jh0PAYmVRtjSZc6OkfmQjjNDaNXQBrI0ZPrqTUo77f3Z33fY/NYzlJIfYKRDnuccnMiFyAz+GyvMnvgJ7lGfy7pAqAMOyyEyuUlBSWZtScc4uDUfH4ccw7g9QmcHe/LJfh296gzw9rpYUUJSLTI4t8zqf/ktes0yY98i1xqMQUqJshTmIG6QG0liPHbdKrblkOYpmcn5h87l0pYh8jJwI1RgoSRgbEwOTrLJnPyAut/AL95irMq4qgDZaYZp8NH4v6hMBOBxwGj8QsDM/ALvvPFDvvTlr5FnGQ/u3eH+vVs0pgsszngMRppac5bZZonRoMcf//E3effaOuGoy/MXjrDXGXPjdodBlDIYxVjKptXq093b4uL5i+ymeziyTCo8okxjdbYp372PFe4n4MhCgXR5kSvtJY63dmisDjB3Rvtrd2MILj1AtPZo//PzrFz8JkrAoXzIMVsz0hnDOKNiKV5QHVbiPW7rM/g1f7+gxrFAGozM2TrSpPjVp2g+2KX9zYuExxcZztYYphF5sh/dF0IgpcQIiPP91wwGhCDDkGYxudb7K/yD2f+TzwEQOGUPKQUZObkxkIMjLQZrA3ytuDsKqM9HjJMhg2AGg8tgnBFl6hGe+/urMRGAxwBtBLbt4TgOnXYL1/NxHJdKtcbuziqeiZhrHiP4+lfx3r7MicNlnjke8PRJi512je2tEY0yPFztksQR586fpT/OsVyPZ16+yP/83/+P/OE//x06zgJW2qE6/ADXXeCwdZzK7o+x4hwtBH99+gS/vfAK/alDXLnyZ1zojvBTiWJ/BpfjBG4lxH+9xfi5aXRU4ootKVh9RtJGS1hK1jgme1gEGJ1jFxyQkOoULTQoaMU5w+fOMPO7LxPMNtFKMozGhHGMFPtBPSkklto3QEtKcmMwApCQ6fwjwzTGkGc5QghMbkjHCXbgYDmKzoMWyTihPF/FKTj7OcQH2NIm7o5YPHWRe9c2AEmiAiL/CF7aJ9XmC732/5CJADwG2Jag1d5l0OuBMWxtrKLznLn5ecjb1K11LLdIceYFgms2VS/lVD3DHb6LEkcxwiaMDVE4pFAIODqbc7dqsCvTWJ5Nrg2ZyRnbdTJVI1Mj5lSB4t+8hv3edTAQHTlE6/xZVO4wXz/Fw2qdtWdPEcUlplZ3qK3tUlzbxRjB1uwLhJ1j2IwZRk0ix8Xy2mQS7ol5RJZQy7ZY9ha4lweEmULrHKMNllIUqkVG0YC0UMBYijAOGYchQoBQ1v5MLgU5BozBGIkjFSmQ/ny4z8Bwu49UimQYM9ju0zw5TdAoYgcOTsnDKThI9dMtSCkEtoDj1Q1u/OTfcqrZQWcOoV0n8g8RJiuMMwdjvphHgv8sEwF4HDAGbTTHT53j8ntv8ewLr/DWj/+W5kwZ187JnRqZCqiOb1HUHbRZILGPsDE+y9beTRzbJlB95qY02mpSdRI8IqxsQHdtnT/50z/GDgS53nehLWWRD/YY767jHWwRyt/7baZmGuzubbOx+RN2x9vsHf86w6MlpJCU2z3cnS5xP6f/wtPU5FvMR2+TyAoahUxzLDPG1mMG0mPOjDlvjXgYZxhVxRgQSiKlwi7ZBEUfPc4ZjseEaYyy1L6BCoFUCiEFRu+799FBM5APkVKiM00eZyBAKom0JPXjTerHm+gsR2c5XtU/OFx0P0ogAVe5FCyfSt7hqcMFzkzdpVCYJ0sG9L0jWEmbKJGM0hLGTDyACZ8D3UgxfewVSnbEuWdfYW75KZ7Jod60cAe7FAKLerZOVbgszdfx7A65nOHKg5zI+Lz87FPk3depBpIdb4ntrMfs0gxl1+XU4S6j0wEPk1VKeBTzHjXdZ+at6xR+cn3/AkpF1i0LPwiYnmvwN6+9xsLsWWJn6qP0l3C2zLDqsX2nxaLaYja+Qdc7zMCZ+2hG9vIBjfA2He8IWQ7jNCSRZTzLRtmKXGsys+++51nO5p1tSvMV3NJPuxYJ8dPSXGM0Ote/GOGXMG6P6DxoUZwuUVmsIuTPzPCWPPh/+x83et+Z922PslvEEVCK2yivTBjtoabOk4SbOGmCnw9JTAXxhV/97zMRgMeAfigZxSWKbpETv/Gn3G672I3nCSrv8ax3CdeyiLIKKyxQOuRS67xO2Ctw8sX/mnPPPY2XbfPgXh+7Pk/YWyf2XQ6fn2dufANveBMV73Go9gpVkeB7VSyrymBmkXFjgyAJkRdfYPEPf4cLy6dIdUilME8sfdx8iBEWwuQEWQvCPrkDzXCHrpxmYM/vr70PLC2yKmwEF8AYVHGZ7uAhuVOgZHkoITEYMp2TpTnCEjSONsjyDPSBsX24Rj/ow6e1+UXjFweBvYJD48Q0TsFF/FyGoRASKT/qHoBAENgeZbeELRX+eIWy7iG1vV8rIC2ydEimjtAvncXOOmC+4OH/AyYC8BhggExDNxQI4YEBJQ3L7kMKZp2YIqvWHBv2Em7aoSENLXuKrWyP7u1tTvnrpHsVRNumIAWV8SWKakC8aFGQPSpCMuUVSYVNNzf0x0MeLDrE/+QMiy0b8du/xcb4MsvbI8JkhM771I2HFXfQB/l7WtrkQZn5+T6JXWN9r4wc9ik0SiANQgi0MZgso5Z1EK5ix3goaX3UykMgIIfBTh/hSCxv/z2hJJayQBg0+zP2h4YuhDyYyc1HzQCMMcSDGIPBDmyMER96+hgDRufog+UOCGxLESiLkh4gswQjHbROMVGPqtofYSQLDAqn8KWHg/5MT/P5NJkIwGPGhxOeNDmVeBPjuXSdJWLpM2t6uDYMwzpjMcuiGkHcZtEe4b/5gNGV1zAIVD7G0iOs5wNMMMRMPUdqrzPor7BVWeTBhTN0m8eIXh6wmccYs4Ec9CnEt9jOFV7jLKG1P/M7ekQiA2KrvF9i7BukcvCGPcb9MfEgIo0TCo0ixhjKWYczapfROGfXOYY2hihPkELud9qNE9Isw7b3A3OO5SBthZKSTOcfzbw/69L/vBdgtMFojeXuBwwlOY2sgxIgTfb/sfdeT5Zu53nfb4Uv7di7c5g8c8KcCJAAgxihQJVYVtkiy3bZJZmq8r3/CesfsKpcpfKFfekquwRaJCWTJimAJkAiERBwcph4emY67975Cyv4Yn17T885ByRtIzSgfu5On9397e7Z611veJ7nJbaGAkkuUiqZ0PARW+aUFXOILA8pGzeI4iZ+sksUtwCLVNni0EvhkBcB4AI/TkgsDVnhPERuxlWV07X3KYqKb+0V7Kzf40a8xQuf3cC9+YD8D74VfPvPwD0pcMJTyW8DHu0dm+19Jr/dZPBbV0maCb5W8N0sJ/xsu8tXx4ZpssoMAM+M3mKhpvAErwHnaa936Cy3OfjoiMlgTNrLkEKQ+JyWlhwZi4i7JF5inMM4g7cOLzxxI0FGkiiKyeKEyhnKqsL7kElEkUZJReUMrv7aM7+XdahYky4FYw4pLB0zZEdXNJniKMMiUBFRqS6RbtG0Q4wdkwhLah9hZYsyWQOrwOakShOZAcRtlHAo4f4mftG5wEUA+CmEKwdsii+T5W/Rr5r0ltZBSnZPp9w7NKhmznZXoHEcDd7gXhyRfOEzLL99/5mfkx0MAtWW0EUXQFoM2bhzhyP7CgPVxQtN5HIuRYJi+pi+vn3mJwicr29g78J/O4+QAikFsdakrRjVWKqJO4JlVdEQnlI2EELR1AnOOUpryF2Jl4JqNsFPIGtklLaisgbnHEJKlFIkKgoUYO8pvfnEObSV5eT+MZutBBUpnNDsR1s0/RFOLTEVTZwqwU1YkYKGG4OIMdFVpBJMlaRkCRs7WrNvg5mRRW12ikeUpSTWFb2WYWos01JSmvPbErwIAD9laPuHrMz+gGT6BidmTF+8xu3WhFIOuXuYYfOK29c2aKxe42j/L/i23+ZofRv1z58j6Y8XP0cAG19/h+R0zJU/+lYdCAISKtbtEQ7BWHVYMkesRBVv5Zq8+dRJ2PuQakd2StscYmXEON4KWYD3GCy6kaCEXxj2DGSbvivpmD7GliAiYqWpnEWqMFZLuxkmNxhjsF4sbn6lZL3iy1M6g3EWZ93iaxCmBCqSpEspzthg2S0TmvEyubhEPvHceXeX515/lUoblJL0T4+4/959Do6OSZtNVnd22DsYIHzFaxuXuXmpxRsfWk76h3SWKy5vLsO0T8O9h06uc+Kyc0sJvggAP0UQeH45+le0Nh9xL36NVvYi/tSTj98jaUteunKLlk5pZhEnp+/zTS5xlFzGCUW1mpKvdp/5eePtFa79n99EuGc/vW1hua2nXHMPeFxGLLsTShPzUfoSz1hlO0O72Kdtjyh1i0Z1CEIxTraCW29VMtofYIxl6UrQFxyLHn03IPZuUf9b56jc0/IkbiToWIfdgYgwx5eq7v47cmvweJxzuIUuQIRA4Dy2srQ3ushIIoCmzBi8f8K7Dx5jS8tpf8DBwSlKKhIt+cXP3GRp+QrH0yN0e4lmZ5PGGLSwtFa6TLzlG2+9QVEWtI5OsDbmdGiImiM6jYqJTZmW55MUdBEAfoqQ0GcrecjDpc+w6mdsR5ZZdpcBOwyHksiUDOMTHo5H3I+ucpJc/v50Ve/Z/sqb3Prfv4ysnrXNqkTCVLRJteElcuJom93+B7TVI/Ls+fDt1tAqD+nYQwbpFWa6R2QnbE7fBKHIzDEOzaixzfRxf/GzMzdlM2uwWzVwQmGMoXJVIPb40MmXUhJJTf/xCdlakyiLF3EnlAJnfg3q/yUEJq+Y9ieU45LGShOdBO6A8hLhBImOkbGk1WoihGRzfQU3HTAaDnnv/iH7BwPS/oTpZMbek0PK2Yz15gs0trrEccT6RpdJ7nnrvfscDUpaS1NuxEso0eC8HrXz+a4u8P8SHk3Jc+KPyLqXeH55G12e0jeSk9WXyKb3Wcss752UPOEGD58U5Di2ny/ZNo/IZZNT1aGSGdJbNsqPuNF/QO93/wJ5piwAQMAwWuVu83MUZR9XjcCmmLSLQdLNH1CKjG61xzjZ5ih5kUpmABSyxZPGqyAVRiZYNHErZvX59QWRJ/ctvmkyXstK/Pgd9tUGJ3oF7z2S0OBLdYwSArdmKYXBWQcCbGVwxhJnSRACATY32NIQNWMEgqSVEDcTdFqbezhPvzxh7ZKnOCnpRDHtVoPDkzEHHz3gC7/+OoczQXsg2bh0DY9k/8k+r756m9P+EQBGxEzGIybjIUIlNGJBs5milKOYHJMuXWNcaT5OSTgPuAgAPwVoccBz0V/y2ZX7JGs/gx8/oDx5i2Tzn7Fjj0kyjY+WSBsN0uQaV5cr9nYf8NL0LV5qx5T2lEfmiHtyndRNeXXap/l7h5R7BR5wWmGTiGiS44HKWwbVlKn1eNEMq3f0MgCJGbBW3mec3aCMN6hcnT34kJ5XqglCUMkMUxpO7h/Q2uiAD/v0dKw4jWKcm/B6NKEs3+Dfip+nkBlaKRIduIUzU+JjcIVlujdBCEG20kDWr/Hek5uSydEY7z060witUMnTj7wAImFY8ye8nCnG0nJnr0KqgslkQrvdYJq9yHR2inN9Hj7Y5eG9e0wnY0bXtlld7gIZ4yLoFNZWu0wrhxaecjRmMjMs9cYkSwb4wawX/0HjIgD8FOBW9j0+v3VMI+5hDr5GaSKkM8TjbxD5IaqxxenkEZ51Mj0h80PGjx6w+XLGO6WgIGJblnzW7xIdl6Rf/JDyT97HTwtsErH/8y8yW+1y84tfAQ+lrZhWs0/tbA/Tq9h0E6PaGFshAC1VqMc/zsiVgqSd4qxlOqgoRyWt9TayLfnOLOLIZLzWWWdj9ICD5DrOaQrjqawNXgPGonREoyOZjXOUViRxTCQ00+mUsiiIGhEq1osGItQcATyJm3HJH/N8VJCpTaz0NFsJSZIiyFFa0EintJMBA1XRaSiWOikCx8raFo04kICazYxrl9Y4PBnRbCWsrfRoNBrkrkFvZZXJ33aj8I8B5/edXeBvAU/EjHarSZJmVP03EKZCVgPitIEQI3xjm1E5ZTw5oCFO0dUJnfKYtSvrfOvOPkfP/SIqTXhiBrx8+IDtP7iL+fcf4CcFLtY8/tXX+O5/90+4/n989elTvf/U+TqE+rygSVnmwRs/itFCUfoKKWXYGgSBkQckvdCN11mEjjVCBJ7/UZXgXJvnvOB5OaDnn9D3DZ64Hs5JcJ5IaZIkoYoq0IL8dIZsC5y0nB4McHiaqy2kfrbPIQVkouCK2+O6KvCs8t5Jh7ERXL22RW+pxcFeyt079zi6/z5pLNCioJVper0Ozlpi7SkrQ6QlvhzQaMRsRKvISGK9JEkT2t0trIy+r9vQecBFAPgJhRCOJkdcEt/iUjZCmhMqmRJri6qGiOZrGNnkpDQ8kdtMV14kKo/QrqDpDuluZfzp3mX8cU5nJ6UYCma//yHVH74JE4tppOx+4XU++C9/HZs8a2slvUW5CqciPr4g0zpHaQIpJ40TEhVRWoP19fxfyMDasxYzN+9QEqkkUSdidjqjKiqiRsQ0WePd/ICe7rHKlCXpmcgVBj5CeIi0xlrH6aM+SMH0eALboFKNSCRxrBHyk0Gq4Sbc4glbYsZRucqJvUY18SxnAxg/YjQVRFXOjTVJdXSf9e1lbmzGCCl5+XqLvNhC6mCWcnlN04wP+PzzMMhbJDoH1eRk4pk2euzn15iMknNLCroIAD9BkBiWeqckps9S8QHL+jE74q9YlVvY6YRKt9CzI+Kl21SywV2T8EiuMok2Ajs96RAJ2NIW4xy957YZ5p7pkwHLb9xh9asfwMTitOLxr77K+//132O21v3E+9C+ILUDCtnFimd33AURjkNKiZQS6yyVDQEhUppIaow1lHkRavA4Cq8XglhHlDYnn5akrRSdZtyXLR6UY9aqx1yJcpqxQpWnWJEwGGkKb+kxIEstBztrqFTjrK1NPfQzWYrE0bNHXPeHxCxzp7zBxMOqekKzlyMub6CSLgoBrkC4Cu8KtC/odCJKq5kWKbKRolK4surp+j1svo+k5ObqNs6MsXrGRifmu8UBx8PLTKtze/4vAsBPCiQVO+pr7LQOWc/fpqme4IWjkzVQbobzJYmbIuwM0X6ewd6fc6/xSxyLDtT1uveeJddHVU840ZvEzYRGBOm33+S5L/456dEQgOlmj0e/9jr5Smfx/LLbxGmFixSzXhePQvi5jZavx20CicDUz6qsoXQO4xxShpTfWENeFjWfP0LHEVpIYqHQSpNtxRzvn6CFohHH5KZiRkJfLrNV3ecy75IIKJ3kGw8NUa/Jz2zk9LTh7bLPQ7FBhUJphVSqHh16lK+45J7wcmoweYM7kx1GaLYaj1lWh3zoOwzLCmFnSCHAB12BQNOJOkgf0x/1KKuEpd4psTAoIlz+iG2lyYsJ5XQX27zBND+h44boqEmcTBCTDt6fr5Vgc1wEgJ8QrPq3WWs/4oXJH+N1k2Fzk2VlaPZuI2b7DKeH+MG7dLd+hWL4Po/jmxhXYD8mS83cBDO+R6KOuaUPmN0p2Pzi9+jde4LwntHlNT78L36dk9tX8GfS54PPv8C7/80/oIoUBz97i1y2iHUa6ntnwphOiGdYBa624QozfKiqCu8CwUdHGqGCdl8rRaKC5ZaSkiiNSKMgta2swTvPlIx9tcGrcoBxFd6UvN6LSFoWGad4O+OVZMKRKZnEjaemINYjvWHH3Of1ZkRPSQo9Imu+QyUdghn70QZHbFCSgH1WD6GEJpJNpG1RiC6ykeNigZURjpj99Ba92V+xnPWoJnuw1GNkJKnXtGRJJx0wlOs4dxEALvD/ESnH3Iz/JMyWS81udpu2n9LpbiHQ7BcFu2qby/IeMt1if3TIYXoN8kM+vpCmi+Fw5TeYiCa9d77Dpf/hy+jHOcJ7Zus97v2nv8SjX3oFk8XPVPf5cps7/8nPg7f4WBL5Ek1M5WWg4gKZTiiq4pnnzQ06vPO4uXuQUovMwVlLaT3o8FrjHaodI6TidDjCqZA8GxFxRIsPzJSpWmOiY5bb+1zRY+6bJttFn83e82zPHnAneTnc4gR1347d5bXUMhrHfFvvIKMBTT3leTlAyCbHNqZST8d03rmaXixBeiqjkE4SN/YpGDEsLZ24SaxiCr3E4+gqL7APGvLZQ4zcpMDRyh+TiStIeV4LgIsA8BOBRjphLdllK+/zbu8fYZFcHX0Jnb7K4PgNHtDDmzFxsgy+5LFv03cOJT85e16RBY/UBrO7Y279i/+b6HAGHmbrXd7/nb/P47//Ofq7p7j+lM5WF6kVsdKU1kBDszTbpTt7QhGvcqJvUYlw00shKF0Q5pyFrGl5Tjp8FazLsKEkUJEOpYKz2Moh5qM6ITjYPcTkFd0rvfmXqKIlDuMNipnh8f099la2+WgpxgnJ+uRtEjvgeux4gMGJBLxh2zzktXjGeNTgW/5ViuYMRIoSJaZydJhxohqLtWTe+2Ar7jxCeAyS08evgQAAIABJREFUYTFFqylOzDA1JVkaSVdqlJD040vcm5xwFU86+ZAV/xGJTkmEZEntEiXXKKoNOIcegefftOw/WngEjlhMuaa/zrY6JveQVMfcGHyJZrpMNb7HQVVhgbQ6QrauUpmcvlcYL3Efa9D18vu0qVDTQ7pf+y7x4RA8mHbM/j9+nuGv3iCOU9rrbUxeYQrLwTt72Dyk+N5YvIeT7HmOs+cpRRystWtOfllWgYpb3/pSShKlUVJgjaUqS6q8xBTlgtmnpAoz+prq6+r5/vhoTNoLcl0hBHEUo5RmaizHJ0MMDhlFRFEbIWK+nf0yDydjsrhBxx4isaybA16OSsbTJb7pP8usY/AiGAiVTvEguspb0XNM1NNex5xuLKREaoWQHivGlH60OPwAhS04KfqMqjETr9jNXuaeuoRxhpX2Nm0FLQW3/AfspH9JpD/GqDwnuMgAziG0MjSyEUvyITfst7gpv0q8/Brj8QG3Z99ALb1KZUv2pyMGyVWUM/h0kyhbJh+8wzR+kcxNEN4gRRC8eKDULe4Wmu1//WW6/9vbwTFXScY3V9n/xy9TRjG5rRCJYvn6GnGkaT63xbQswBLGdzIltQOGbOE9RFKS6CC/9d5jvWdWFbh64ZZxDmMMpqxCoBCCNEtpphlKSQprgoV2ffjxwXV34/kNrAsThUhHdOIMVzoe7x9hvaWz1SXJEiprqIxBIZH5E4T2fEbNmNgx3hl2/RYPow2K1gQh/cIoFCmxQmB9EBVJSXAREgJV9w/mEOLZFF4IEaYZznBqRsGCXCgG8S1OnOa2KVhK1snHDzCyw8+2d7HuS9wd/AbOpD/Kj9LfiIsM4BxBCEgjWE6H3Gjf5fNL3+Jqd8R+9gVOTcqKyBn3/nP2x20OTwqqk2OSw3swFoiyCXqTQZ7iqlUaU0OsVun6lE7ZoE1GGa1h//gujd+/i8xDPX780hXu/rOfR7iSiWwGVx2CMSZChJm6h+HesM5JJJGd4kUICFmUkOoYLRWR0mHRRn2QnHMUVRHMOpxDaUWj2aDbbJHFCVqeoeV6UEKSxTGNJMUWlpN7R9jChJ9VWvLxjKos0alGRSHg5FWtFpQpX2t8ga+6axgRcbPRRESrPNDLzDIHdR1+dkQp6tAYiEnzfwPxqdyBs4ikQtWlD4DzjtJVjKznvt7me1XGUWUQ8RIKS6+xTE8dEzcOfqCflx8ELjKAc4RYwWo2Yfz4bR7efY/u9Yz3B4r7hwUv31rj2vI2u48Ej/YyppNNjCnBO7Q+ZXNjjcsbm3z30TUe7z3gSBiuXfO09ISTUcHS9XWa8Yid//AOyekUryQnL1zm3d/5dbKrQ07TK/OjAIRbWImwYCNREfnJBLHVRPuSXC8BTxdqutqW3Hm/kO3OvQCcDSWC1hHNLCXRMVrNO+J+kXJHWpPI4ORT2Iq4mxKfhhKmmBV8dNjHOke23kTXfP55sJrDiJjEDYlcxeGs4olrUkXhOfP3BOG9ChdYi0qpxSqxkALU78w5RE1aOjtJEUKghVr8zh+HERG7ahNfPuGWhM20S6QkSl6nmq38//h0/HBwEQDOEYSAVIzx/iNG5ZTjYo1h3scUOdPpCvvNmLjTYvLgiMGkYjKeInAIb9jZ2iCSnkf7fYQVUBiSf/2nrGQZ+ZVN6MXcXJ3QfG2Z0WnJpNXmzX/69/CXFdoZcr20KBW886iwAI/KGkQs6V7qoXxFQs4wuYaoja+d91gfHHsqZ2uLMPC21uITDk0aB/sueUara+vyAARJHBEpRWUtlbM472htdJBKUE2rUPMnkk8ICoDEz1hlQlsUXFEDjG9wx2/RT5bwVAujxDkl11tX7zdQRFIxdQVuXgYgFoErjSNiHTEzxeK2x4clKd6H4OX55EoxKyIeqw2c8XTyfdp2TNLoIk6ebZCeB1wEgHMEZwsyeczGVsZDmzKdjAN7rdOiMha52mV4GnM0zOl0VxFCo3zF4/0j+qMKYwqETtja3qC3f8LtP/s6iffo61c4TaD3G9c4/sIr3H3uNcZZm+GlNXaKtximl5EijObC3N2hdIT1ntJUjPaGNFcbZO6YSHh03MF7QWkNDk8kBJEMt7px4WZeHBhAKUmka/ltfWist8yqsJ9P19/rfXDysT7cyDrSgCdpJaTtFFOZpzU8Tw/emt3nsy2FnR0ztKu8b64x7WQ4afDPJgkwT/tl8Cl0zi96E3PHYFfb90RK8fFiwAOlNc+8ByXkJ/gWVsQYmeA8zKYH2DQ5l2SgiwBwTiCp2OLbXHXf5ahcpigtdx/cZ7mT0Wgt8X/92bf4rRd/m/39Ix4++Cg05MoCiWM8mXFweMTh+BpH/QmP99/n7zzcJauXdm68f5fVb/UQn+mxv9zj4PYylVO0qwMiCSZeJlYRAjDGhA64lLXXnqealQgyUjdhHG8iZYQwBmcthfN4ZQl+RH5xM3LmgEipMDicrZAE9XBlDaYyJCoiixMiqcltRVkZvPCBxecc8zZVOc4RWiKkWJQVUglSUbBiT+gmN/ir8YQnapOhbqLI8caFjKSeSkRKg/JYF8aWHo/xtf23CGm/qzkASikgjDY/VczjQwmkpUJKgf1YoJG+YskNqQSc0MKWAm/PnyT4IgCcAwg8a+J9frH5b8iaKxz567RXEpLTGUvLqzQbKbO8RIqIZrPBS6/e5vTwmOHJMVo5bt/aYXNrnTKXXPeQ/Ls/5fmTpy472lpkf8juGPbXVjEGtJ2wWt5hsvyLpKqJrG//+U1YOYvDMzkck/WaSBUxUls4mSKrElMz9KywlHikkHjhQ4Zel9NSBI8+6qaaEkEM5J2tU3/opBmtKGNQzpjmM4yzKB1EPKJuzVtjGT4Z0Npoo7PAEESCchUvq12uNFsU+RH7osNQJUg1XVCfna3HkiosC42Vxta9g8KaeoxZbw+qayClFAiB9Q6JxPnwXp9ZHiIF0ovgV3gmI6A2QW2bUzYjOHYd9nTG8vjraD5H+XFm1o8ZFwHgHEBgue7/mOXoEUduiVI28H6C8B7vLKV3ixun1W6RpjFLLc1Gd500TbnsHct3HtH7n3+Xlcd76OM+8RkfPy8ED7pdDptdpC0RTtAxB8yyq/ioi6YmwHhXc1X8wsij0WsyPRnjew1Kl6FFGJHFIsIoi0CQ6gg8TG0JzP33ngpxpAgHRQtF5S2lNbVvP1TecVpOGeZTKmtrObBBRWe+X0s6l3o4ZzHl0zq6S58rrQaD/Jh3/XWGuom1BiGjOpA9XQ6ipCKWGl0HKiUlpbU4Z0Ovog5OSku0VFTOoqRE1j0B73zIjM74CkgpgytxZc6UPB7hoeunpBI+ck2GPmKreo8kOaScPeUcnAdcBIBzAEXBDfklivQFnsTPI8uKbiL57EtXKZ1hVGl2rmxjvef0+Jgrm02u3Kr48N1joq+/wYtvfggfPUHkBfGnpKtCQHerRZJ+iD95lw8an6Nr9hh1f3nxGofHfEpXW6ea5lo7NM4gCHZ0HFZ0GYvxjtxUi4bg/IFna2cpgj3XzBRUzoV1W3VaXjpLYUqsD15+pqjqhZ0KoUQ9TfAoLTHTKoz/6ht7SYyI4k12ZwVHahnrLVI/HeOFmz/c+mltFV5ag6nNSWzdzJtnCFJKYqUJqYClMIZYqYWU7+x4cC52ch/P/QlqySUtsOUpA1rYqgLhEOKTr/1x4yIAnANc4S/obr/GninpJ00ubxbc2DEcTvY58E12ZMSrL73AXQ7Zfq7H+v0/pPMHf8nnvlHh3jxEnPkQukgjrEWc6ZZ74CiSfNi6TZxu0svvQ9TBq2xRq7va5OMT8HDvzz/gys9dRzciSmfAhGzE1q+fBw5x5nnP/ghPYaswbmO+cDfc0IWtwnPrdF1FURAKnT1seGbHU0b7Q9Zf3gxMPVOwqiPc9D59fQ0IzMNQNjwL4xwVwSk4t2VY/1XP8cPhF4v9gFKoRYlgvaU4U0Kc3TTka5LSfB/h3ORESkHLG3rS4sspz3GPNS3Y07fJxxt/84fhR4yLAPBjhqJkJ3ofPf2QqvEyaXnIUvkep77gHXGFUWOHVCnaxS7t4pT0TknzX/0h8oMROI+i9uxLI4puiw/+qy9w84tfoXP3ydOHeJB5iSs903iVZlZh0y3O8sDONu4gkHwSqSmsobO9RNSIF0s3i1rf7+slH/O6N40iIhEYchUOO9/Me2ZcJoBGFMaB1jlmpsAai6ssOlKkUUIcaQoXbmp8CBbJUopuRPUhdazqEZuR4aAsmaaduob/JIFHCUGidJ2uG6o6WM4zEHFGMuyB3DwrZrL2aRPxLIQMNOZFBiHq5qS1pOQ0laXXvkQ689wbr/HO+PNUvs15w0UA+DHjsv33XG99D5ms0LUj2vEJLXLesxmDuIOvBjgfY/QSy6M7bP2LP0QdTwAQDQVLKadXttl7+SaPfuU1Og/2aT08fOYZwnuW3t+l9dEhw1s7TBs3iKUOt2596G29RAMpFgddSUUM9K4shwNvHbYMq8CEEOSjnKSV4J0nH8yQqx0qUzLLc6Juiqss5bQkaSdILdE6QtZLQKWAyoVJgKsCZbkVZaw220xshfVh0edkVJt6ppq4GSPwLDHhRXUcSDftz4NLcFUROAYLApPAOIu1DiscxjtKY7DWhrr+48FCivD3cD4MBaQMN3xd+8+xoCzXPMLQYwh9AlNW4B2VFuQiYjzt8xfHv8T94nNUvvn9Ldh/jLgIAD9mfEb9r3TjKbLxGVZn+7g44VG5xARBp3yMFRrlIVGK5eohyQsrmLcKbLuJ+/k1ss+ucXTlFe6tXYHSc+Nf/i7SGFAC1hPYy+uU2SGtRUuJQi5otKU1CATGGiweRZhVu/lM3loGj/t0tpdw1jF6PCTKIpqrrfC6+pauZiXj0RQdKazwodddr9x1ziG8QApBpoOAaFYW5GWJsxYpJVma0W400EpRlFPKUUHpK6qiREiBrj+qmZ9yUx7RFpb35Q5D0UBgw2IQwrGMa+ehWVVQ2IKZC8oE5qXGx4oUUdOC55JlqcIi0nnzTwJCqjD1MBZrTL2MRC6ITUJIVBSC6kS0GNgZ2glGrFDROJeHHy4CwI8Viopuu4kv9/CzPUTzGsNixK7a5CBexZsx0lscilIKbmc9kv82pvpajN/a4fTlZaKWREZt9KRg60tv0nv3IwDsUgPxmy8i/5dvn0ntxeIDW1rDtDbunKfwUslnLP5KGwLAwoFXSbJORrqUIiIVNvrWXe+Va6vhCVLiJfUzJXEzppyUuNiTRHE9f4eiKLD1jZxEMWkUY71nUOUU1vD4zhOylQa6oesZvUdRsiX6rIkpe3KZoV4hd47K2UWKPifmKCFQ9dec+2Rzc475TkIhBH6xokw8HQ3CYqRoja0bek97Ac45pApbiZRW4B0tM6XjZxyTkGsLhQPOHwkILgLAjxWrvINmhEpXkI1LTLzioYs5Ta5inKXST/95tNKUJsO3n1D9wy0ajRWi8T7OraK8pfvwgGu//zX0LNSwxbUO6oVlZKdBdDpBVgZpDFXt3mOswcvQOPPew1zGWxN6IIzjvPO0t7roWJMkMa1Wk9JUYUYuw0ouJSSRDKy50loc4cYXAoSG2cEEkxsazRRrHXlVhsAhBVpo0jQlUgrnHaenIyphUZlG1Zt78OG9JCpnJ86ZiZQnapVSptiqeOY+V/Ipf99Y+9c78orANZin+Ivf39dlACEoCCnq299gbfAvtHWp4JwkWqwi96Q+55IYkLgZ+3ITm40ReYk352v+P8f5zEv+I0BKn1fiPyaLPLJ1HRevcDp+xEh2cPKTHxYhY2amQnZfQRSH6NkuTT8Fl9M2R1z78jdpPjkJN6+A4revcnhlnQe/8TkAWo+OaD4+xltLaSscvk5hBVoq4ijw3mOlkULWe/UCq0/HmixNyKIkHCxj8DY45qQqJlERkYpAyEANVppmnNJMUhppxurGMs1uE0egFlfOIiONjiLiJCaOQ3MvnxQc3jtk2h/TWGkg1Nlb3bEkcrRwfOQyTnxMbspPpPP4eiFImQd3Ys40/D7ezPtYcBB1QGDe2JMhIISg4OqvB/Wfs3ahLJyrClM35Zo74GqsOJUd+rINUvPsUPR84SID+DEgZspt8XtcT75HJB00b3Jyepcn2UvEZkDTe2Zq+ZnvkUJgvcc3rzAcPCSvciKVoqsTlr52D/GNXVRegobkn7zK0qtb3FeXcNcMCEE0nhGNZwgPWmu0VMHEs/6QS8LhqJxd6AHmB6GVNUh0RGEqyrLCVAatNbFUREotGnuFKXHeoWq2m6Nm4mUKrTWjvSFlM0a3EmwVnpGmGUoonPOUVUXUihaUX6RAS0lXjrninrAcaU5I2VdrGDTSu8Uhnk8lyno0FzT/4feap+zO2qeHsU7fgQW5Z8EGrJuAwntq59MwSdEKSV2S1FuHE2VpYVifvs+KrGjHTUZFyUduk7G7RD6+gTuHFOA5LgLAjxiKgleif8tnon9Hs3sFZrt4b9mLrjBsvICrBojqFO0rijO00VkxoGmHFKff453sM3gETTukKhpcf+PLrB6H1F9uKqLfzDkY3WWv+1nWPo0YhCBR0WIsN0cg87gFzVcIQRYnNOOUUT5lPJkghERHmm7aZLXRpnCO0hlKU5JPA19/ZCzz6fj8UAkpSZcy8uEMr0Vg+2lNqoMG4fjJMZPZjHQlC3W5VmEJqC/5rNslixRvqh2muouUCYmzaKkxzgYugbULtt6CiTDXIyhRNwDPSJidw5SGKDnDN3Ch8Ufd1ZdS0ohSZlWBOTPu87CwL9ucvc/nljcZlwWPC3jXXWHEOpPZNrPpDs5keH9+E+2LAPAjgvcO4Ssu6W/wvP4T2kubDKI1GqffJZExwp5Qeo9TTRAqjJrONK+UHdNJW+wPHnK6+kskZoB0OW5Pou/Nnhp8/M7P0uhlvCFvU6qI8fVN9n7uRaQxnN7axslwy1tngzimhvNu4dxrK7OwxEp0RF6WjKdTrLEI4ZAqIveWk2KGEpLclozGk7CKS8RhA1CNufkGUqCziNjZBdW322yRRDGT0wlHu8foTkxC2AwkahvxHXOP7YbmLdNiHK3hgFRFtdORINKhOz91YcmIn//N6ltf1duI5go/BFB38z1hDPqUQnC23nc46SiEfIYgNV9EKoQgYcZNNaGjFbte8X7jZ5hOrzAbXcFWLbw7/8fr/L/DnxLY/JR2+R1eWf8Sa9kAkh2OXQzWk+omcf4mvlmC0GFk5EvOtuTX83ukqy/wgb+MB2I7wfqIza+9S+/thwAMXt5i+XaLR6rHSXIVkAxu7fD1//6fP/NegnGHRSuNr2/wefZbFCVlUaKjiCxNUVJxPDkNQUEIVKRQUYTFMTbBULQsSqqyBGqtfX3oI6VJoohIKoyzjMYzhh+d0r22TJwlWOfIi4LRcMJsktPuxuFgek/T9GmLCa9GQ4ascxhvY7yrS5dA8PGE0uhsWT/3IkTWnXz8wkNgbhU+/13qlCcE57lwyXscTwNv5YJeAOaTgPC9Oo6IhKchY4QUrGVdsuqUIllCjN1PxOGHiwDwI0O7YXht6Q493qMQa4xLSylKKkLzbHn6LmvRCnm0QuklBQnoJUCgfMmt8j1E/CIn6QZpNaBTPMK/nbD91TcR3mOzmOIfrBKv3+BOqf7aubN3lqIKDb7KGGKtiXXEJJ9RVVV4pgrimbws6hFgWLwZJ/FCKOScx5QVpqjCoYg0SmtkpIikphklJEqTyAiHoxwUzPozlq4JTF7y+N09mhttomZE78YyoWQIS0M/k4zYzlK8vMJ7oyHTZhNrHQ2dEAlFxVNvAV9r+j21jLc2GH3W4DNkDLYuFaRWT5mDCwlD6GXM1Yay7u6H4OAXwQkCAaiQTZ6YNhsyoSsqNl2fvn3+XNf8H8dFAPgRQImSnegtrmVv8tHoMv44I9rZYdq8xNbga+AqyqjHJL2CrPqUTpBHveC54z29/CNWlp6nGn1IXG2RVUeoiSV974hsP8h++y9fIn3tMgWGY/n9rad8nfJW1mCspREnpFFMaQxFWeJq7z6tgzVXkRfEcUQzyeg1Wjjn2BudIrREAspLdJKgdfDps7Wq0OGonKn9+QVYh5Oexnor6O6BpWsrIEParpMIZ8K23SjSpLaPzyVvVTGPm69T1OO3VIWMwhqHFcF8pLTBjdhZt5Ai+/ogy48ZfHrnsLX5qIqeCn3mEEKAkpydGGitiITCKEshnzoeeyHoW0NlDVGySm9ySpUv4+yzbsznGRcB4IcOT0vscyX5Dnlzk2n3BdTRAUuj9xnTIF35HNXskGHjFpkdc6qXOfUR2s1oVEdI77hq94i6P8OTva+yUR0yUluUjztc/s73UEWFaSQ8+rXX2ekleO+wf9066vqAaKWJtCaqu/uzssTYoMXXscbXvQIZabpxRi9tUVpDbiscjlhqUh2j4jA6mxtsTEyJre3AKgwNnSCB4/GIQhiWrvRCADAWFavaPNTjSostDDpOSUSO9BUi2eRErQc2ZG2+EdyE/GKkmFcl1lqUrteB1be2wy0EPnOcJQRJLZ+O+j5GCz7bw4DQNNX1MhMn/DMx40StMi1OaTavMy0kxWQb787nzP/TcBEAfsjQFKyJDyBOedJ+Datb7CQlywPP3Uf38a//AsOTr3Cw9OsYlVFUObboE/kxkcvZyD/kau8yfnKfu34J7ftUg4zrv/d1lt7fBeDo9Zv0X7rKqrhPlO7QGA0p1LO6c0Gg4joZamJZj8pmpqDIi2C35UEnmiiK6nQ4+ANopTDOcViMMNYEAY0Au3DECdbjxlm0kFQepscTIivZur6EEhIhCTd8XWvrRNYTdkBJfByYiEpLuv6UdmMD6Q3GlggNWZTUy0eCH0BpDbOyoJrP+mWwHZtr+XFi4QnwjEORrEuV+kD78Md5+nf6FEGR8z7YgOE/njAw1msMR18had3mpLiErRo/iI/NjwwXAeCHCIFjhQ+4EX2dPfezjGfXaDQmVAjipMlymqPsgGk5wqomXiiENDgRM4lWkcBq1iGLGzzs3+FJ+nk67gmXvvlt1v/qfYR1FL0W+3/nRVorFStpk0F+SinXPvFetJQoIRd7/EpbIWXdFDOhpo/jiCxOiaMIIcIhK60hksGbL5Wa3EOFqef+FVZaIhVS5MIalBdBNFRZiuGMyXQWAk1RLoRG84NJLcuVtSQX5ykO+7QaOUfec1oJbKdJUouI5nA+7Btw1EYeddMx0RF2nuLXz1nIdvEoraFeVqKFwtUyZVNPBKSSdVOx9gpkTgWuvRI+hVRoa+tz5zwje/7kvn8TLgLADxENDngt+QM6jQMeNBrMipSiiNmKPTJd42bjO8SDko8OIW5+RNG8Gm5LIVC25JJ5wkb3MsPpE96OXqTQbWZlwdpX7iKrcGgnzy2T3PDczGYYp3jLtZnqZ1d6q9ra2+PB+MUmn3mdm6QJiY6JdbDl9ngiqYKDj7OMqhwIh25u5gFhdFjZcDhKYbHecfJ4gIwV7fUOVaficDRguD+ENPAAJCJoBRYH+qmLQKZy1vUpm2LK3WqZd++XXPqZNmquX8gr+nt9XARxLw1UXiWfqftLE3YQiJri7BdeBU8DSKzCRuLgYuxx9dhR6tD4lFJSYSiNCUKmmjJ9Ft6HfoKyBc1sGVsMmbmbP8iPz48EFwHgh4gb8itcTt/ibuNz6LZiyfSRp0O6dsJkVhBHHYrBBzziN9Hv32HzRTDJNomMaBf3uZolSDvhjkk4TTbAQ/PeMY0PTgE4fuUaj/+zV9neSZCu4G2/yqFa/8QEQBG29ha1sGcu/JEy0IC1jsOBrxV1hTUkUocMwQumtUZeCBEOiJd4HLa+Jb0PVtkAVWVY6rWIIh06/9MS1dKoWFPT5Xkm564hcOzEI17ZsJwYxUSt4ltTysIwPp5ghEMkkmE5RUURs5MSSk9zubnYMZiXwWXYe1/bqYX3JuWz7r6BJRgC2FzdhwgNw8pbsJaqrCirMlCl03j+jYv1AfO9B2vVLkur15hOJ1Tm/FJ+vx8uAsAPCQLH7eiPGEZtnHdEwtCWD7jc2aPjZnzn8CYvL3n6skl34zb5yRFpuVfbaUmucMJK1OLxcJ+PohexQiGN49X/8fdQeUXVyjj67C1OXrzJsn2Ph2aH/XgNK55Vnfm6fjXGYOsG1tw5Z25okVcFlZA04wxEmH17PJkKDby535ASkoaO60acY1YFi6+zTjmdjQ7tZoPcBsqwx5N0s+Dma0IAklKGPsK8KedBeUNXFLQj2LMCH8X0rjY4HY/oPzyhsdEibTRINhrMNwWdPj4GB+2NDuCDeUeNsw0/LxxCPf27OO/AK4wNHoPeeUxe4UpH3IjD3ywvQAqiJAncoVoROc8WEBJlZ1yLDXHU5oOTPlN3vvz+/ja4CAA/BChZ8gvRvyRrCd7s/l0Qksv5W2zHCidzdmmzGX2NZvtFvlf8ClEWY5Zv8dbuJscP3ubmZsTqtS2eTB7xhr7OWPUAwbXf+0saeydAWNfdf+ESG5mhEDc4kJuY7+M4a50NVNba1FLMDTCFpKprYCscUhSoWpWX2yrs9XNuIRnTdRoshaAyjsHjU0QsibKYclYSpRGtVgMtFa7IawNPjxAKZ9xijl5REZ3pvmtX8Jw4YkeMeNttcdTcxFnNpBjiYk/nZi/sCBBPefumsuhWDBkMDk6Jk5i08+l797wL5B6pgshpVpVUxjCdzTDGMOtPqSYVaTvj9GGf7qUlkk626Ds4G967qQlEWoWFplfcPjeWLlFaxYPhJjndT33+ecZFAPghYCm+z3ONe5zIBpNkm66oWPUzmD3koe/hKLnRUkR2QNzImRETRY6Vyx021p7jcvEu9+8d0C+GuEs9pLbIScnOn30veP0JwfjyJcrnt9gyuxwnq1gvPy2zXmCuawn/AamOSHXEuHbeQQTxTiwkSZQCgqkpsc4uUujFSiznON0/Zbg/pHOpi9CCpB3IL0pIrLPHh3jEAAAgAElEQVQUeR749FqBlAgc0sun+nme3tKxquiKCnSLfZ8ycJrBeExZlURJHOb1Z5qAwSFIka01AjuvcEz7U9J2+gxRZ879n282jupUviwKppUJQiUpaa22YTlMQJprLZQ64y04d0wyQbwko1DOaBw3/ZQ022L3wVvc9/+Uv/Yf4JziIgD8gCGEYyf5Hqk74aD7j4ikJhaWsigY52PW3BHdxgq6fZP+6COsBiRobYjllDV7h8vlG3yQLHNv8nNsnOzRcke0/sMBvfceBqnv1XXEb73OLzSOcbrFiYmx6vt/+LxXTA6gynO6lyImR0PGkWbz8jqzaR5u7yxCZXF9KwsKWy32/C0ML+tNw9YYdDNi+eYKMn6aWkspmZkSU1Rhk5EKKkAlJSiJqzn5Us91/o6Mgkv+hGV3ygPbpE/ErJpRVEUoU/Szhx+gGpfMTmeohgyEpIZCdxLG0wmT3RE6jejudLG5oZpUJJ0kLDON9CILcLXYyRtPMSnwztNYbhCloQToPzzGVo7VW2u4KrAHn/5BIXMDWo11qtk+3+vfpvwJvP3hIgD8wBHpnB3epm/bzLJbREKQTu8Rj75NI+6SdW7h7IzDwX12s1eodLDWEt7RLB+zXT1ENS4RZStsbr/M8PAlLv3FF3n5f/o3COfxsYLXlrjykgXt+WBccJys48SnO8546yhGMZ4dWmtTouSEKInCaK4qyMczRntDGqstdKSxymIIar5ERWih6u66Ae2ZTQv6e31IJFH7DOOtbqKZqsLMLbNUkPWGRpwMN3/NGQBPkxnP+V0uU3Lom3zoeoyspDTTMImIo081+rRVIA3JJEIov5AtE0milSQYiNQjQmTYUlzNKoSDrNtcBDNbWCaHY3SigylprNBJhJCCxnKT/HSGqyyz/gwVa2Ss8Mai85xlf0jS2WLv+ICH5a/9wD9HPypcBIAfMLr+Lj37hHflP2QyW6ObHtMrn9CKG4jmNoNyRr8qGasNRhbKvE+qEzSWtXKXVtbjtLJM9RLNdIaaWrp/fhc5DWKbMsv48KVXWK9gLUpZbbfoWoORYcvtx6kqprSMD4bopEXcNAjpaK6FoGO8I+s1SVph714+nKGXgh9/L26ipeJkOCIXhsFuH5YNxAJbb9xV1uFtWOOl43BwmklKlDTITcW0LHDGwtxxRwU/Qgh7iJel4ZrLGcWbPPFLuLiDrgqcoQ4on65n0JkmXc0IHqD1KLCe+6fdMB5USqGbijiLsZVhNptRDkviVoorHcWowOQVnZ0uURYveiOiFhFFWUTcjKnyamEUorVmtt+nU51wY9MxHeTcP1ZMRfdTOQI/CbgIAD8AKFWhoxKlKl6Qfw6xxquU1ug+a1HFapISJ7cpqgljaznU21TlhISK5P9h782eLb3O+7xnDd+0x7PPfE5Pp+cGiJEEKU5iNMVyJNmRVHLFLseu8kUqlUoqvk3+iNymchGXUrErVXYc2WXHJdtUUZZEATJJEMTQaHSj0fOZpz1/w5py8e1zAHCQRTG2BLDfy+6Nvb/d2Otda73v731+qiIfPGaOPgtxha0cQwNlZx6EYOW9tzjz4C7Se3ysOfjyc4zW2iw5ycFggkhaNBstjGpRekNhS1z4cHpNSEGUxkjtELIemT113EGgY0XQgdIXTEdTbNtCkBhVu/32+wN0O8YUFUcHfdorbbL5Rk3BNe4U6tmMEtIoIkZhrWVqi5qSKwRK1XWG4ByKQCwEHe1ZlxV7VrMjFinjeVJfawrcD9PcBbCVxU5N7R0YyVk34/ukvLPFX8/r191/GSlaK23KYYEpK8pRQTWuULEiaaZI/WGi8c7jXa2K9MYhtaK9Wh/vnXFEjRhtI9KsyePNXW4PruAbAvGjZ6/+UsfTBPAThtYlne4BjWafWIxZzTdJpeQz2fvE5TGZbZBkiwSVYcox08rQzx/Q7r3AtbNfBhv43qOvczR8QtJeJDUHDJvX8SJCD8bMf/01dH8EwP7PPMvR3/05Xoxuk6se721LnB8xd9XTTBJSUmKh6+Khq9VvrjQE30QlLaDuIJwO6BDIdHx63I+TGC8C/e0BRRiRLTcRab2YWmudGuE94wd662rBjRB0syYrjS5aSrYHRxyPR1j/Ef6+lPWMgnGshidcTAUdJG2tuamuMI6XarWdq2oa0Q/ZTk1hmOwO6zmGhkZKPYN5/vCVVyfBgJa6BoQqhV7U2MqQdFIavSYqqlFoUopT1Jkpq1NPQUJAIGftSoHUksZSF21zBmLKYafNRLyAMJ+c4Z/vj6cJ4CcIIQJRXNJsHdNNNlkrbtEt7+Bal/F4WjKHyRbWjejrFR5ODS69yqWliyx0z7HYWue3f/v/4D//6z9LvnCNg8E9hkWgnZyFAO3v3qJx+wHCWFyWsP0bP0ejV9Ai5aFYZLraoxpVmN2c8sldlnowH5c8eTDGVI61eY8uoLAX0HFAiA/v9icgD+tdzfTTAiFTSluhU00xLpHGoGIFoXbilb4+HrsZOSeE2sK7kaREUnKYjzmejE5NRlWk6yIetWouiWIuhzEX04ypNWzZLqO47p1X1jIuJ1S+xo3BDFJCfZIxk4pqUpEtNxCRnH3+D1n8YmZR5mqxj5InzIBZl+REOqzqWoQUNR2JAKPS1ontZJSY2i1ZWjlzTJ7NDnjDOJ7jsHUOJqt8Yrd/niaAnyhCEDgXIauSC/I+5/w2h63n2W/cYKX4gBDP4fJNaF1l03Y5jAzXFp7nwtKzSKkYDoa88cYb/Nd/52+jFy4RJz22Dm9xsbhHOUno/NFrxLuHAFTXFjDP3qBbfoOk0eCs3UE1A7vt80wOxlSjgsGkzcjGqLljlCgpdEZoQDtWyOQYIR2x0iRKI4TEeEt5qvWvjTqMdySdBJ3pUyjnKV9P1UUyQqiZfgF0HFEFz+5kwMGwj5m5/kolZxZfsmbxSUVbS+ZEl8pNuZ+9wIEHqxr4GchzWtaY8kjVk4aVN0yGOSiBShWNpUbNCzxBhqmPFz5P6wEfme8/0fZ/ONqrT7t1Yfadla8VkSdJLTDj/wlRTzY6P0OMC3AVTTdBsMZ0cBVn/vK5/fw48TQB/IQhhWNOHLPMmKTaJW+cI7N9FtOMyeB9Wt1nKIKksBWVSGY47XoO/c0332Q6nSKQMzy3oxunbDQzylffwn7vXYSpTT6y/+6rXPFvMEjPsRkMHTHifNijIsKvnCea1wQ0uTfEVEiZziTBASUCUNW9fKnqiTxmUlhfKwWlFKc+AIHwsXsx1JbZSilUpGf3ZI9SNTZsYgrKaY4xH9poq0ifuu3U4hlNV3sS3aEa7TPsLGNsDpzMFNiZJ1/t6FPYisoa+g+OiDsJjeUmKovq76NV/W848ws4keWqSNe7+keKh4Fw6oVQP9xHvtSMi1BZQyojrLM131/Vo8V1ouHDeQJTsG42udrS7NkEW3T+UvP+/izxNAH8BCGlp5EOWEoPiaZPMOWQ+fKbtOZuYEZHGCSqdYnx8X1M64tUdsR3H79GojPW5y5xcHDAwcEBt27d4tylJW6+/zs8q4+Qm8foNx7j9wsAqr9ylmqhYDGZZ9lsMfApI5Eyb7ZZkG1GOiC1B0qCrTD2RLz7cUOMAOS2qot/SuNnQpnCluDBWDvbAcPHCmvOzpBhJwubGqahZkzBIi+ws8XfCGMiDF7O42VjpkBSNSrcHxLLiGNXUc0YflAvsBPjUKkkQYDFE0URvaU5iqqs5/0jXZ8mAiQ6BgSTaoKdnTqYPWOYtflOBqBqMIk8HSo6GQAqypLKVgglsbo2LYmSZCYiCqfFRO89iZtylU2uNXKa6SqPdnKc+WQvfniaAH6i0LpkNbnDmn2fSFhG0TKqeYFKtjn2E1IJBIGtDvEyoZHFHE+PyE2O0prf/M3f4OKli7zwwgv0J9uoAJ3OK+R/+B38t7fAecq5Fm987Zc4bF+jW/W50LpC4ksWd/4pUbbMgvIc2CMGeonAh3LdHxU+BHJnSKln7EtTUZoKZy3G1Lp4OWP/1Y43Amfqe3EmSublPn25QCuMWKkeEazBOEHkxiQqYq3Zxo4/QIhnCNkVfLmPsTlxvEwvlqQ64jjETExJpCSltUzKKaUt6ytGFJ0u1qW4x4M05/qFqzwZ7xB8QAdFO2pw7+AJB+MjrHOsdhbpZC2kkLRVi+89fpfSVay0FxgVE0Zl7aX47NpVus02w/EQf9IyFeCtpXSBRpKiZuiwuaSBCZ6xKRDOsMqQK3pMZodMh5LH05cw4ZOD/vpR8TQB/DlDiECmB5yJd5jzA0S5hxVzRMU2ZuErmJART98Bn5PIiNgc4GUbJQSD/JD+5ID+ZJ/VC3MM80MOB49ougH6vVcJ/+YtOKiPx4fPbTDYWMdKyRHzRKJHQ4ypkhs0vGK+GtNOHSM87mPn2x8eUgjimZuPDR7r65HXurpfi2rqwtuMzjuDZsQYXtH32UgzHk73KJuXOZ9cIXI5IniUhArNcX7Mzc7Pctkfc9EfImRJFFlGZhsxGfFkqLkfXUIKKG1tT2a8QyhJHGkSlaBCfY8vxyWb+9tcmz9P7OtR5U7W4snRNpWpuLZ4kcf9bSprONteBS1o6IyqqoilRljBNM+R1PJkXznilsZYcypUOuX8aUHQkgA0dExTJxxOhrV6UuacS6Zk8RKH02XuHS2wW27gf8TsxScpniaAP0coZYiiisXsiGU9RFrF1Als0gCTo82Icu4/wwrLqq/QKqI5/YBMJsg44tHhu2wffYA0OdKPiOKMOFRclQreU4Q3j2s4xlyLB7/2Jcr5k0KTQCIRwWPiHn2ryeyYFIsMDivU6VjujwrnPbkvMcJiXT3zDrVi8NQLb1bkA9AKunLKihyx0UjwIXCh2cKLQw6mnpFsY4lRUmKQ3OMCpYy4awJ7E0PHFVzUJY/o0pgGbj+ekK8ZGsU+UxcThZLagyQi0TG9pMP23h5740P2xke8t3ePKImIVUQrbdLsZfSLMUfTIQeTPvvjIxabPb718C1+9cWfx1pHL+uy2OwRzboJWZQwNQVKzu71SqK0nk311QVCrTVeBIw1jKylPx5ijCEWgbPpiGUq7gzmeLv/PAflDSyfLPLPj4qnCeDHDCEC3d4O3VafK9Euc9U+frpFv3EVm67h08tIk9MqtzG+AtnE6Dbj5AZeRLSKJ8zLilSmNGmipzskc3NETmIeRvivv4mwHq8VW197ntGF5VMraykkGkda7uB0kyN9jTS/h/IOlMA4S/59/vYfi5nHngtgcYRQW1pLpX7AQ0+JQMaEnqi4ofdpa8GRXGTXQjtYGsIxSc5wHJ/hqMxn3oCBvBoSAuyzyPa4okXCJBsjygHrWcJnr0pCtM3R8WNujs9wqTtia1LwfnGGueUupapoqyZnzqxw5+ABj463WZ9b5kx3lanNaWVNNnrr9LIOPnjmsw7ttMXRpI9WGrxgvjHHeneZ/nTIQnOOpdYCpS0ZVzmcgEI/0hkQJ5Lh4LG29kXwziOCZzEu2EglfbPBO/3PsFtdJ/wlNfr888TTBPBjRpxM6M7t0YqGdMoHaDuk9J5pvEJbCkSygk06dPqvIswmXjzLxAWsa5Hc3SF7uMlS+YgEhcuukU7eQy80cXvfxj9cQmzuAeC1wrQbeP3hjy1WmtgcI33BsPUc1nQZTBdpuRFOOwpXW3P9qPC+nn8/Ga09KYnX934QOCSeTBqWdcGaLllUOZXs8kQ0GYg2vn2GYzMktiOSeJmxrRgXOcXRhGQ+wxmHkBJbGMb7E/x8i7vMk04fcS7JOdvrMin67MqYDbfL5SRFuJL7QVB4w97wiHJU0GhmDIsxv3zjqxxOj1npLJLbAp0LRsWQvdHhTGwkuH/4mFhHHAwOmGv08CEwrQq2h/scTI7xITDf6M5kADXTPwSPLU0NFFXqNAlaU2sBFJ5lOeK5xBD5ZW4fzLFfbnyqFj88TQA/ZgTSdIwQoHxJq7wHoSTXXQiG1BdM7ACnW8yHMY1sjkm+z1FykeTeLmf+t39C+nALHU5MK9+hCiWVfAR2ijD3oagr/6oyrL56k93PX+eo06gHW1xJs/qAMlnFy4Q4qih0RmNSG4O4/8Cx1PuTUVl52vOuW2eCFMMyhzTcgKYWzDeXSEXMILTYjM5QiIQgIxKhmIQYGy3jgqZyOflgyuhoTK8TU00r4maCnNmHJ+0MgmfSXOOuOCL2Em8N2+1z9NIBWh/SW1ijVyoKFaOMxAXDwfgYJRXL7UUQMC4mJMKxGllCBFmny0p3DS0VN/ceErxlReY4n1G5inE1ZVCMGJVjngx28METqwghZ8KissLbWd9fBk7EAyIEFnXJcgJn7ZBUvMCtwx7vT699ao79H42nCeDHjDzvsL81Ie7tENwU54aM5QpZlIGfcOhK2vm/J2kkOBOx6ZqMmxdoD26SPtg6lfXWP7fi+0SvH97fhQ907u/Q239AtGGJhSeIQKVijO4BdRuyEhryA0SsCFH2sXc7YeOdvqf4kJNvq7pkKLUk8zkbYYuFqGSa9VBRm+PsHFMz4cgptOrUu2cIjEYT+sUYKQW+cDg8Qkvaa51appvoGh2WRESt5of4rDhiNyQYm9OONyijFXZ84CpHCG8J1mFzQ7cxRxXlJFHMM2uXOR7tc7m7SGlLBqN9VpsZMhW8N6goqwleQHAFF9pdXpprcG90RCdpsNxeIBDYCGew3vOkv8uNlYuUtsIU5ak3AJx4JczcjkXJy9mUrrC8N/oCu6MvMC4VBZ882s+fJZ4mgB8rBFXZID/M6dk9RHZAriLyuMd8PAcm0DbH5MMUs9RlNH6Xw/lfwcuY/Po5+r/1ZRa/+zo6ahDKfUSyws27fS5fPI8uB3Dz0amN1Ul0qx2EfondJ4aF86s8jkpaqnFaf5bCI7Af0/efRAiBxE3J/JiJ6hBkjIj0rBbgEAIW5JDrYpfFRLElzzDMNnBBMK4sY6NxBJIqp5c0MIXlvTfuQiZJWjGTvQmd1S6Nxeap+UbN/hMkUUIW1xp55z0uBIyXHHiFiRdRQjEWimmYSZAPhkz39ti40OP68jwPnGUcplxJB7ykRwhVUaUtmtqRRQ1c2sOoBkko+cVshdVGhyi/z6pucKOXcigCzUZGAOYaHTYWzxBCYHO0c0pBPv2/KuRspiDQDSPW0pj7OzF38q9ifPM/zk/pL0k8TQB/jji3nvOMeJfdI8Fu52Wi5Rvo6hGrYcrj21O+/uomf+9vfI6k/RLLLlCJI+gEGn91keSXfo4km6PKc0S2yj/+X/6Av//3/0e6D74D/9P/CjMIx0l0Xx1SvbLEN37v33L5es4rv/xFYhkRy4gSi0v7SOVx/sPFL4OD4JHecYEdrqoxj+0hd+U6U9nGFBXKG86HB7zc0CTC8zh02I/XMV7O1HW1C48nYPCMqoJpkdNYbyF0XUlPOxn6BPb5kVBSkUbxqfDGULcTExVRhIBDgYfSa3bKiAvK87X2I+L5BeZaJZncplmOeMe2OfYeIw6Yby5T5XeBBYZln+2wQK4NIngW/JjW0S0qN6KbzdM0Cff9EhW15Hl/cog3te25seZjz1p3ABTNKMGagtXYEZVj7uR/7VO/+OFpAvixo81jPs8/54zc5FZyjifVWdbUPEdqwlzQvPbdN7j27A2i5cscPDniX//+n/Cbv/wiZ9P3EdGUB/YZHj/yGBrgSu4Nh7z6zh1+/h/8P6TG/sDn+e9t8q9++5/z+OCQt7/7Nh/c+QAhBK1Wi5e+8lnOX4opQ6Dy9eCMCoaL5ftkQjD1cI09FCtcktAKj3kw1Qys5loy5nojpm89N+V5Jo0LmFC75QpZK+0yFRELzdgW3L3zCFoSnc3YfFKhZ8o8N3MUgnoAN42TU0GSCx7nHQKBJ+CDZ2zyGkRaBu487mLac3zumV/AVVvsFxM2Q8bG0kuczbe4O9rl0Gta1YCQLHJQFhzaiFFwWCqEEOyKDiZ7hblI8ry9z+WsixrtsW8VuVjCqwZCBUQ4mfALCDwTUzLwgU7WYj5tMbI5Z1XFoIg5DNf+U/6s/sLiaQL4M4TCkDBkXtzjZ9L/i7N6m7x5icnC15j37ZoN7xRv3rGsnLnE9Rc+S2V7xEnJcDTl//yn3+S/+fUL9JIO/+zfvM3btze5fHGdKEroD4fs/c4/g0ebAIReC7GxjHhyQNgfkuqIF5+5xt23brJ+dp3Pf/HzSClJmymNlTZH5oCNJHDB3ONx0mBj+hYb7VWoDgmdCxRinXf6JdrB1WzIF+bblCgSr7kz6bPdeBYfL82MMw0ueCpn0FJTigodJPfef8xoOKHXmUciThn6iHA6eSelP4VmZFGN1fLBY4LDeEfpDM67U6sNXU1pTce8dKPN13eO+Mf//iZexBSuToKJeMwraxv8zUuvYERCoTI2J1O2vGJ+cZkXZ65G++URiYjYOTqgiBJ+99EBq1nOf3FmieudhNeODL/38E2O8yHOW7x3ZDpmIW3w5TPnWGsoyqQ+6TSZ0NOBO9Nz+E+4xv/PGk8TwJ8SQniSaMqKeJMvyn/EfKNCJXOI9pcZDbeJshJ7OEHkBxznlle/9ZiJkXyw9XX0TGgyt7RIO5U8GnTp3ngOJf8lX/7Sz/DrX1um2V1lcO8Bv2kEKWCBg4014t/6Gkv/76u4wxHpcIT6g9cY2JLxdMrNt25CgBuffZas1eOoSimjS2yEHT6v+3h3yHfGLXYbnyWyaS3QadQW4A9ZRJgTPfw8JBfoRG0IjjKvGAzHM5RWDdUcbQ8ASHop3W7dRms1GljvKKsKFWnSRjbDfVsEkEbxhwxBJMJ7BAIlJF54fPAIAi/md7j/ZA577hJBw+cvbaCk5IP9hyip6GZtHo+PeI/zvP74JmvtFabGIoTDj45PHXkWOnO8v/sAgeDKygYr3UX60xG/u/+IzyaXORJHXF6+wiAfszPa52g64IXzL5LpiNL3+UKcsz19k1thlUv0sTJhR83XBNVPKOXnx4mnCeBPiUSOONt+m2fEvybxU4RKEL2XKMyIuTghHv0hycBT+HNcunyB1vx5jsqMoNPaploIQvBoX3FpWSFCibeGvf0j7hx8hvbhgP/q0Q6tB/XuvykFv681v3rjCur+Lu7bd8A6zi/MsyY8zaUlPvOFF3jjm69zsLPHKucIwChe5N3Q4XE5YMG3aE8f8KTxAqU1p9Le2tlG1vNBAk5Y3y44JLXbrikrirwGZCbdlCBmTH9Vi2biKKaTNemPRzjnEaomBEut6jFdPqQNhRAw7sOdXyDQUhO8RfqKRFd84aUVHpUTPIHDyTGjYoIQgqkpWG4vIoQgd5ary5d50t9hs79DL+sQSYUNnuXOAs04oxU3eWblEo+ONhkUYzYWznIwOub+8Q5aappJk2lVcLa7wnpnmabOEFJybBM2HaxJi6/6tJJ5huWAKs6QusSZT//y+PR/wz9nCBFIs5yzyT2WyycMdY9GY5GD8T590aRXWTLd5OrSlDJJ8JHgj7/7AQ8+eEij24PZjP10MmU6OOR/+LtfpbOkaTZi7t99zDf/8Bt0Hm/yW5u79WhuEjN89hL91UWkkth2im8kyOGU9d0DFq+eZ+7sGotXllm8vVgnF2r3GwQ4EdPXS7RUBy+iGfmWGczjQ/FKINR48NlCnZqKVEWgIe6kqEaEKSsQgcZikyitcWBSStpZgwhJZWacPFG3Gv0MPSaUQs66AZ7aLeiUrCPrU4CUijPVJqGKoOkAj5aahWaXRpyhheTd3Xs1SRiBsYbclBxOajekQTGicob1zjJBOI6LAY04ZVxNubn9Pp9Zv05pSs72VolUxN7oEIGgn49Y7ywzl9ayahscVsQ8Fh1Kci7EIzIpebu8yKi4jrMfb6l+WuNpAvghIUQgTqa05oZkzTbWNmm4MUquMrSKUXqWYMc0ik2WGKNCycREOB/4ua88z/Uba0ySZbyIOdrt869/51/gTI42OV/+3GVe+dJFVpOYxj/8v0lnC1ie7XDm732eXwyKbuYpLp/Dry2RDh+i33oXcXa5HpAZFhTTnKQVz6r1M8TXzLLqOL3I8uQdIjulFNkPMPNCCHjjQdYTf8Y5JscTdKSJUo2OFD7ULjhCqVMdQRzHJHGEMbMd/SPvW1tx1bZhSkiss7Nx3NqE03pH5W3tO4DjZba4Xcxz64MD2hcXCWGKlpq5LGZcThEExsWkbmNGCcNyQjdtUdqSx8fbtJImVxfPk6iIgRkTRZrXH77DSmeJXrPL5tE2UikuLy1yOOkzLac47+jnQ5x3xCom0prgA7lPeBCWSARsmD1C6zNIG8PTGsBPb0jpaLWOacYH6NE9RnqJuVabojxA2yG96ghlxxjd5jgo1PE2k8Y1XFFy/8Emrjhiou/jZMZoUJFPxwRbEMojrp6/jp+7Bv/oXyJeexOcA61Qv/FF1s/1WRIJIU04XjqHX14i+uAJnF2HOMYHz80/epOqqlheP0NRtnFGIJIRk/1+DemYj1HBMl89YC+9TpDRKQTDVZYqr6hGJdW0YuHCAloo9u/vs7ixSNZMaybfDOKhVE3zAUii2hJskE9qw0zqduHJ9SCJYhIdYaylMhVzWYtIaXI7RdohTXNMhqUhBd2kRd5N2NdLaBIG01E9cx/FHEyOUUqxOz6cPYOiPx0yNTntpMlSa4H55hybgz1yW2BVYPt4m1t79/jKxsvc3XvI/YPH5K6g16jFO4lOaMcNsihhtb1E6SoqZ2YGnwErW/S1ZupKYj+CP0VO/WmLpwng+yJOcrpzu0jpCMeWwAjdECg8I1NQRWsoXyB9yaDxMrmQzLlbNNQWl842OB4prGiyJHYxZop1ihsXl+ioQ0S5SaxS/DtD7O/9W8JRfayNvriO+FzKyFj6ySu01CVk5x67v/IcW8+vsbDeYaPMaC502TOGhWcv0TjXZeoLqmmFLfPT5y99xONwmRYF7G0yMF3aqx2KYVEz/BJF1KgFOieOt2knQcaypuNU1UwirJBa4enlb8QAACAASURBVGeMf60U43zKpCzqan+sUbp20o1nLkNSCKIw5Wx1j5XsLIgmE3eIKzdxxSFOplTxCt/iDLtSIdsJpTKszC9ijKm1/omm00iIpKYdN9krjnDaI1Gst5ZY7y0jpKA/HtAvxmRZRhYlXFvZYGAnFKYgRIGV1mK928uILGnRjDOUVCw153EicDg9Ji4jIgWrjDgnJuybZ3nU32CSt/7T//D+guJpAvhICOFpto5ptY8YHi+QTQfEcxENLSmcoSBi0HkZ6Q0Lx39Ab3ob2XqWZjaPLO/wleevouNlPJK03Ob48IA3n6RcOz/PUvIukfIIP6V67SZsbZ3aTkV/5xpePubx9Ats8lWulkPaesrwxXPsPneFY5mzYT1BJSwUE6z0jGRCkF2Cm+CcJes1gNrk8t69wNJySrMBjW4TqSVxK66R2VE9CdfutUmjiP5oSNpLcd5R2RrLpbQmSmqXoPpOX/fwJ/m0bkFmKUkc1wjv4FGyBngILFfdJqvRlJ3hBxy4hBExeVik0st4FVEZTeVqZiciMHY5SZZQHuTYytA920bqmleglWZ7sofFIrSg70bEMkK4gAsOTyA3OV540iQGJUhVQpJERDJia7yH9IJRNaLydZdib3pI1kiJo4RGJllyu1wTx2Adt0bPs5NvYP0nl/L748bTBPCRSJIpaTqmf7yCGExYje4wH7bR6hybcpkpPdJyC6calI3LLEYtusO30OUD1NwzqGYEg1fxvkS2LpJeuE6zN6R/+IBvb82Rnn+WM3/0Du1/dRuG9diu/J//e8L6HmG0ixUtNuaGzPGIPFTkUQur4QiNjgIBgVKXaZojOsUjQnoeMd+qi3AzcwxnHD4Idt/d5upXLxA3a2pNlMWn7DyEINKKoigwM3b/iXe30ho5M78EELPpt8pbVBQRRxGNpDbhdNbUu75UCAHx+BFzfoe3/AKbLFCgqaxHyAgZ1RJhKwxeerTWJHGCUIIqr+rOQzOuTyWzeoZxpvYPnKG+phTkskKaMDuZKESoB5uMNUgU3juCh6ANxpnaGNT7j7sFRwEUZG7ARthGqia3imfZqq5g/Sef8vPjxNME8JGwNuZg7wLeCC6r91hLHpNGbSrnGMZL9OUyi0ffYN4/pD//i5j2ZyB4Im2R2SJu7w+QvZcQQLX97/A6pbPwWfSlX+DR23cY3X4Ib2wT9gqED7izTaqvvoiSr5PYPZ5tvYX1AeEDeXKGEDTYEQGBmV3krepgZIN2tUvX9TmkjQ0ONYN46kSz9sI63Xt3qbK5j30/IQQ+1EM9eVVSTKYEIEoioiQm0XWdofI/qEgMAnQS4YGprWoysPckukZ4iRDYmH6PB/O/xN2pI8wEQ0kkZi3R+n0irdFK09AxZgYvSVoxyaWYYT6hMhVSqdpI5COMgkhp0jhhWuZUlUUi6+KnqLX8KgiqsppxC2uAqRC1LZkvP5T/ClETgGOpSY2hQc4j+yy3hy8zKnr/v/2WPinxNAGchqc7t4fWnq7b5Xn3LeJYMUnXmaCpRIQuj0BIhq3nkdU+ZuufYP0BoneNMHwfIRRVVXGsL7K5/t8ST9/nyv43iOI7vLTxAv47I9SdzdouSyvM53tsNSxnJ5qEgJh7Gdf7qwzsiLv5FuOq/8OfVGisypB+yGjnCKMVnbXuqUQ3VVPWVxx31Q9vZQXAFCVBCLI0QUQKLSWRVFS+3n5PrLHdbGxYzmyxw8mfzcxBrA8UAZIw4kKacVANgDapjsjimR4CKJ2ZXRPq9mU7SimcYVjljA5HTMc5cTdBeYlU4mOLXwpBI0pQKILxdfHxo6DfGetfK10bgOoPF39wflbPkLUf4KyoacqCBg4pE0ZVQul+unb+k3iaAGaRZhN6C1s0Is9y/j5rR99D+C6q3GI/vkRabNEIE4ZLX8TODD3zaodO9T6icRY/uouP5jmmx2MUR8SsSolNVthknmjvCb3X3sY/OqzR0187T/RrK3g1RdJHeIuSjmD3GJgxx6aPCT+4E0NtX1WWAaMCUeIJOqn7+7Wgl+X8NkfZZUSwM7lPrWoTBIJQBFfbgjVbLeI4onCm5uLPPPsiKWnoBIRgWhWUpiIIQTvOkFJS2rpgZ4zFCoeXsFo9QPaeJT88REQdtNbo2S4MNY78dDjIW3JbUVWG0WjC0d4xOtYkJCgp0ULjRKhHjRGnSHJnHfiAEvLUMCSE+tqSxQqLr68AAfAeEahdgeL4dFpRlIbKWCLh6cQVQbUobKjt1X8K42kCoO77N5sDlPTEbsL8+G103OYwucChWmQqmpRRG6sv4oVG+RzhLc1yi0yUYMeIbI2R9dwTKYfVhN70u5xvxDyILvLIbXDx9e8QvnNcj+IuNPBfS2j2Ym7oCWr8XYIQlDge5rt8YHLKH3IMh/pHX44KpodjOmuORlcgdL17CQLtaoe54hFFa4658jHMpLciBGI35jjdwESLJGmDWGsKa2a6/YASoKUmkbJOCCEQTH13VkKcLmDvPM55ojgiiWOawnJBRPT7t9iJPotSNQYcwLm6WOf58GShpORwMmL/gz2iVkx7uV2DSaQ4bTtGUhGh6xOEklTWYo1BSjmTE3Nq+qGj2USisYQwSziqPhGUwZ5eaYLz6FA/QzOO6ckSU3nyicbbn57C30fjaQKgLsbneRNrNIno0zObiKTWvhdBYYVCuRzlck4E4sqXNItHxFk91Ud1TO5ijmLFQLW4GoYk6gzbpoV/cEzzd99CHUwIkWb4s88zvPYirfCQjbiFaJ3DS8HAFTz2U/IfsfihPu7GzZgkaoHo42ayViGgYQ5oV9tstj+HwOORBBkTkMS+oFPtMImXyfEoPBEBd2K/dULEoV5YIQSmRU5eFqhIATVz0DrHtCgIBGKtaFLScCPmpOXdSuMzPescBIypqGw9DBRkbbihpZr9XS02amQRyBMxEacUYnmSgEJABmZeh/VpIHyEbBTpGhhauVr2LKVEKUUjSiAEJpMcNwOteOPQXqIzRTeJSYzF+QmxzolkgfOffMrvjxtPEwAAAlNlNCZbrMqb6LiLQyBVjLJThGrjVAIIgpAEBEFoFAGpEoKt9exCSLSvyBiy0L3AoDhATwpaNye0nhwAMH7hGju/8PNMVy9hbI/zMkZGc4RWQuUslf7T0d62tBSDnFZPgAk4ajecxI3plFsMk7OM4tXT1yuhaKiYRvUEwXlUsoQUkspZmMl1AVwIVN7B7DTgrWM8mWCdQ0UKFzyjfIo1liAgTmJSKs7ZXXqMEW7KZnKN+fIB3mVIk2C8wIkGhgQpJMFTu+9QG4t0z/RQiarNPma7uXOzqr8UM8ViDTI9Ce88IVC7AylJEkX1f1fVLsVC1XAPT8Aag60sYWaQImZlBS0VmQSFp9IJS3MlI3bZHLdw7j+MVv80xdMEQI3W6s7tcc3+ET37hJDMYaMFxrKLlx6nUsp4tV78s2OwtmOCSpFSYcyUoNskpqBNRccPaSt43baZe/0+i994gCoNZa/D/s+9wubyAuJ4yIVoE+XmKYd3kPMvYys3u4X/6Mj7U4phjpoLNKs9SpFidJtutUmu55hESx97fSQ1czqiaxxV8zJpsk5qJuSupJxN8AnqVl7t0OsxVYGtKuxsYUJ9IqiNQzxRmqAUdOwx59SE1BzSL6e0RJNOtck0LFHpHpGKiZXCozmh7ikkgcBgf0g5Kuiem5sV7JiZd3KKEfOuHlQ6ub8TAt7P5gpmdYFAqK8Z3tdJAYEKAltZTGXJVIINjjCbWyBAL+7Q0AJhIprpIueSVRJdMXWOo6n+2BRgAKL6FoKxYD9lIsGnCQBIkgmduT3mRzlKtPDZOQ7kPDvRORrFWyyN32XSuEwZL2N1hyAUsTnAJisIaan8GO8qMixX/DYqbnM8PWa/vMTz/+5P6NzbAQnVxQWKa+vIJKZXvMdCI8IYj2qcRRT7pDaiq9bwJFT8YFEq+ECUaXTawWmBiudYLd5H+5xRssZRfBEvPk6t9cFTBk+hu2TmEO0miPQsWjYYmxwfPFIw0/C7mUW2wVt7OkUYqG2yIlEfkWPlWXUHXBF9IhyblWNLnqHUXaaUTJN1Qrpan4iQRN7X9+4ogQCVs+we75DNZ1hjTmqUCC/q9a9lLdMlzLiGH34nIZg5CGnSKK6tv2azB6lM0F6icnDG0kialJOCpNUhJPV7m37Bo9fvY+fbxEvrFFPY2rtPs3XMcmeeLNVMRgN88CRZC91YohrtYPIpcfM8Q5PykQbFJz5+6hNAFJXM9x5ztvgTZHnA4dyXGMXr9NUSIVhMNE9cHaJ8Tmf8Dm3XR+sGpavQ2RpEHSbOcqxWaSlB0xww8pJjq2g/GNK9uQkBphdXGPzaM2TLR1xik/W2RYs57uwdsfdohcX4kMsrR7wojzjwDUb5Frt6iVG0REBQDHMmBxN65+dJVMy8HLFW3ceYAVPZxAtFED+IrDbecmwCRvXoZj0iP6FT7SKyi2ihGVRjXHAUpsI5V2OxnQNR9/Az36dUS0gp6Phj1mVOU6fIfIcj1eGB63CYniGXLbzQTKN5kDEySPAB5+vJwSROaemESCjuP9mie7aHiMSpQEdIiZrVMoSSsyEnWRcnZT3sFGbehFppYq0JAarK4LynmTRYl4sU4ykfvHeXqqw4e+EsT+484pnnb7Ayv0ruS9773k32Hu7Q1U3u+4jHd99nUgg2NiJWOvu8/b03ePON13HOsX72PL/81/8W37v9TaIo5uLLZyjHUJgf+Gf+xMZPdQIQwtNrPeKG+H2uFm9wJLs8aryElRkBQSN/QBUt4DpNpC8YNZ/FT2+zMvwWTSmxWmN9g0FI2G29TN8OuFjtc6jXaW495MY/eBVdVPhYMnjmHPuffwU93WI+36d18bO89vodpHiXbqeNlF12vWP/wSZFNccz51Ki/mNu4QjzKxAESTsl1pIz4ZAbxS3ml5/DoTH5Lrvjx4ztOuNogY9a4AYC1juckhjdwos2zcldvEwhu0DlLeNqUh+jXc0S1BiWRJ/n1IBOqvmWkyxWAy7pAqkzdsoxD/U5+qKNFQov5OlnGjHTHjgzK9xBHMUgoPSO7e19Ht5+wupLZ4D6hCGkII4iJILKGpCyPv9EGuln48wnrkXUCcIGjylLbGlQscZ4y1jlpM1kBiTNWF5cJopjxELMLsc04wZf+NLP0Gl1eOfNt7nz7i3GwwFSRay8t8hf+ZUWpsx57oWXaDTb3Hv/PfLxAcV0iGy26W/fIes9T2n0p4YV8lOdAFI94Pnoj7kRj5BlwXH3F6hUE5DE5gjtRuTJWapoge7oTfJsAys09xf/GmeHrzFvj6nEFaZREycTXBCouRdZGLyL+ocf0PxgBwC3EDP6mQ6DtMPR+3tc1TFXhOCFtXscRat0kpReZ423zFXKpWUWJjeJ/DGxXWJh5wGyAWbxMtoOWSxusyEGLM5tMBk9wpoRrc5lLjSW8Adv8qb4LFP9oaJNUOvjO9LRnt5BuTGIwPLB1znsfQXXuEblKnJnQUKHIVeiHa42NN4Fhrbkq+mQzJc8qjz3Qotpeo4qiLry/v1E0NMPFrU8OXz4EuMdo7xg7tLCR14HWilSHVOUJcZYMp1iQy1AEqpu24VZG/KkW2GNxVYGoWprdRMsIz/Fjw0P7z/ihc+9gAuepZVl4l5a1w2M5Jtf/wNsabhw4QKpigneoIUla2SkaYOyKLj57rdrnUS7w9H+Hnfee4csa3Du6stU+tOz+OGnNAFI6YjjnGut17iUbWEG76CCo5JdTnYy6Qu0GyODwegeJuqQFk9QbkrefokdnbLgPsB4Txkvot2ERvGAUByx+PYe5Tv10d/FEfsvXqN/fY3E7nH2XMJ5BN5OsTJBCMccE3Ajqvg8XmUctl/ET97jzMIW189fxBSbhMHb6KiJbp1D6h5Hw4e8YxscRldZH9zjRhZzafEa7cNv873oCkYktMOUeX/Moh/R1ZooXYQ4AzQqvcIZc4+Do3d5FF9jNyi6YcCVuE8nitmzggf6Ekcy5nPFuzwRC+xEqxiZoUMN6vAhIGcLVIu6U1B6gxazFp4PCAHWO6amrIuN8wkKXzvx+LqfH+uoLjJ6S5LEpFHMtCxwQDQjEwOn1HPvHNaY+tqg68+KgqI9Tfj9f/F75NOchfVF3nv3Nm/+8Rs4a1laWuRv/K1f5zPPXGPr8S7FpGB7e5s4EkgsySSltz7FOsdnX/kSWbPF7XffQkcx164/RyCw/egOyzfOo2QT9ykpBv7UJQApHZ3OPotzH3DJ3SSqtsEbnrQ+xzRe5iQBFMk6QWji6gCrGowb11nov4oIDuVyivQcwQzw5RCJYW74BlXUY7eqOPPH7yFyC0Jgzs5z/IuvUDVSWvkjQvsC4yPB5PE+tC8Q4pik02N08DrtVFJFcziRYkPgqDyGaovm/MvQvIivhgyn+wxdxcPQYbv5HMYH7qoXmea3ec4dsrzyBX726C08kiztIpOz9XHfjLBmCNWIyBfIUKGzFdbbF1no32Rc9NHty4xcxNu2TT89j1NNTDnl1ehzREJSeEuwFhPqwp1Stab+5D4+LcZU3oCKkEHgbW0TVhsP1wW9o0eHNBfbZHMRQYoZnagm9AiliHR9FRDUcwPNOGVqK1xws8XvcaYeBNIf2Y1TnbF7a4fD/UNW11dBwOr6Cht/87+kNdciEYqFNOf1d95gc3vA6vIi7UaEMSVKSaI4wwVJd36Rh/fusrOzyY1nnufOrXe4/d7bdOfm6fSWCc7+yEPPJzF+6hJAHE1YTt/jfPVten4TUe1zrBbYbz6PVzGno2hAGS8Rm0OyYos8PUuRrNIZvVnXBuIOQbfIBrfZKG9hRcyRu4G9I7DfekDkPKEZMfjbr5Bcq2i6kqTcwbuSg4Mj5hsxHT+mV40Q8RUO4guMGpeRZohwE0aqy17nZ3nfjpjrb2N8QiF6TOIOIU7wUaeeAqSeDdhMr1NVD3nx8CZz7QtY79mtJkwmjzCuRMqYafMavWSeNXOfpHqMnewSxtuYZIExOXsmYVMtUugu3kiopnX9wDss9ZFeCgmyFgtFSpOoCAjkpqIwZZ30sChbX9v1zImobuF5vPOMdwfoVBOl0WxAqRYkiVn7rzAVzntiHc2kyQJr6xOFM5bga16BUPK02lG5iKVr1/nVzhzv37p1KiKaVjl24rH7A9auLPPS89cI9jaHR/scHe2zs3cMqsH8Aly4oZlfWK5PNFHEwuIKaZYyGByxtLzGytpZorRBqP5Cfrr/UeKnKgEIEejIHa5Uf8x5dY9cz7OdPctYdomrA5Sb4mVEEBonU6AW/TSLB2g3wskUERztyU2KuENIJSORMG6/RKt4wNrtVwn/+yZqrx7iqS4tUD6zQhRGFGqZAx/T3n/Aoh6z1qtotJdIXIKfPGSUnGGkuhRkGG+x3mK9I6h5DhrzH/8eQBQEsVRUoVbneSS7ySXuDreI3B5jkTLUy0yzGwihaPoJc0DPV/jeV7HjW9hyjM/OcK885v3OM+RE+FAP23hn6r75yWfO7tr19J1Ai3rxlc5gnKU01emzee+RoX69VLJe5L6mDM1fXCQYT//hIUvXV2GmRjwZ2S1ddWpp5oJnUhX4UGv8CRBHuhYVzZBkfrbQq5Dz/7H3Zk12Zded328PZ7pTzshMzEChgKoi2RzEqTW0KLUUcrTU/eAIWy+eHvzm/hb+En7wg/3WIUeoo7tDlqy2WyHJokhKNItDFWsuzECON+90pj35YZ97kWCRbCmi5TAKXBEIJDLvlAdnr732Wv/hhJQLa2tc2x2yIceU9pTHDxfgHUWwVLuSs7MFX/7sDjK9zd3bV3nv3ilVWGNra5e13eu0RpAPd0jyNdb3blItJlx75XPs7F9FD/eojPjFGPBFDaVattIH7MoDTLLFw/6XmKb7iBCQrkK7BdqVEBwpISrqCkWbbJDYM9riFZp0D+0WZM0jnN5kGjKmYkCl97nwgw/IHk2j2+6FnPb3buO3huhyzJo9RU2PKeoJ29uOwBmpHCFm92iRaNvg1R5z536uwy/EGiUCfbsFAM/sroPn4+JzGJk/95yZ7LFe/ph57yJDevTTi+CPcIPPcMQDFs0Ulog5EZ1/lotLnl/8iLgAgdY5PLFZlyYJWZLS2hbrPSrVKKlWrEIhBQKFUAKHo5k1q9/FOddJi0eyj9QKJQVuCR9aUn6VpJdm3ZEiio2WbY0HdNLi/QE2V3z9Dc2G/Jjtbbg+0CSyYGvQI1FjjJDsZDOkCKTFBun1r/LwuE/wKad+iE8K0tywMbpDy4Bk6NjZqwkyY2w1TfUJ97YXOl6iBBAo9BkX0g8Q0vM4vcok3cepqBKrEbTpFkFoRDBoO0fgsWqAIDCa/YggNF5mTHqvsl2/i3WGWXaFMruCfm+K/25FWHiCUvBbQ9IvOvbnbyLsnAEJp8OounvQv4rr3eDO7PtsjF6nLQ/xeo0185Sp3qP9O3SYXKfG64OPi5+IdEt8hZWfpLZmdob3DQfkFM6iXI1O1mm9pXJR2COXOYXMUEictYi0ow5Lv+Le+xA6NeDoqlsTz+d6BdYRJB2/QHbceyUlxjvccuavBBs3tjq0n8e2Bu9cxPhLgQzxtZZMwnh0cCs6MQRSpWnbFtPESUDQiratKVmgswPmdcosrLOXPaXfW6PyMw7CGtPhGqP6MZtJRZvuMvUjJuwQSGA130+7PwAK+PRahL00CUCIwCg8Zd++y6S3zVF2Eyv7qzOk9BVeZhEyKhJM8rw4xLz3CqPF26TtMfP+HXI7wbaOJruCPGwZ/u9vk350DCFQ3bpC+40rTEefJwktWfWAJ3qXh8kW64t3afQuorjFWZiyrgT58DrFfIJH0c9vYv3s71QFnOfM+xDQvsYL/Qk4sfYNfXPEXG+zIKMuD9mt7uLzKzThgLkzSCRpJWDWYp3n4YNHbG1t0uv36G/2MIuGyXiCdZaiyBkfn5LlOes3tyiTdjXuExHIzzN6EaumHnTdlY6046zFNvY5rL+MZQbBdfxBKXHG4owllZrgn8mQeRePDUrF13LW4bSkDZ46wPt+FyVqsnbCg/RVxslexHjU72BlzmLRUM8Nwb80y+AT8dKQoNMw55L/Pj0xZ0ofo9eem2Er3yCC+5nPN8k6Rm+Qt0+RwZFise0EK4f03/6Qwfd+jKwbfJZy8nv/hMn+G5R6m8PBlzgcfJ5pusfRImd84nBO0AaP73+ZUB2SqJyLSSC3E1Kp0D8F0fezQiBW4heFPaPSn1S1GZgDMjdlkWxjkIxtybw+5J6pedhOMcEihCDPc4QNTI7PqKcl8/GMydEZg16Pnc0tspBw8OFjnn74mMOPn/L4/YfIRaBQseIw1mKdP7f0wXpPZRq886RSU+iMLChO7x53subP19Oikzg3TdzdvY9d/2VvtnGG1tnu6LMEBwVME1V+LYo2aLQOJMmEVDtO2j5Pmmu09AkeZLZJlg65rs+4It5Fi/rvfL0/bfFSJACBZ42H3Ey/h1YRYprbM7RvVo/RdvZzEwAIrOrRpDuo0JCqhDpIxKRl8P33SI5j4+/gv/3njH/r6ywGN8jbA7zMabJ9nF6LSrpZSkAgg8Rml3GD24TZBxTZOjt5wai+iwh/D6xpV47jIzlonux+4iFOpDiRxt0ZUKFFhpZWJis6sBQC31oe3H3AR+99SDlf8PTxU3705o+g9Swmc/qDHlVZ4X2gPxown8+ZjWdUTU3d1DjnVlTi5cIORHahlopCR+nwparwksuvEx39BzoqsLN2Rfl1rVk13RpjqKoaax3GWox1hBAnA8uRI1piiApHm+4hPR2YZftYlSLaknQ8w80q5k++S19BQYUPv6gAPtWhaLmRvcnuyFFne1T92+TtCevT75K1RyhXkjdPEcHEJBA8P80Yrl99xOHWbyMFpNmQWX6D3g8/ZP0/fAdhHeb6Dosv3cINe9TZPqk5JQiJUwOCTCnWcvqbBVJ4GjvjaPo3TO7/a8TaHfyjP2IzzXjN3WWrfP/v9fstF5wIHsG5zj2eYfuUnfJdeuaE3Eavv436LmWyReBZpaFRnNw/4r0fv4+xDuscxhjyImf8+JgLV3cpsoy19TWOD484OjhiMBwwXB+SKU2qE4Z5ryvHHc7albiHkBJHwHjH44+ecu+H99m+s9v9TKC0RncyXrEZ6NFJgkwUvhMeEVLSNm1c/MYwr0pq0zwDHElJVmQIpWlEQioVa0lO5QWzpGCQnXG7/TZf6/2QyfSM71ZfZWZh0YLn5dMBWMZLkfpSUXJD/z84O2Wa3aHUm/h0j7x5zGD+FsPqfQiBXn2PsrhOk27jZEEQCi9TnOzhZYbwFm1n9M0hItuCu56dP/y/0NMFAPPPvEp9cY/Q6e17mSF9gxOagMLMSp7crdjbHLPjn5IUl3j36r9krfwmFPuMqwkbgz1uNvco64xZuhfHkv8RirAQAiElx8Udri++xSzdJQhF3xyx1jzgqHeHjfpjdqofEwRsVB/zcPSV517D4rnyxjVGvRE/+Ns3sdaxtb3FZDxh58Y+R0+P+NZffZu9S3tUVYWzjizLSDKNziXKKRrvMCYCAFZTiS5c8EwXC+bzBRs3IhTYu2gdtuoVKIlMO1ViGU1JVJpEtJ8ARYiUXykjwIjYREQIkiyNkwsHrZAUfo5sTxj33iAIwbXyu2zqwP1ywb3h6+hkgfAwdy+HBdjPipcgAQSuhG+yXUwoRY/TZBfXiWU22S7KLQgyZTL8AkXzkP7iQ6Q3BJEQgkO7GdreIzVnpO0hRfOQgfCI7DdIf/Qugzffi0i2jTUmv/olzOYzJV6rB2i3wOp1gpD02iNckVBuvYbYuk6uUnJzzKI8oV/sU4oe6wGUylivH9Czx0yyKzRqiBe6o/p+MhkIGUdzRhQskm2uT7/JJL2EDjXHxW0avYb2DambM2wPSX2J/YkxoQ+esm1QWnHj1k3uf/yAfr/PcDREBDh9fMKt24ra4QAAIABJREFU126xvb/DlZtXsI3h0f3HNG2LDhltcJRtNB+RXTkvxPMFpkoVWze3O45AIMiIERBKrUhBS2fh4H0c/Wm5AjzpJCaHJbAo4gziv3Wi8d4hpcaSkPkSfIMLnv32Lltaca8sOF6kVElgMzNgAyXPYyxetvjUJwAB3BZ/RJCKE71PmV0CAspVFPUDlCuZDv8RTvWY925h1ZCifoAXCXW2j5cpqTklO/trmnSHRf82m+M/Rd89YecP/hThPXZzxNP/5veYfPlzhHPcdaOGUUZMr+FcIOkPuJqdEYY9oCGtnzIo3+Mkv8GwyBnN7hHEBlPR42n/NsqXDNpDBhxhZMYsu4iRxbnfbanTF7Cdrfci3WGtfYKVKQu9Ta3Xye0U7Rum2SVa1aNMtnDieQ284ANlVWKqCpFJrty5GhelEJxOz+jtDUl6KXPdIILAHLUM9tZwfcmiWeDwaCVRSYLzHucd51GVECuValYjlSTpJc8WuvMorfHBY208NigdlXxDANuYldw3gnhMMDaqBxFQKunsymLSCUEj0zV8use6rxmJhgflkAen6yzQLPo9LvnHWJczd/v/ULfeCxGf6gQgpSPVFUN/RKOuclbcJCDQbkFeP0T6lkX/VaxaznkldbaHVX365cf0wn3qbI+0PUa7GSfrv0KT7pJOLe2//Q7i6AyEoL21jfncBipdNpQkIliCUCRuRuK3MYuScgpyNCTzM0R1GjEFwy+SuRlBLhgIg5MZtfe0SR+vBiySHQp7xv78e9TJ+nMJAIgcesBZvzLROC5ucZZfi+O/5pi16jHa10yTiwQkk+zKJzocDk+TW/TFnDxJyLI0wn6B0tY0zuDDAmGIiLwNjVxPmdsKb/1KCDSETqEnxNJ8CQRaNvXmBzOklqxf2QAZEYJKCTKlqdqGto6eA1kvR2mFaQ3WWKSMPgNCSpyLiWLpYQidlqEU5NSsixoje1hTMcAxsQWPyi0qYTnb2qBQR6y1Y+pwgyas/YPcey9KfGoTgFKWtY0DRtkh2bjBeId0JYPFuyhXEqSmSXcJKETw58Q0BF71cHpAr/qQtD2KTkDpLibZoF9+gPhBTfsn74GNu//8K3ew+wOkrxGhjwgtqTklNacU7TE9L6jrE7LmkMyneLFJm+3RJhsEkeBtQTP5Ewb5Fk4ofLDnFqig0hskrsbI5wEpgcigE6EDBnlPzxwzyy4igqffnKBmkkn1ObzU5P6Ioj+mLC7S8vyo0TlH01YEH8gpGGi/UgG23tK4CPXVQpLLBCWijmCqFU03j69dg/+JsV4IUa68PF0glCAdZggR3y/R6UrZ1zqHM1GTMAKOoh8gIpb+cTLguzFhQKnlMSMmBqSgEJ5X7BMu6MCR66OdoWKNg7qHEScsNnYQesrATdlWCe+V25jwcqoBL+PTlwC6nUcIz3B0zJZ+iC4HzDwYvYHyC4JUeJmR2AmJPVs1/IPUiGARwRGEpE22ESE2tRJzStY8ZePwu9g/fQSNwQ0Kxr/5FY5+47do1rZXuALpwao+JtmkaA7oTf+GTGwi8pZW9mjyK3g9Wn1ko/pM24pBfx9EJ4aBh26RymBRwfxUhN9SD2+57gbtIcf915F4CjNm4V6hMbsI1TJw97DBk6gEc24GH3xE4znrVjh/JeSzxdYlgkQo1rOCYVKghcR4z1mzoHWRtxAFO8PKDIQQ7ctTlWCmDbJQ5GtZt5N3C1cI2ralNW3kCyiJ1iqKgBAXf/CRSehd5AgIKRBKrz5fCCADXBJTbmrDRA6oRc5Q9ThgnzI8ZTYYYDploW1/isov8+RgC/cSTwDgU5YAQnA006d425IPt8BrenaM1j2MGlIW1xDBIXDxb28R2O5vj/Q1/fIRVXGVJt3pyD+exE4omkcU44f0/reP8O/H0t/ujqj/8UX8tnquN+dlhpcZTg2wqs9o/NecnKUcnq1zI1ektgI9jK9txiRuQi2HhOYEkV9CSY0WMsKSESSuxskUEQLhXGc9dCKZy/I6oyEIhRMJ2jdkYYrJTkhKi0/BDgLTfI9MaAjRjy8QcK3Fmk4gVIpOZ88R8DjnaFuDFwGniO8XwBGoTBPJOkSdPiEE1nSoviU+IYDUgtGFEW2IHH6pJUrF39EJgenER1Wi0GkSrcE62m+SJngRSPI0FgddA3ApVGo7avBIS276Y7xQTCjY9mNcsoa1LVY3WLVJCNFBaF1JqsZy5p/Rv1/W+FQlACkDOhE09RmmkkxPckI+QbRT3PCV6IpzHmV37kvvPTo0JO0ps7CBdX20imYVQSYYvU72w4/I/sNTsGATzeNLN3i8c5nR+CPSwQVsbw8vuhtVgJcpTXqBsv8qqa1xvsfR0WMumu+xMRoghcDpAU4WzItrNPYjEjw7fgKzbwMCrwfM8qugh2w0DygHr8bSGEHjWqxvWbbbhvaQeXoBoJMuh1ScMVtbpxqMEGmKkxmNtx3jL87rbYe0U4lGKhkddmwTNQJb88y0g8BZW668ARvTYrxjaS4qRGzeiY46HEQkVNngEblEtnLFKtQ6qgC51tJKgU4TdBIVeW137l/6CBgftQKWTMPQ9RaciwrBqRLcbN9nLXU8CGtkItAPlvutxrSnNF1SlJ2ikMwvcvr0hIV/Jp/+ssanJgEoZRkMTyj2p+A1xlrGj6e89eSAnYsNh70rWAMCBwKqaUlbt4x2ogHIg3cfcuXmFm1l+ejeA/RwzsVXLuKsI1GB1Byz+QffRS4ienA22uDffPFf8OjHm1zoz/j65Y+5uHfCOH2V+ycFVy8qpIDWJ6TpLlv5R5w0iqPpCD8o8L1rpEnEGihf0Z89QoS28xhI8dklZDmh5ydsV/8n/XybC/Nv8mh4LS42bwmipaHhTGYsgmbUPua4/wYAQUjG+TUcOY3KcSpAp8+vhSR4R91EIdDlEchaixYJofvaGrNC6nkfm3s2OFoMwUWKrpCqg/6HFXZ/GUuHYWc9pjHRu5AoJOJDiN4EogMCJVFUxNTNSkswyXNSpWMCADSSxkZfArSKfYCg2PYn3M4ti3qC0Dk74Yy56HEYRnhzRJutRZMUAjiHFY675Q1ceH4U+jLGC54AAlpbpLQoZekPzhgMxwjhCWHGznrgjd5HpLLHo+YWj771HlkR2L95kcXZnLYx9DeG6EQxWO+TUJPkKVfeuAlpgU4STp+cooTn8rdr1P0aAtRJyr/Z/zp/M9lAN4peb5Nxf8SWeEQ6eY8fv7nJDfcY6Sq+fe8qX736hO1iwl4hMTevMw+KhwvNWppRhBlbZ39FP69IeztU04+wbWAgn+CNJfUTRjpQ9PYxZ+8wXHwIUnZ9Cs0weIZqxDwIpB5iVA8RHJmdEOhUepdaWkTLLWsti6pcLbSloUZwcZTou109LXIKnaE63r0VJur2WYt3vqMJP19CL+3Hz393yfrz3uGkiEAfHXd2R9Tzd9Zh22foQZVoEq1IpEaJ6FFgvY8sRSUBFfslQrEtNSrZImHEpSShaQxPk0vIYKl1Rq2GOB+QAgb2BDV7wkP3u//wt+cLEC9sApDSMVo7Yn3jKWm2QHTd4+WdJwRcaL7HpXzMu5u/y+ZawvrFV1fn3MHGoHtcfMLOpS22T/+M8ehLpMmz0dDutV2S4zH5W6eIMi6Yw4uXefxPP0fRaHSucc7y+Ejw9sdXcS7w4djzP39nl7qB3/7lDHVxh6MH3+O9D+a8Pz7lxO8xL1suDT9mtL/HDbHFf/36R8jePnn1HS5sf5mn5Rm1Kpm5NY7DiLm5SLX3PzJq77Hu30e5eacLICh8zdDOKXvX2K/epUFR2DH38y/gjCGVHikFTiYYW2Prmr6oyZnRo0arjCO9SZP04uJUz3bxyjbYNnIT4iKNX0slV4265XVc6gicJ1m1ZYszLqr3BI9SevU83zkPnz+GLEN14KBA5BEYY2NfQjwTAklFRk9sUywO+M6s4Gn2DTY2p8i+wQRHZQ9YZDuYEKcNPT/jG+Ft/lb8D1Theev0lzVe2ATQ60/YuXAPqSzaLSjaA7xIOkqvQgrFxek3CaqgTraQoWXZXw+hI6gKsbrneuWHlPklBI7EjEFIAhJhHbt/8Mes/dUPEcZCqvnD138TJVpy1ZLnA8rphEdnZxTDC3gZSM2E03KN4ajAtTkfPBCYxW1uX3uHbFRyXB5hnCDJMvKtlP3dNzCLv4Ldr4NImDjHB+mrjNMU2/kERuOLx2yN/y33R7/CPP/MqiHY0wWZz1ib/pDLi7e5P/wS8/waqfRsuiNuhDGKhCPfQ7s5m2HKINOkwyFa9ZHB8qP5fT5I7xDUJ+khS78+IQVSqxX2ftXN787856G/y2jnDeXpgsHuAJkqdKpXzj+hmxp429mBiTjOkyIqCRnvCLZBEwVEnfXPklMIKOlZy05ZL7/P0c7vM1JzkB4vBNYsaFyDDRoQSBG45h4xWrtD+fEpcOM/8R35YsYLmwCk8CzN3oJQBBSpnZKGlmivJ+n7BZUeoN2UfnU3YuqFjJx5oVfPU6FhVP442lnZScQGEFCuJHv3MWvf+x6ybiCF0y/dIf3MFd4+atnat3gxZX2n4HO3dmnbIS609AY5s6pBKMs3v/WI3UFNNugzFhcp9IJ7ky02Rpqjxwf80+un9L2iaQGVY/WAk8UxZ9k29hyU1gePa874oP8VZnqL4A2qG9dVpqINCcf211lv3+T1MKYNC6w/oSfAhR2sU3wunWFkziwbMvU1qZccNwv2mXMjHzI2hxzJS6v3XC5opRWh+1unkXmohURrjQ3+mWrvT0aAdJDhbBxVatXh9budH1hx+kVn+rFUHoq7PxjnMD56/DnfHTvOJZvELPD5LiIFLWJ1Yr3Dt6dkzRGt3iYozcBNuJrAk8kxhy85+u98vJAJQOuWrJghugTgZM68uAZELzwtNTI4nL1H2SxY5DeQ2GiVHTzSNyi/QPgW7WYU9SPORl9m0bvRqf6WFM1jspMD+n/xIcndMfiAuFbw5D//OlfcU07lOq2fQXvIxf0h17amPDjJIxz2YuB77wV++6uS72QDqnHgxugIUxo+fJxxNGnJ2jnDxHHDvMNu2jDauASuxFVPqNPPYMXz82mBZ6O+y2H/jRU5SElJKjWVaWg5RfTg4eSLbNWg85ZMGo7DkI/ra7jEcNm/zTT0OdU9kmLA/mCPs3pGqD9i3x+Rh3blnxc9uLokcO5MnyrNIMnRQrIwDcb9dAp18IFmXuMaRz7K8d51u3jsL0glQQloI5pPaU2S6KWqyMoP0DuP6ZqVq8UvZfyc3jFq7mJGnyWcu17et4j2FBkMQSYoHFf9AX3Z8qbbphYvN/rvfLxwCUApy/rGU9bWDxDik6o5y90osVNksIz7t2nT7e6nIfYKVjuWp1fdR3pDWVyJr+9riuYRwht4z5P+7Qmy6vzlf3WXz3/5Iq8++mOuX/0af/GRAtvw2uCAntlhcjQi0w4lAidHI7b8Kf/Za4YHH814fFCAWiftp+g5tAYuDS1bfcXuRkbgIn76AR6JdHNGzUNksCwbeDI4FGZlTgpRBSgKiC7ttc6Q8pT3sl+m0XMyKUhVSuhrhIYH7g6VczgEo3SIEpL1bEirXuHtmWSs+6vzu+j0/86HQJBKzUjnzNtqpccnf8qxwTtPM60jEGiYIjuvgKX1l+wWsdRR3jtLU5AC67uE0ukKmKaNHgBCotIEqWP/IPiAlIZtjqjEq/FYJwJ4Q1I/RrkZi2SboFIyN2M/TMA6xuln/3433Kc8XrgEAOCcJgQNPL/7CASS2Gxaqz9GVI9pel+K8N3gaNPtqASEQPmGxJwymv0A7Raszb6PVQOCzAhIOEzo/cXHJE/HK1uq5OomPXFM1evxenZCuF6y6F1lO29wusfmhVEU83COz7+WkIqaC+Ztruz2+W4z4p1JwoNFwf7OjGu9MaYN1LMPcdri0w3mbclB8RlOrUT7hmH7BCMLGjUEJOPsWvxsy+sQPM6HTiATRs0RrleQrDdUTQ06jSU7Bh+gFYogYhL0QOlaNJIzGzgTOxFWDKsyHJYY/oAWmlQmSK8ZLxbM2xLLUvc//NTz/xIbIFUUA10+bplYQoAkSch0Aj7QdiO+lYy4c8+pARGegZ7oOvr93g5zc4zQO0SS15RQP2aR7FAnWxG0JDRnIWVdVoTwcgN/fjJeuATgnGZydgGtWza3Hz33szjjVqhQs1m9SyVSpG/wKsMkwxXHH+j6ABEYtOjdJKBJzRlIjcouUBweMXj3HuKcQGf4o0Oa07/g9BufZ1cL/tF2xaPEUMlthCrY3RvGCiTA5j5ok7JNDz3a4baacbQY8EoVuLqZs9EOuPfAQ7rJIks40Rd4pHsc0qdWAoHHyJxR+5Qy2abRI7x4/r9rKYYRfEAEzah8QrN1h8bGWXpQYfW4xprOyiuW9QvbUNkGhWJWLajbNnbcU91p+sWIuH1PojQD1cM7T9kanO/w+Dwz93ju/0JJkl5KO69xxqI6KnMU/gyIDucvpcQ4S1u30QYsib+j91GenCXc13tsa7vjgkJJxZYr41Gkw/N7L5C2pPWGWbKFD7F6siJhToaloQ1rL7UG4E/GC3klvNefKP8lgcxXFOaQjcVbrNUPuL/+Gyx6t3AyW50RdVCoRhCMQtkBpfgKrdgiBEE6ghAqskpz2B4yurEHh6csfaDsm09wHxww+FFA/c5X4WuvsiV7PF7kkBXkqaYJ8bigFIyqA4b9farqiGZ0mdEwpQiWTCfMHmds7IDtpbyff5YjnzLxARP8ajHN030kjoF5Sq1HP0MYJKLtZCMxfkgpVXTn6WDCLnhaY6hMQ5CRPpwpTetMnKu3JmrvdVXEEsa4xPMLIVEyLmglFIFAplMylYGMC9VYS+WbWF2ckwEv1gqyfhrhwy4gkyjwqTrKtBQS5z3WGKSAfl7giJWAaU08chQZzjicNaseglSKTDo2tMaVD1gM70T7sbKAUpGHgA3dtSEKlaahxoSUenYF715uAtD5eCETAIC1KVU5Ii9mKAzrzQMuVW+z3jwkb4+o1YBpegmrBqvnKCEpj+b84C/f5PDxU9qmwftAmhcIIfj9/+6/ZLizT1nOOH77MTfee8RzJnDWEc4cvb98l/bdY2b//DeYvHaNd2rDlVu36A83Mc6vFH0tCfjoodcEg1cOrGd2MmXYG9DfKDgdfJlTkTLx1SeUgL1QTNNL7JTvsl1+wGH/NX5yqw0hVhzagCkymuDjDi5EpPA2Aec8LoSVj4ASEqkSqsUU05rnhDmddYjWonKJVppE6njoENAQBUPyJF9hiyzx2GCdoZUWh1/pCCzHhrNHZ6hE0dvu4zrqsBKic/ht8d6T9woSreNCDx5v46QgTxNULjFNFAqN1Y5nt33ETlpxojYZe8/CnNJUWxRtIE0/Karax1C6dZr55U9cw5c5XsgEoLVhcraLaXP292dstu9z5+zf0/MLKtnjSf/zVHpEk6x3VN9Y0goEeZKxv7PB1f0dFrWlNZYLuzucnowxi4aPnxzxN//3t9n54Tt8sZP6WkWeIdIUpjPU40PW/pd/TW97A/m1z/JQS3rygN3sIZZA2bvFRvUOJFcQa6/h5tFPrxqXVGclWzc22Sgs46CZmPITNNpleKE57t1mf/4mG9VdxsV1zt/AwQeczQltH5c+88pbgmVs8AgJMjyT6Fq68Bjz/OKHuNMP8oI8y1Z6AMZZjLNUviVTCX1doEXE7QcX6b6JTmlxBBM1/VaSYHHyGsk9bWRWpiqKgXgXVX91otEqwYeur2EjLVhpteoDOOuQUpImmk17xKtpSeks76hbTIzBExD6lNw/fU7tSBAYujPWteK0Gvyi/P+JeDGvRghIb+klZ2w073Nt8ucEFI+yO5TZHsLVJO2YtdmbeJGwXDBKaFK1xeCVC7x794TT0zPmswVn4zO+8rVfYn1nxPalLdTBEfr/+DOG7fMmcPKV6zz9Z7/J6H/6X8mqFlpD+uiA9T+ekB2cEv773+f09q+zefZn3Gy+h+zv0s7vwdoXUHoOxpMOMlSicDog3YzaKTw/XwbciYQngy9yZfrXTPKrnTTY8lIEXDskSIOQnVoHEZMvzwtmLJt0SxKPNc/rnnajuCxPSdIEJSSts7TeRsJPdxUb29C4lp7ukZOs+PpG+pWxxvK9lo5Fw721DnYcyFVGkaVMqgW2iYYkWisg0JoWY0y0/ZaSJEsILtKLlVLkScqFBG4GT99Z3leXafQ6aYDWtwhdkpgptXyG8svcgtflGblY54P5Hfwvdv/n4oVMAJvpR3xZ/iu2/QlqvmCSXODu5jdo9SaIQK/8GO1Lyvx6fEJYWl5JFm3C3QdHfPjRI2zbILyhnNa88/032du+zfEjy70fvsUXqqgV77WOarvOE2ZzPsoSFv/F73Dtw0dsvHuXzeMThlXN8K++h0st2//yt6l7jvcGv0zrPRerP2fDzIg0GIFONaZsETagKPEiA/mzhSmXijoOzWlx67mfhRDZcCr10GoI54g4UnzCwkpLRSoVVdvg3DMwjhCxVE/zSMWNY0VLaRtsR9UVAYokw3iH8ZZ5O6cSKjImhcC62PtI0zSadgRPZAOHiPG3njRLEFIwmc1p2zYmjzQhCMGiKrGtXSkcq0x2tmSCNC2imCk1d8IBmfB8nN5mkV1kRLQPd97R1IekruQsu7rSCcA7VNrj5PSIh+1n+UX5/3y8kAlgt/kWr2zeQ7aHnIU+Z+tfxegRQS47+xqj12iTdeLCi+fGNLRoYH1ji1dupfSLhEIZTsczMuUJbY+qnPPZ9XVunU1ACMZXL5HOSwZHx3D/Efzld/jwjRt8/+ZNvv6Fz3H7z/6Kwf3HpIsSJTzN2Y95uPlrLNQWmgVCpojg0SKepZ0PlKcL1vN1Wq+g+PlGc6nSK+bcNN2jZ06jpHdH5w0hoNMpQhUEG6sdgSCRChPiz6UQK1ut1lmsdVgbO+pSSqSO+P+ll1/rDHXb6fqFZzt52x0FfIc7cNITRNQUWD4m1UkkHHmLW/oDaHA4rLM0tV1x+JNz3H/TmhU5SRB1AG1jEFLQKkOWaXqqJhMtR3KbSXoRL1IEoBBoGei1xyzUAKN6XXILWJnSuJaR1vAfqbRexnghE8C6u4cUAS8SVLDsT7/NoH1Mk+5Rpzvk5oggE3QtEb5FuSqKephjgu3z6GSPowPD5uuvsDnqc+/ufZ7Ma778Wo+tQYk6OUAGTxjkjL94h+zBAb3xGGUs109OSV7/Le6dzvHrA97u/QYbHz9g7+QM/SvXsBsKaeeQtGws3mErH2BcTe0kgQyhBP2tPkme4Ofi586lpRBoofAEDBYIXCjf5t7ol/H+vDWYRfZmJPMW6QIqU7HT31oE8TWUlFjvug57u2LzqUSvzuuReCNRQlOH9rmmZOiODue+sbLxOn+UsN5Gmm9H4slUgghQGkPbRKShlJI0T8nSNPobehd1BETUCEyUij0CYoUjhCQVgaE9YS4sp/llvHy+k5+2h1hzxDh/Beg+VjdCjFRl/Zxnwi8ixguXALRqGCUtwlVMi5s4W6N8xVrzEFHfxakeylUIwgrz72WC9AaBp/UNF4ZrXNjc4fK+JZVz9Ndf470HJcI/In/0HeS/fwusg42EtTs5bu8q4YOP4HTG7lvvM9weIXuBZP0C9c4F2jvXCZsJggfM8hzZnjBqT7gszkiKPZ5MH1Kmt2NDDEHSz0B5kqQBBj/39229fQ6RJ3CkdkrJcPU9JRU+l7BQDBantNnFc+V/bATacyX/MpYcf6kkkoj39wEypcmSKEomhSAVChE66XDbrvAHSsdq4zwXYIlKjF/HCqIua+pFBSoCg3SS0M8LEqkpXYPSuqsEHMJDL80xuFhBELrk5GlJcSJyIJ+7J9ycYvEOd5MLz1yRu8WfuJpCC07KAe0v+P+fiBcqAQgRGOZPGfTANXOerr1GQ0Jmz2iyi2hfot2CxE7Jm0cs8qtYvY7R6zgVjT0yM2awtY1UPVpzyEz2aLc2ub6xSXv4fcT7DYNZ7GaV1y8jXt1gszwh2ckJZ3OEDwz+7E+59C9eY7x1B+kT8uaQnWyGmY85CNuI4LhpP2a08RkOF4fcT25RqSHBxjHW/HCGWHNckJa23oH+DESc8i+98TxhVfoLlqxFwXHxGrmbUapnCUBLiZeC6WCbrfEDmv6cNu0BdESbcA7ie67iCGHVcZcyHhFccFhvUVKiVdzB15KCTEhmpsESKwHVYfJ98BGX31UD51/fh0AbLItpRbOoyUYZSZ6SZmlUAwq+kxiLegHCQy/LydMMZxrcueRnEUzlGlc4ZLO5z2l2vQN2SdLmKacMWCRbz98wwTMIFbkrecv8Y+xLLgD60+KFSQACx6B3yt7oLQb2lCrZYZJfx4kE255Q5Zc6sE9A+paieYB0NXV+Bav6BCFJ7BTVHiHMU4zLaIVGuCnUD/BCMZebcLzJoPYEKZhfvsZiZ5stU5O8cRlz94zQGMI3/4aN33HIuSQER9IeoudjRHPKBgNSLBt7X2O+eMRjPwQ7x4veCsarU41HU1Yprdgg6zlS3UZfPYgl9Lnd+pnZpmCR7ESvge5bWkY57jY4bAZu4zr75h2O8s9irMPZznZbgNJ6RdUXQqDSqDkolYxMv052q3EWFSSyU+eFyM8PDhIVGYBSCIIEJRSJUJiutyC7Un712UNAJgKda9I0Ydjvg448/9bZKGpqHSIE8jQj01Hj3zTNs+mDkEglMCKQipq96il9O8YN74APzJun3E0ux+OUePa+Klj2xJzWSI7DDfyLc7v/fxYvzBURBHbUW+yEt8jbJxzmr8auP9CkoHyF0RngkaFBuprNybeY2SmCgJMRFpyZY2b91/AiZVC+j1M9qmyforpL0+6w961/B0D5+k0m/+RLDNOavL+DuX6IzzWiMYTHNfWPA+GLY4ryQwLQhIYiHdBvK/oSZDLiqHyLk41fIrSnCDsDOcI1lnyUo2SGWXhgql8nAAAgAElEQVTSjSNSDZmKI7XWmZ9rDe6FwqsB0kfBTrU01fSBEBxyfYPBIkG4Y2q5hhM2MvGIc/XgQSaaJJcIIbEmAm+cE6QKUh3ZhU0nEhqCwVrLRtZnbmtMcJ1wKCghyHWCIlJ8Teiku88JhXjjCNaT5Amj4ZAizyhtfM3WtLhO/y/NUlSiCQQWZUXTtNEBOASkkpGHoDSNKCiTHlWyxWj+ARv+jE2dMLDv8CQMOZFrzOUAEzQ9O2FLe07qy1R+wC8mAJ+MFyYBSB3wRcbIPkG1Y6qiIDEnWL2G8hVZewR5oF9+jHIlTbaDlzmT4WcJIkX5ml51l1poFr1b5PUTWr3BvH+bIBK0K2ncHsnTEwDs+hC9Nmetw+U/+c3Psvbv3iWfVIQqcNbcYLz2VYr0Enl7wNxXXExgUP0tvd5NmL6F8ZasfsSJGNJvHlMB4/sl26Oay/1jJDmmuITSktbHxfwz8EDPh+jm/AQ8nsYZrIsyXUhYDF5j8+TPOVr/BrnWhDzQOIsTAeEDidaYTvBzqfCjtCfJCgY6RwZBa003l7eEDI7beTz7P/sIpCohkTrCjrukFXxYNdulEFSThvnhgo3LG2RpGu3CQmBhW6yNFYBQEpkoamtYtCVt0yK1IlFqNV2IXf7HVMpx2P9idGquFdOqwbjAxTDnl3TDTBnerKc8VJcZ+pJUJJy2lzD+F+X/T4sXJgEI4bDZGqrShGBokh0G5XskdoayCxJ7Rj/9gFn/deb92zjVY236A7zM8TInCIVVPXyygXQ1qTmhzi/Tr+6TN4+Y9e/Q5Bd4+F/9LmtvvYv5tQ3y7DGSfcrykEn/C6xdWYMPnyAbw/of/jkHv/QF3IXbON1nsHiP4OdkwaCGtyiPv8PD9d9DVA/ZbO8TEOycPUS6nC0RGJlTKLZZaIg2IIHWGjIdLbsbaz5hsPn8BYksOx8C4dxoLoSA0WsIAQPhaFTHgejENXUiKU2N7xJAIKATTZJEB14bPL0kZZQWsUcQAjY4pramsSbqInT0X+PjUcUaS9O0hI7cA5DrhEwl+LSlWc9ZHw7IdULjDI1to0hIZwyaZilCSowxmCUpSWtUoroeQKDwC9apmKdXqGQBrsFXj7mv95mKHo/sCb/uP0SJhioUCARZ2sc0M8b1FjZ80lPhF/ECJQCdtCSqYihqBILZ8A0avQGA9A2DxfsEIVn0XlkRf7xMorFH95jUTpj3XiU142jcoUdk7QEnG7+K0RGt9v4/+zXMl/a5dU1ANmJ9/hETFOPjGeZLl3njL99DWIc+myPLCs86ZXYFLzLq6vv0e5cQuuAwucwxOSa/RaE22aw+YrNXsZWMab1mLC9RqILatSw6Qw4pJN60tMZA8GRphlaRR18789N1d5YUWf+MmFPonHn/NgM3oZFRC8GGCOBBRPVd11lrRUiux8s4JahcS+sMruMYiE4MxFpLUzeR5Scid984R20bTBOJOt5H/X4pRBRlQZAMUgpVkKcJiVCM23nXl4gCnzpNokqwi/h/eNarWAKdZAhshDO2FfxQrDOpjlkr32UcPFOdYVEs1BpnbsC6Khgpy1yDSLY4XWhmpk/4BQbgp8YnlRz+fxhCBPJ8zgX3Lj2lsDrKPC/Dy5Q6vwgIEjNhOSayeoR2Ec8vfYvwBidzlK/wnctOCFA38WYrpzOaowfMpxUHixG6XWBmR5Quo1dPGOyv016MCyo7OWPvX/0Ji6NT9OIpQ+nQUhH6N5iYloPB56PsGIIq2eDJ8At8uPGbvC9/iYeLXT74WDFeaGbTkupwDF1DbDaZM3lyRjNvaWY1i6M59aLuxtnPp4Dow+c7d6A4Szc+4uub9MKKX+BDwHmP8Y7WGRLZKQDHV1mRAK13SAS5Sil0Sq4TUhmbesH6qOG3dBTqPs9Sp2+p6686fQDrLXVZMztbkCQJbfAczs4o6xrvfGcgEhuQrvMnEEJ0DsAS5KqbxzCUXAtjjMho60Py+gE+wDS7hA0a7xyt13xfXOLIem5oy03/hF55n4Nyl4V/uR2Af168EBVAvPklW35K0h7yZPA53HM2WYI22UTbWVTzCRavcpzMSOyUNtlB+QqrR0jfIIKLeAHf0tSWh0+ecumNPmtDwfXLY/zVHOkPueDPGIwyBnLOzV3D0+0e5Reuk90/QDiHPDwiPHmfC5sTbu7uotZu8mT6kLttwaEe4l2DXO3bgdSXjPozsqQh5AOUPyPcfZvClPRGr7JIt1FpBMEsTua0vRTfWnLZI09yFicL+tsDEES2nI/MQyEFWkcUYGVqhkmfRCQYGY8TEM/jUgis96wlPabM8R0EWCc6SnMT6cNKSoJnZcstAKkloj2n/At0hsSxH6EUSSqigm+HNLRN1PFLk5RFU1FV1QqfIEQ3DXHRlmwpO7b0KUiLDJ0kFCrhFTdhI9H8sKzR4pSAYFxcjw7H4ZlEykRs8V3f56Z7yGvymEXd8mH7dVrxbGT6i3g+XogEAIKmLvDaU4ucJ8UbuA4Gej7qLIo9Zu1hJLe4mqx5SplfQ/oGJwsSO6FuBWc1rOkTynlAJglKOvr1fRCKJtsjsRMyX5Jl2+h2wqQaM0uv0t/MCUoivGdjccqXw31GG9c5mCjq8kc83XiVUg/Jyw/Q5zZsETzCttS1w4o+W+uGgZ2S7+TYbIh0jynDWlxIeYIQ0NvqR4GOEC2xy9M5+XpBcJ7Z0ylJL6XYKFBaPZsEiLiTF+YhtYeFzlY+f8vzdO0MoSPxyG4kF1wgSzSZTpDL0WB3hc+akiYEvPfI885KRKy+kFHCO9WaTCbMx6eMT+bkawXZKMN6h7E2Njg7gpJUEgK0tsVY2/27ew/kSkNgXRsu+RNOg+JUb5H4ilm6t7I3/8keSSsz7rJH4jxbOkeoFOx/2rvx0xQvSAKAYIC2ZZxtski2Y0kvk47q29FcZUpZXEX6FukbjF6nX31M3jwitWOka2mTLY6bPsdnFcPBEcnaLhd3Nxg1H+FFwuna1wlCs7P4AbnwJOmQM2N4Ulxi0rvF4reusf6Hf4uaLiiOJuRPa5pXLEeP36YMGjsMmJOPUIxhuIO3AVMbVKZZNANOpuukwz4bmWOWX46cAV9zbfbXbIoHnOVXsEUSKbzdovUhjvE2rm9FyzEfOhivQgi5ku0KIRBFdCYU9T0e9j6H9S5Kd51T1pm31er8H3sBoBK5Kt8bawgudN39QGtbrO16EN1oTiA64g6085pikIMFpxwykagiQag4l3fnsYKdTkDwARccLniCDKAjLFqE/5e9N+uxLLvu/H57OOMd48acETlnZY2cm6RY3ZIoubttWA82/GT4xS/+AP5A9qMBAwYMA0ZLNiC7QU0kRZGsKhazilU5TzHHjTueYU9+OCcisygOkiw1qqRcLzXgRNyDG+esvfda//X7g0ITKU0kFevlJ6RpymmdIoNlqVcxMv8NT4qglB2e+hWi+gHKL/8Jn8ovfnxhEkDmj8mqu8zTFfLqKao+ROoOTsZ4EeNUB6eyVvrbmHNa3cfLlMHsp2g7Z5FeYyrWIEtYzaFbP8Sllsjdw6qcZX4dL+PGZ0AEdNTBze5zpnaY5K/jZMryRs7ixg799z4hzBzlnWccf6lPtbXJyFfk9j4/3p+yJ3fojq5QlxWLszm9rT4+CeiuwbnAMnSpk4jgA7VImEfrDMwzimQNlw2oWjfctoh/MQvvgkemksHuCsvTBdP9CZ3VvHH2CYFMJqzX9ynSyziVg22szF44AQessxfUXdnqCISUWO8p64qiKLG27U2c/1w4VxOeJ6UXKr7jTw7ZfH2T+XLRkIpHKd31blNdeLlvSLNinycOHSskCiFemJEIIBIRsY7RQrJePadSr2OVolM+ZdF6H/6mEIBEMJdbLMSr8/9vii9MAojDkrjeowg9nEywskMiBNLXqFCQ1ocNkBNwKqeORtTRKlU8okh26C5/yolc4WRsyboRg5WYdFzgzDFFconipQET7Uty2ayaxfI5y/7NlivQACsO/uhf03v/U1hWTB8vuF9vc9LfouunfE2esr025lSvIaQi6ySkWiCihp8fKcnJ/ROUCsRRztn+ApVGHPVfI5s8xu0/Q/UN5RhUkqLTCCUliYqIVcTCVtCe/cvJkrqom2OAhFQnrGlBXhWcZm+SF8dUIcbJpj4QaCnCeBrB1Av3HestxplG0Rd8U0Ztx3kFLd1HKZTWF6YehGabXk4LrPXovDm6nFuMncd50fDFvzeipCiKCOHlWYJGElyHmjzK6MQZWSExziC9x8sMK357O08Gx5CSWG1Q8dsTxr/k+MIkgJna5ST9BlfMx0RLwePh7+HjFUQICBzCmxajHQhC40TrEOQrLClPjzXPjn7KaHeTteGIdFFidJ8q3sLoHpGdtAVCS8+NGYg5AcMkuUwRX/oMVWh+a5d6dUByfEby6SnpD55S/dEugYS6PMYO1rnin1JWczSOWC4R1QLvBZXqMlyvSKITerMz7g2+gdUJRkoY3kKagkgYBmsRTucXWgATPN4ZMh0TAGNNM1VYxwgpyKOUXtJlc/kTXLJBcvZjJmLIujniKLlBrbq44JsEYJoxWynCxcivaqv9aZygW2ZgM9WnyKOYypnGnShqPt8J0fy+0hB3Erxz6Eyhkxhb1NC6Bp2/8N6FiyOEkJI0S8njlKWtqOr6ojUYgkdojQ2WFEsc91naKdrAOHvt7/SsZG7Olh8z9Vewr87/vzG+MAnAiIzH3d9hzT7l6vIDIiF4Ovp3GN1vLjiHapyfUeW5WEXz6c9nfPnKNq/vdEhUTWbuEddHNERbQ2xyvIzwImlmDuoDkshizIwqewcbNShxaLiC9fY60y+/xvr/+yP0rCA5nCCcJw5L6vKAcfc72CDQvqAWEQu9Qa0SHBKkQmcB4U6YuZyr9g778k1qeiSRpFY5sTkmFUumcbdFa0ucd/jg6cQJIKjnJcWkIB6kKCHJdM7AjcnMPrUvGWc3mFlNakvS6imz5MaFeEhF4ULVd77F16KFjwgwWIxwBNX8P6UUiRQYb1m66qI2EXygHBf0NnsILVpzz2bC8OURY6UUUjd/D+89KlLEreDJVAZXN7Lj5rr4BfvfzJA6h8U+tdymFgmfxRj97Qje0vNLOgEeVQl1iH7j9f/S4wuTAACW8Raf5r9LNv5jdss7qEnMg5V/f9ESDD4wOZpQLgpWL60RpRGHj4+o5nO0EhTrX0VUz4mXJQjFPLvJpP+VVhMgCEKSmFPS6hO86lPMHiHlISraBb3Cxb5Wg9yVzT+tY/XDBwzuPkPdilmEmEokFFGLpQov7K+gecitlEx0jgo1G8uPePPsj9nvfo1kMcGKmHm8SWbGTS0ju4wHSu9ebJS9p5gVVMuabK2DUgotJdoZrMw47H+FmghVH7IIMbmfo2iGaiy+Yfm/7OgTQMq2oEij/nuZUTg3BZHU5DphZgqMDxfn7M5WD9e6+p4bfQIXCUZqhWqBI8SiwYC1vn+ecMEEFLKFkyiFkKJxEjZTZKcDZkLReeOloahfHd55lCkZsMCKVU6WfWz49bSlV/EFEQI10VSJZ8kV7vR/FweMFj9H+fIzV1lj0ElECB5TVGxdHvHu1yNsdxcvNLI1BJl23wQhkMESREQQjYlk7Ob0QkEpuuznX0GUB6ye/hlZ+axpJQZLx++z9m6G6DfVaFXU6KImBpbZLk6mcNFBf7HKpmHJoH5OZsdEfkm/2mN7/j5OD5G6S6kHJG7asA1EIMegpbjQxEBLFKorTOQZXh6RZAlJnKCUxnevc7r27yhljjMFG/OfsF3dAZmxmvToRo1EthMndJKsgX76gDUGZy2BgGz9Bs/DtyPDdctHvCgK0sitnHF42xYIf6klJ9rdw/m8f4Mea3cCvKgjyNYpSLaGo9Akc+kKhM4w5yrG3xIheBJhGYmKs6LPsb3KZ4oRr+JvxRcmAVirMXVMCJIi3sT70BaEXkzOCSlY2R4x2hqhRcXpJx/SWd4ldlOKdAcRHNotqOMN5p23CDIlq0+IvSXxFZEr6NpTos4ORfAsog1It8jdhK3j/5u1yQ/oFo+5Vf2cbOsdZm/fAiHoPzpg9eMndE2NiTdBSGRwFwSa8wJaGhYM6uesFnfZWnxIZk44zW5z0n2bo3iHgKBX75O4GZGvqGVG4Sxl24IL3jOtFtTOEGcJ+EaJ16j8DAbPInist8xMzUJ2Gr8EbKPsUxFSCIz3JDpmmJ8LZJqX9/y8Lnnh3kMI1GXDBqxrg7Mv/ANCCCxOF8wPpuADcRIRpwlpmjSEHyXbOsBLP+PP3YHA+Rc7o8Zt+MUxAQS5lggRYcPfTcYrgIyabjAclX0K1n7rz/xLj8/9EUCIgI4qpFg0clFn2J7+DWezwNP8NarQCGOca6Sw5aJEEVgVz4kupYSowyT7CsoXROaM1JxgbMbyYEw1r8ndQ6auIEsChpKlnFHs7FAtn2GKMdPQxYUbnMpNwtPHbCTfp7vzOkYITn//K+Q/uIM0lsHeGcwCszhmYEoKpSmlxopm0EUQ8CpmmlxiEa3jhEb7kiFLingDnKOWOU/632YWb0PweBnjW9gmISCDIFISJT3z2lGOZ0SdDPoBRCBI13p6CjpJTl32yOtD0AO0VEzrFnSKp3AVmUqIdARSENqCoMVhnEGHpvZQlVXLH/ScnUxwwRP303b1BqkFImkeIxVptNLESlHUzbTfeZvR+4ZN4IxFpUlDI6oN0NqHyab+4Nv2Z6ZiOkKAW1LqPlr+9rO8oPEbFUFS+Rc06Ffx6+NznwCiuGS0+oy8M0YKQ9fusVPd5c5ilbvcZssrXF1RHB+y0g+o2ZzYL+ikB8juTTwGXR+R1gdY3cNG61RVzOM7h+w9PcGUSx7ce4+tnR36vZjLGyPSLKO2a3x8LzA9OWI2mUBaMDmb8fqNKyT9S2wXJ+jHp1RpTGYsG997j3s7mzz+ygouz8ivr7D0c84fcEGg1ENKBF7IhpMfUk6iLsJBak7p2BOmyQ6GuBXbyItHWAjBIM8JxVPS8oAQErKRYBn1Lk4blauxwbMSdVAy4rFbYZJ8lfVkg8pb5rZsTEGEpHI1M7cEJVFSI1sGXyQ1Okrp6RQpBM9nR1itG3tyPCpVuBbgGRzEiUZlEt0Shb33FNY2MwrGElrGoDPN9J9obb9t2diXRWmM1PqiQ0DDLqEfJ6zaArs4okouEemMWEaNvdmviIvBJqVxQZDK+lde9yo+G5/rBCBEII6XZNmUKGr+oMPiObk7o3fzLXZWbzXnxmDoyTGdek63m9Epn+CjYbOCypi02sfLlLPe1xokmLZs7a6wWFjqquSqD3T7Qzqx5MrlHfBHlHqL2ow5Ppnz859+yI2tbdZW18g+eEK6f4R7fEjn/V+gTFNMk2XF7IP7HPTW6N+8SqcdBDqPgLxoJV54+rVae2Nrum5Bbk4bA1DfUnZpetpNnUKTVAd0xt/HBfBqwGIhqVROsrqKJ1A4Q+VMA0/RMXiHiVcI8YDSmUbnL1TTUTgn8CqJlopUxSRKI1vZcKw1s6LAxgEhJMKBTFtCsBRESVN4FTagxAt9QGMDHlrzkUYqTNsRUFGjOziX/IqWRHR+vVJNsTBSMR0MK8yY10tQA0Q0oCNzfJi/cBA+/27P8eZS4kMz0xDLV/2/v0t8rhNACALnIqyNieJm+9qvnoJdMu68haYmLfaRoUYPLEZvUeshiVgy77xOHY2QvqQ3/5jx4FuNSlBIrJCcTSaMT8ekWcrK2jrSV+w9P+ZLb2yhc8V4HFOfnbE7ntI7W/D24ccMdcTWsqRvKihrBuazD9nm6YT3Do648u5XKah/Zc06tHLcEAJKSkxlUL6gjDdYuFkzLCOgE2V04pyOGxM7g5WKnp3TTXrci25wZgP18QGmmNAbbtKVgoVzVARmpmRVaXZ7a8SdTTpJxsJWaJUgEIzLCSHUCNm8/MO4hxaKwhZYGjDJuLQcPDii0+uwstYjeM+iKljYJXGSMEh7RDIiOI9GEkWN209pSqbl/MUor1YvNP7nQ0QCotYOPITQGIGctxtVTC/qsFrcIVaaR8ktXIDcHOKjTZxOWZjiYsipCdV6RQZ8kHgh0O1/vzoG/Ob4XCcAgLrKmE3WqcoOOqqIyhlWxETBkc7vNORfGeFliolWGhpQvI7RfSJzRqe4T5FdeUkvECNCRCSnzM9OON6v2NkesZhOcF5jjSOblmz/6f9D9pcfsTmbk5xN6Fc1v+0U2pOSBx9+zNZ3v4la++wEmvYFHXNMTUolMnJ7SsgvkU4+RivBMn8bKxp7rFR4Ylvx6GSP+eIE60pKaxjEEYleZ/fSdeLUkm1EDOdnzKoTRmmH2Bf07JSJHJL5jA+PD6kOj7HBsTRlU+GXittb19nK17HOAYGD4yOUVGz0Vxt/PuFYmIKt3gZjpvzi2X2sd9xeuwY6IIKiWtbcGz+iMjXWW9IoRQDXVndI44SZNRftv3NrL2jaoEiBlKJlCLwolAopUEIRS81qmFASc5bfItAMeHWqZ1TxJQqhLhJACILgI4SqaSuNQCDSNVousb7zj/Qk/vOMz30CcE4zna4hhGe09hQVSgKBfnGXWfct6mi93VoHQBLXRziVI31NXj6iSHep43Vop9g0kvr0iOJkn3IxayW+iqdPDxAq4acf7XHj6iUu//FfsnsyQ4WA/KU5/INLW2w+3/9b99p7doCUAVHOES9hu0Xw5OaUfvWsKQoGx7B+xpwJi6THoPiEtIiIy0eIqKBfzpD5TbqjHerVXQ6mEz7c/5Tfvfl7lMGQRA04M1kfEg9POTl4jLAp25yykH3WpaWTrnGtH7HeXeXB7BmfHj5kNRlQY1lLhnz/0Xs459BKUdQlUkqejffpJDk7oy0yHzMWE6ZmwVuXbnE2m3L3+BFf3X2ThVmymo/IVMLh7IT92RFXh9usdUdESjN3S+bnE3/e41uVn7dAHCHgJZowbZuw2R2UtqTWCXH3KtP5Y0zWwweNjxXx8j5lPcHKl1HqAe9ivEsZygdc9wcMpOc4eF75APz2+NwnABB4r0jVgqvl9+iHKdCsksGe4u0ZcfkcXR8jgiNyU4weUsXriNBsr7WdYaIVvIiIhaMm5vC0IOmNIASyWDJa3WT78g6npzOq7QRRObT3uDRhrhU/Gw34MXD7y19iU1Zs/J8HiBCo3ryF2xiR//nfIIqS3/u377KzHqimf81RdAkBpPYMGSxH2e22RehZJpsgE8guUYaCbHGPuRoxNAdUuo9TXVQ8JCVCyHlTfdcxCo3WikW55Hi5ZL27QaUnLKI10nyHu/vP2emuEMsehT/i8WyP2tWs5kMidFPZ94ZvXfkymU55Mn7OvaPHvHv5a3gdKH3NStbnzpO7aK35xu47fO/hD/k3N75JIPDp4UPeuvQasYpY1gW1q+knXcbLKav5CmmaMvdLlGzO9sa2q387cOScQ4SmzShlC/64gIs4ghSY5TNMeMhe8galySEE0jBDmAllsnpBTPa+AZRIuUAGxW23xyrwg9kfsD+/gvW/2XPhVXwhEkBTDFyJH3MrfkTuc0ivci3PEf4QYWd4d0xdPaXUK1id03XHlE4zT3Yo9ADpa/qzD5ox4WSNRTHk5rVLXL68y9NHj/j6V7/McvkjxpMZK+sjwttbLP/77yI+OOT49VvcWVtDd1NuSbjz0S9493/7HiIEXJ6yeOcKIo3J26PmV76+zS9WupRhl43lRxgRs4g2OI138Sq7EMssGRFJSSIiZH3C/d67aFuQFWdUskfslvz88U+5e3rE3nLKweyUoi4Zdvr8F+/8XkMidgaHIKgIpxJcNKT0z6hJsM6xNzmkoiaVCeP5hCxNWe2PMN6ACPzg0U/oJz0m1ZzvPf5rLo92uLq2jQmWXKfc3LpK6Sq+eulNemmHWxtXeT45pKgrojTiZHFGHqfsrG3y8OQZh/NT+nmvOXW3Q0Hn6LFzVuC5DkDqVvHnXHMMCM0xACHJzRHL+pBZ9l2s1fTSY/LJQ47TXaTK6QhBYWuca7wEpbYgPWUtiZMRi+OKsdv5TBH2Vfzq+EIkgBCgjIc8YcBAdVgWZzxMv0UsNX13F6W2SNWSQIQwCxyOpHzCcHGHKtnk0eD3OV35N3gRE/mCnj5ifc2hfMm/f7vDYHOVWxs3Oey+ibRzLsmPEf/1dR79wVuMwwaDUrAqnjAaan73g0fklQUBdrOP+3JG7xf3QDSr0rI4oTP9gK4qmUWbLON1jEh4YU0lOOfsWO/ZnPwZZ3qLihyRdhkn30IET61Svrpu+crlf8VRmfE3Tz7k7e3bvL55ncNq3LTDgm9bjM2Q0vlKimiGey4NNsjznNoaTDAMOwMkEElNP+5xabDJ0eyU66s7/OLgAe9sdeimXT59cB/lJAj4ydMPeffa17l3+IQkilnpDTDWYqzBesfJYoL1jn7aJXhPaRqef20N2BduRCEEvLWI8/lm8WIFP6+WCiFReFZVYDb8HWqfk2dzsuI5tcqZ6TUkjljp1qqspCprkjxBJ5Ij3+WGnbAaL3lSWwKvSMC/Lb4QCQAEs8UGRZVCL0arCOcdzi0Z600W+S2y9FazbfZLnOpQxlusnv0Zl2Y/4sbpH7Nnv81p/hbSF2AOGKdXSO0plyLQ1X28eR9pBRvhlMgbjqqKEA9QyYhhZ0Fm58T7T+n9zUeN7j2JqN/ZIHlT0R9LzCghHJZEH4w5fPdd6l7KoH7GqLiHFxonIrzQVKqH1T18NES6OQs55CS6glaaPO3iRZ8QQJoptQk4JK5Vwb+xcYO/uPc3fPXaO9RVTWEq5uWS0tTMyjmx0MyrJW2eYW95TO4yKlMxrRZMqjnWWTb6azwZP4cAu4MtHo2f47zj3sHjBsM1yollxM/2f0FhKo7mJwQf+I+ffJ8/eP3bSKnQSGLVEIT6SZdHp8/Y6I6QQuBCoKorpBfNlCEvElPL+W7/qgKhVeMlEASRiojCkjVRc6zXmIMNP6QAACAASURBVIxX2BQPSMun7OVvUrqKrDUO8c5RjJec7U3obw/orHUY78056icsyhz/agjo7xRfkAQAzkXEYYG0M/q9XTZmP8IHwXj4HWLTnLGLaIWkbtpvQUjG/W9DEKwWH7O1+Bn94gFWRBg9JBaCUXmPbPPb1Cc/5KT7JdYWHzKKBZNigldDkrhDYh/RW35Cbo9JfjTH3qtBCKpLGxz+V3/E6tDBLQhrz+CwZPt77/OL//a7FKsDTtMbjNPrpHbManEfjSeWAmXnlDoiKh7yXO8ipCKP02Ze3zoSpUlFwlJsUZeag+kx82rJ08kBIKirijxKmZQzHo+fU5iKg8kReZxyMDvmrZWbWGvopY1LrgueUXdAbS2LaoGxNZGKOJqfsNZZ4erqDomO6aqc8XzCqD/EO88nhw8ZZj2eTg45nJ1gnOHx6R7vbN+mrCuMMyzqgixKuT7a4WB2yrRcgGwmAj00L3bUvIxCNmaksoWXBOcvLMnyOKOX5PSXB/SoOTSGSBT0Fx+xiDeYBY0UzY7h7GRGjSVf75KM8vZ3eNK65GiacmhXGkngq/it8YVJABDwKsV4g4pX6ZRLHne/gfI12s4JstliR3YCSOp4Hat7nA5/B69SuuaQLBRNz9pP6S326SkQweDKYwbuPnr6jLN0RB33UKrDsHqIXp6goj6ds4z6/7oHLhAizfjrt6kv98nDEwqvsDIlYfIr7lpQqz7jzhsI3UUJ6BcP6M0/ZhoSQpSQRDFCCEpbY70j8jXjYsGj6QzjjwkhsNZb4cODXxDJiIP5MdvDdd7ZvY11DrM0BOMYra1wujyjk6bMxZJrm7vEUjcsftfIbqu6pK5rtNZc3dzFOsvB7ISV4ZBOkiPqQOVrVKT5nZtfRSuFkoqd0RaEwLSaMTcLzooZTni0VjyfHjQrvBSMqwlB+AtlXhzFDLM+WjUiIKGaAaSyrqi9wRctQFQrbCTouhLX7XNyArl+RqcbcRLdYHlyyMb6GvPlgsnZlKiXoFVMFDVDRlGo+No1TbHIWUxu/Lap4VfRxhcmAYQgOeMyteiQekuIV5h3Xkf5irQ6wKkc4Q3azknqI5yMWeSv4VSHcf8bVOUTevM7GD1o2oQEqvkj5PM9ar9O7BbcO+lSbb9N0rnEbFyyIbr0TMRsnHDpz++RHTZ4rWK1z8M/fIe+mKLslH2hyNM+iTiEEIhmRVO4EOeswggj0wsRECLjcvFT9jq/g9AxQUBhG0MMETyVr9Bpyo3OKrFqKDvVecErNNOBe/OjxkbMeYrTJVmcoK2m080xwnJWL6itRRBY1o2pR6OahLqoEEqShIR+0mXQ72O85aQ8ozhZICNJvtJBS9UMXVmHcxYVBJGOOK7OSNKE293rGGNYlEuQgiiJMdYwn8+BxoykKzL0aWA5nVAWBb1+Hykl+TAjz1J0CdP5lLpYInqC47pHpzvk8NE+kkB8ZYenzx/x6OEjOl9/B9sXpKsZOo1fCIuArpuxKj1/tbxGHQb/6R/QL2h8YRIAwIl/HWc1GsdE9kCoFgBaUKSXCCKmSjaJzSnazUmrvQbzFTzaTijTS62fYEDZBadLjSsmuLUdrnYc9soGZngdqxRTe8BacHSHq5if3Ie/eghFo/x78gdf4Wh7hRVzBNJxutbD7K4x+OABsrZs/vAjTt+5hm/BFoSA9e5ixn6m19jrvIOJBgQhLqStUggiqZAhoggBZwsQjWKwchWVqRtYp/gs46+30qXf7SK1xHiDQBBLzcKXjb1XmzwCYJ1t+P8iEKuGrFyakqKqmuQUC1CC2tTUF7voBihqWptxqSTWLJktZzhrcd4RJQllbQjO4bxHCEESx8RxjDeO2WzG8eND0rdTQiQQXtMTCdJ5wtJSnC2wUnM8LRjt3KRePGFReSp3xOHeAaPOkNODMTrK0MPoMy+/CJ7N+hE+WmHf3vqnfxD/GcUXKgEoUSOxiOIZs87vIYInNmMQqp3pl1jVBQJVvI0INXE9R/klcX3EePgdStGjnEzJheTGsMewXzIWY/oyJ928jFcZIQQ2NhLW6hTth4w+/ZD0sAAfWPQ6PPnDr1F5wVlIqInYGChst+lhA4yePKdvTjFBUqkeQcZ476CdBfBCcxJfB/nZrz+ElmAtY0QIqHYbe04DOlfNvby9tZUhUs3YkKQxGY2EZGEqnLVNNf7FJxB8QEWaLE7IdIyUAuFgeTxHJQqVKoQSLz7rpc8LhIsjgTGNd6Bvz/GNqEhe7Hq00nTTjCxNSeKI8njBmR7T7/eJ8oQqMXgaGXBZ1dRVhasKnLMIleCCIs5S8k7OeDxmMBoymU4Z+JhYxp/BgYvg2A2nnJrXWPhXq//fJ75QCWBX/YI8gtpb6ngd6UuS+pBp9y1Cq/RzqoP0FV5E1MkmInhWJj9kkd+kpMvkZM58vCTpzuitpPR9SVLPKUMP0+IRhBCkqiaLPJ2/ekr9s+eIdujn/n/2dRaX1pDOcyxWuO8W3FJzIu0vus4jYfnX8YRKBR5Xx+zH18nsKRPZoVS9dmimYfJ9xkqbgA0B718MzCx82WC6jMGZZuT55bCVo5aGwtaUQVAKg5aSeV1+dmimRYvppFn1tW7YAA340xN3Y1Ci7cU3jUVnW8/Bl2zCOnlCN845NVOkUkAj6T1n/ZuWCKSVIo5iZBC4Sc3k4IzT4xMe3nnA7tVdsit9hBKkSYKzBlcvGXRWybZukWUxy+WS8WyBlIK95/skaYrXgQFrF9wAaBgJmRkzzDf52XGG4Tchw1/FL8cXKgF0IkAnqP4tNqc/YCG6mGiI1S8UX05lNKU3j5cJcbmPC5Kx3+LZx89QkWL78go79SPyKCXMxkSdKzwyHYx6gY8SOHh+CH/xEeJwDAHmu2vs/TfvMj1ekA0znE54HHbQ9V22vykIz3bo3J/R/S83SNKGxns2v8s02uKqKrhfLynVC4mw940Lzy/H+URdCC8ShDMWa1wrrw3UyxqpJL1hlyjSRLqx1g6i6QKmUcyiLjGVQSpBEqfEOsaGZjdhQ4PksqXh6O4hIlN0t/sX3H5BQ+8JPmDK6uJeV7IemU44CzOUVuRZhnQQxRFzUzQjv+1gjw2eST2H2JNtddlYbqCUYjaZ04tWWRRznj3Y58G9h5STU3LhGGzu0lsdUJVLinmBkpLbb77OW196k/3DQ9I4RQqJCw03IHjPyB2j8uscLTr43zqx8Speji9MAojjgiSe81Rvse0ll6r7PBFrLPKbJPURXmYY3ceLpLX7nhObMeWD9zkZvEPSzRluBvJUsBUecCmRxOYUISSz2XOcWCFJjqjiDUDgRYT59Aj70WNop/6e/cHXKDeGlJ8comKJt47CBZ7la0y3LeP/8Q/Z0rDa3eRy/ZC02mfgz1D1PfKkR6l/mVH/t1tVSjQOO42aTuC8p6zKxjgzBGxtiaWGqUUmEUkvIkQS1/p0KdEYfMggoEVupTptWoKCi6EcHwKFrfClRcSS7nb/gscHXBQcXXgh5oniiKDABNv4IAboJhmR1DjnOB6ftlw/iVcwrwoWT894fvcpzBx+btm+tM0HP/2Ad+o5m1c2cM4xGA7oak9/0MV7x2I25vZbb2KD5NmTZ1y9cZXS1gyHA3q9PgtK6srgvENqTT8bUU6e8sx999Xw398zPvcJQIhAkixZXXtCHg44i7YY1Pv0eq9xqt9oin71Eb35hxg9pEgv42WEXOwRnt+l7NwkJH2iOGJlvc+wesQ1P6GjNGb6HJ+s8SB/m4Xs0l3eZzB9Dy8zoskZ+v3HhIMShKDeSDj7zhZxWLL5xia2dkyfHLMSTenpBYtoDRsPOdQ5h1Vgdvac17o9emv/iqGvOa5L6nNHm9DM4ctfY/19LpPxPlDVNeWyvDi7j++dsnllja3XL2G9xwVHJBRaNXP+pa05pyRaZ1FSkScpQoqma/DSYFPpDEF5qnlFdeeQ3pVh40OQNOKc8zl9gUAlGhFrTqslWavmazyZPss9bCCfUTPrLyRXL1/h9vZNcAERmuvf+c6XiZKENEtYXVkjE55VUSGBqVXIxNBZG2EQ3L42wCcCIyyRUew92mfBknSUNxbiSiGzLR4dHrMQW//oz98/9/gcJ4BA8JYoXjBa3aPTPUVMl/SNo5flTJ3G6BUCkirewKmcfPmA7vLjxh9gtsfdyZtsvnmdfidFBEfH7LPpj4l0wnj6iFT3mYoBC72GlUmjKCwfMTh7j/z790n+4hBsoFzv8fB/+Cbx6pRL8x9znL1G7VP66T4dP+bE36aMtkllgnOWsq75efxVnldHdBfHDOyYXGt85ybnZprnUtiXU0BobbjqtmXnncMUNdWkREhFfzPHzmt0N2FWF0CD/4qjxopbSoWRTRKo6praNY67pTcE07z83vqL0dsQAg7H6PY6rnIsDmZ46xlcX2muabfyMm0MRKWUKNm88g3GS704oryUWHR7P3WwHIQxQQHeg22TiVYoInStSZKIVVNwiWNClCPtmJnvclKPqGxT+FS2AZX40rKwS2SmGtpw3IiD9OwRn9Tv/id7Mv85xec2AQTvscUhcbhPyozcLNH1mI2kg3ERT+JbL539BU5mVMk2/dn7YA1jfYOt128R5wkiOHrlY3bNAwZacFJJ6miNWHnmXhLXB6S+RrolJlphYW/S//n7yFlDITr+0k2evP1NqmGX7fl77E5/xDTZQccTHkw2ON1X9C8ZZFddFM6EEEz1FvNoA1s+JPKHKKGgnWX3rSZASPWZbasQzYvsfcPMF1ISRzFuaUhlxK1v38Jof1EkJEBNTSlovPacozB1M3XXtspscMgWrHluCqLjqMV0OaRS6EyTreXYwjWuvy3QU7Q1AS0VuU7IVEwiFIe1aVii7c27tuAolERHUcMFNI1uQsqGMhSkQGmNjltlICALOHpQECJN6HhWMkcV53ihQDRDRFIIZGiOLelqhko0UdK0Art2TLzY48j+d//ET+Q/z/jcJgAhJWknQoslrpwTyzMiOyakHR6pHZbx5sW10tck9QFhfkjlY2q5zv6pJkrGRP6MlJpb/i6rWc44pJyqnDW1xFZ71DJFuTlW9Zl13kC6mt7eHeSnFbjAcnOFp3/4NYrRkCAke50v06mPmCWXqPLbsNKhuzSYyjSgC91aaLcwzOA8wtcQbEPkfYm5H3wA+YJao0QjlcUHClPjrcMtLWsbIzqd5vgwN2XjsuM9wTmMb4Q+rgVheO+xxl7UEIQQiCDIdIz1jlrUuLamYWrbOCsJgVCKdJAhViS2NBTHC5Jh1hh9tnr+REV0dIJoPb7P2cEueCpjIIDWzXxALBVlm4hiHBkFTif4OCO030sIgWAcwipkNsIsn6CzmprGUKSpRzQtznpWMTmakK13iOKGPxj7gpt+j1q/RsUr8Mc/JD63CUDKQLcfGI0GKJUyrxWVFRS1ZZH3EcESWoto7ebo6pi9aQzdXQbJPsOVM0TsGCUjymKfk9Lg7Skz1acbGWJRcRhf4yy+jNH9to0YiM9OGfzpe6i9EjQcf+sGs+ubhLZar0OFkzGD8jF7va8hhUJKy+xkQTb0pMMMqRrEtXcxodbEzhEpQexmVKGZDPxlhj40tJxUaaraNNvz0lFOKs7p1i54jLNNYrCNwWcgNHCNNqk405h0nA/daK3IdcxKnDMzJaVSIBotvhbNUUQhiZRGKIlrUV62tETGIfTLRUGorKG0NbV3KASVNdTOUFQFgUCkVGNfFhrAqLUWfKDrJ0ghORMZxrezACKQ5hK90iTp2+sBIWc8pyaErEmkNDqFuqpBiRYiKlHBsuWP2YwS7hQ7r6r//8D4HCcAS5ouiBKPDo5R8RBHwoG+RliO6VV7GJE2QhYCVbQKK0MqO+PUReSdPq9vf4nN3nUmyyMeHyY8nD8CkdH3S06iNY6SGxiVc7ECm4r+ex+Qff8puIDdiFm+PsIM0ov7ciLlMH+TXn1wMX4bBGSjnCiLLiyxQFDNd0iKwLXezxn1dumKJXvlmMcMKNRLTP7z3+09S1MxP50TlCDupMRZQpRGBAKFbVDbpmwShI71Cwuu4PG2aY2dC3e0VsRxjFKKha2onSWLEyKpaQUAjUuvlHTjlMIb5nVJVVdEeYTU4gLi6bxjXpWE4LHBEwhUdWMmGnxA+GYHE2hoPyIIRAjgAiYoStFlpT4k1hVW5UBA4xnKM3qbnqV6DcOStD7Ge0OQTTIpTpYspwXZek6vlzRgUQJbdo+bTHk4fZsH0zcI4QtjcfG5is9pAgjoqCbJ5kgsw/I+192nnPRvMJaXObx7xM52zMnzI7auriOTnEmVkgwj6vmCq8Nb7KxcIxVd/vg//AnXrl/j9Tf+LUU9pZh+RL18yEm0g1Gf3Tb2Tn7Gyl9+Hzlvzq7l7RHTty/hohdz5VYmzONtRLvlXp4uKKcF/e0B4mICTeBMh3q6w5b8KZupp7ZTepEEMef5NGDiBJ1GL97/EKirmmAbr9w40sS9Zn6gxqG8wjiLKZpt9ctSWIA4lNRIfNvD1zpqimRKsnSNhPjc3kuKxporUqq5VkhynbBcVCyP5kz3zpBSkqYJcaYJ1mOtpVQVsj3HKyTONxRgIQRatE7DARZVgbBQmxrpmvtZRn2ksPTm+8jOCpGAQfDEpedQf5n5YkRf3AHpse3hIpKaZ49PSdYyhBIX7kIdd8YNtcQuh3w8eYeJvcyr/t8/LD6nCQCEcChlyM0Ru8XHrGjHcWeXSK2gB4Ey7aIvrVN3e4DA1xVgiaVkZ+UqW4MrlGXJxsYGi/mCXrrCoLNKzYTH5uRvvfwieLp790h/+Bx8YH5ljXvf/Q4nG1ebgtRL4YWi0Cv06uccF0PKaUl/e9Det2jciyZXgcCl7D2WyYAPFnUjU/Udzrxgvj9lsLvC85/v0V3v0lnvMdufEuURvZUunSRFKEnpaox3KGwD13S/jMSGjXDMDT3hjMDD9BpZ1CWSgbh6xpHvA4IgFFrF7ctvWbqaTMQksjHpPD6b8PjuU2zw9Df72KWhPClJ8qQxAXEBFywybpJhcP6iAChokN/WOrBNJ+PcCag9QGCc5FQMcDpmyyyQyYDKrDJNhggdcd19wI64x55XGKHbo01g5eoKIpEXOx0VDJss6DvLT+avM7Gbr8g//z/ic5kApAxk2ZxMnrG++Ji18h4mXqGwNTpWbN/cRklFty1gee8ZJpAtP+FkccTx9AarnU3SNGV9fZ3j42MAinrB0dkDltWUkHz2odF2Ru9//hlyUuMjzfj1K+y/8xZ19OulpR1zwnBji2zUQWjZHOulwJkedbFBqqasxhMKn3IiByxCBwjIgSRXNVIrBpdXEDaQ6Zgqi5GRIJIBrZpugBIJtXcUddU47SiJ9y9abp0w5800sC0kKglslR8TGU1fQpJknBZP0MBzucp9bgNQeYt1jmWoqOYFs7M56SCnvzNEJxFCS3xr5NFU8LmAeQgpsMZifwmJLpQkEgJT/wrjjnOD1CCYqh79wVW0XKG2GXk6Y62+x5XkCWdOsigXxGregFNcc5+RbBKwkILY14xEzcGsy5PiKpbk7/t4vYqX4nN5cBLCkyUT1qp7XFl+RCwlwtfsLn7Ca4f/K2vLnyGFb4ttgkg6etUDYuEQg9v84OGfsTd5DISLlcMHx7Pjj/jo/p+AnV2sXgDaLbjyJ/8T6UfPIEA16HD85ZuUo2b1/FXhRMwk3oU4I0obXb2UzTa4XmzjbUY3v083SyirKZVqdirVwjA/mhPlTTGrM+qwvrOK0JJkJSXLAl13ROyX7XfxwkxEiKZ9J1+SD+dhwZA583LCk/kxO7KmLwwmeFw94drwMltZjwSPEBIfPNWsoH7/I/7V4vvMxjPqyhDwRHlzLDk38YjzhOmzCcG1n53ErfmGv9iOw/li/8LpN85TdByRZxl5JyfKYqIsIc0zdJJQS41OoJPPGdUPuV5/xFIk3FFXeJa9zrB8SG5OsM7w+EcP28TTQD8Gdky/Ouap+QbTsPtr/z6v4u8Wn8sdAAHiasa6/QVSxRRopjbgQ00SD9id/TUdN2GaXafQI5L6EIFn0XkD5QWRfoZWutlCrvfY2FxDK00SpcT5Gj5Zu9g2ymDYPPlrRt9/hCs8QUomty6x/523fu3taV/Rq/eZxzvMD2dUi4rh7kozDLNcIy01N/P/yI7/P6jULQ4ceBTgsVWzcp5LbqEZbsIs6JkThJBIpfEiwgaPcQ7jmq1/4yQkiOIICHREwWW1oBcqQr7K+2XKj0WPSGiUq8n9GTfO9tlNEpJQ8DvVT5moIe/fO+bt7T5vjQbM1BF31Q0CAqlag1DChSw4tG3FRnTTAAiVUqBocN+haWOKtiqi4wgdRaR5RNL+DZa2bvh/BLwPzOsl3ahDIizrYsYsvcKdOuFE9PBxt00oiiRYBgPIwxQjBkTBsS4rTL3Jcb2O/5w+vl+k+Hx+gz4QTyekvTH7+WuMWFB4zXF2myrdRdsZVyd/zlbxIcdqk1l6mbPe1/EyJvNnrDHh6f6PWRbH/PjBn/PW7reY+w2eHvyYSOcs4y28aCrhneIBW5/ewf1lQ/Mp1/o8/s+/iemmv/LWBIF+9RQZHAZBupIRdWKCB2u6uMkGb+gP+M7oh/y5vcqHbp0q7jXDNULQ2+w3K+pLCcA4S98cM3DPOM5fZx6vEYtmJDgSjdMNtOPC1hDFESkVt8URu8pwZDWpkiAkRUiZuUAgI0KReMMqgSt5j1DX+OmUnas5T6IBN6Z3eauzzWk5YaoGeGi7CIGAJwQYXh1hKtOo+1RT5FO6HRhK4ov248X3IwRKSJLWidh5S3C+8RZsk5hSkkBABkft4a7RHOgVfGhghvNog7O7z+mtea59bYvV+hFn6godajaE5Zn9Emfml+cqXsU/JD6XCUCLki35KUYPKFUH4Re4ZJPEjMmqfYrsMs963+LKyX9gxT3D6T7TYAlBMayf8PbqkMenP+CTx/87vd5rfPj8Bzg0V+QZN/oDnrYvVGSnrB78FP6XjxvUl5KMb+9y/OXrSAyRLZu5QhnhRIwXitSc0THH7HW+1Hj0WU+9qIlzjXcbXPPv8frgLt5XHOtN5jZrHGslF1vm5dkCFWuSXnLRMqxVFytSCjVEOEvdFvtE4GKsV2nVYLatYVXN2BYL9n3OJ3JEqGtmIicIhWokDXgUj8IO42pKdzKnfHLMYVhBXN5FqoSPXJ8/jBO+Y/f42Nc8cSNqkYAQ+BDOQcdMn01Yf22z1S6EdifQFgB/lZ6hTW7GWZZ1dTEijGiONGmUoKQkqk6oFo85zL71GauvgMAQ45IupVYsw4he9ZyB1ggZM14Kal4x//8x4nOZAFK1YDN9ikWhfYXyhthNWcgRyo4ZnX2fKlpnqlZJsAyqh5jFgKVaYc0dMextIpOarWzO3nCbrPM2Asfm8g5ZOCOt97He0Rt/RO9P34cHCwhgOwmHv/86OqvIqlOi/4+9N/ux7MrO/H57Oufcc8eYMjIzcmJOZHIqkjWoS2pZQ7chwLBkNWA/uQHDL4YN+J/xH+BXPxluo9s2LHSXZUstqUvVqpEzmWSOkRnjjTudcQ9+2DduZhZZcrsmZgn5AQRB8A7nnjh77b3W+tb3+RIv4nHciQREYFjd5zi7GjkIQlAVLfO9GYOdDjJo1joL8m7K40JSeMP4/jGjS+urnv2pMWg1KTEdgzLLAhdhlc6e7qICEXfF5doQCLRSdJlzJTymESl3w4hCb9AGh/UWQkALRaI1rbe0TnCiz3AY1liYEekwo9vNUVqxy2tMix+Qqg43xYyx7TJGE4Racv0jm1EgYvuxjboBQoqfOcgEkbBUNFXUK3RPFj9EleBukiN9S795xFx0eLqcKBAoIeiu9yJlWErG2RVE8AhRMK0WnLTdF8f/XxKeu7sopWPY38ckgYnaIGQ7+HpBnZxhnrxEyK/TX3zExvgvKTpXOM6uMWgecmb2fUII9NdeQbqS4+QiNu8wz29Gh+B2TM9NaFVC8DVpe8Dgo3dR39knTOMjOHnlPO0tQ7/ZpZE9JukFgpAYV6F9Rd4eIvDMzWaU7paCpJswvDDC6JZR/UPWs2Putw239Q3KQkZyTuuoa4vpJLRlS3lSMN+fka/nKKMQeEb1fQqziRbRsFPJOE1XNw2Nf8L00xrOUrBtDB/5LhO1RiCScITQ1K7BYUmTHIGgWTS0tScfdkjyBNsstQGXhcR/X6+RWstFWXJezGnblhP6CKkQiUAKyWBnyHx/Fmf9dZ/gA9oYdKqfSWVO0TqHrRuc9ailAUgkJwUy0yFRhmF1m21R8MP0wjPvNUphhMINlwpLy49XWNJmj+Oqx1hc+MJ3vsDPh+cuAChl6QwKAiNqsYnUA0Kj8DLFqh5BSCb9r5E2+xg7wakOh7238GXGtt0ly89hF3dZJFdp1QZeZojg6fg5XaM5YMAku4msa8KPAuIw0mZ9lvDZn/wO8+EGTiZUerCsE0CtorGoKhsKvUFAo6REEMgzSSd1ZCeH2OOCezLj0axHkY1QqWa4MySEQFs06DQW74QQqCTy65Wv0b4hb8eMe6+S6khpbZyNAp722RFeLTznxIJWJOyHLm55jWLJmVdIrHeE4JFIaAL1SYHp6FX3wHuPQoOA3ew6xld03EOuyAmuVVSktCSRskxAKknSTwl4XOuopxXKaPK1PE7l6cgADD6eYmzdYJs4iRgimRcpBIlO6KddcnvCebeLE4bZU/r9SkgSqfF2aV++lAwXBAZ+wUZouR2uUoYX+f8vC89dAICACgssUHUu0iHKWT/d7vEyZdJ7k17xMVbmKF8yTS+ykXYRpoewcwb1J+z2v0UQcaE6ofCuxeioIZd98Ij0BweIMp6vj/7x1zh+6xZ18uWdUeUb8vaYw/7bdE0XJQSZn7HTPGAkGg4yy2dnNjnJ1xDCYHwgqIDsJHFIxsTjvjIKVzl0ohhwxKg4QPua4841WgzBO7wPceE/tfOfQgIZkv1dVAAAIABJREFULa2DUvVQRCMOscyvtVBorVZ03SQ3eJ/hWotINEJA27TxeL0k6zRBsxuGbFb3uaENZ4TjA7Y4EluR5qsEaS+hrVuCD6T9FJMmLA7ngGB4dogvHbOjGb3tHsbG32mJk4ZSCvpJj2HaJ3cn3Gg+BBwf65dZtE8IRUZpZIDHdw+QPU1nLZK1Ul9ywz9GhAscLa4R3AvHn18WnrsAkCQFo+Y9rH1IM/wDMnv4pRLvTnexuo81Q0z1EBVaRJIQmhOmXjIqPmaWnKfVA5LmANEeM/WaTqjoTsf0/+qHpPf3ospOv8ujP/190t4Ab+vonfdT6LYHCClJkz5aSlRwnLN7nA9H3PNd7qU7VJ0eiemQKh3luJxd5dCro2wQNLOKfjJnzR7T9q9ifc1UbUQPAWdPJfi+/P7Q0hWWqQtgUrRQeG/RQpFpg9dxNkEIqOYV47vHDC+uxfadVigjopTWshZBiNJjTiQk6TpD1dLWcwLry9fF7z2VKEOAyRKSToq3sa2ZeA3jwHrvLP3eiM9/9ClrN85QpDV+aVPkpy1parmo79KTlg/FOR7RIciaZMl1SKQCDyrTCKMi21Aren7CutJ8Ok6ZNlGx6QV+OXiuAoAQnuHwMb32Ia3s8oSn9MU/+OkCsapHlZzhzMlfYeSAIBxzUpRzXD78V/QWH1KYTRq9RtOckDcVZz+/g3z3PVQZtXOK188yf/kSWqo4webt0ozrCebJNgM3ZrP8hNROMMqwo1rGaoNPwzaVzACJXk7aWedwzsee+fJnSCFIlGHjwpCd+fuU3VfwnXNU1uK9JVU6BoBl1e8LLTYCrzY/RuZr3A5rGN0hAK2P04GJzlBG0YYoNGJDQz2tCS6QdJMn48FiKRcmlnyEIJBo0v41vJ/zebPgWGwsrQ0iF+CUgrx6fwirgSEBpCbl/kd3eGf0DU4eHXP23DaZ7lEkDYu2ZPez+5g0563XBuyXYx51L1I2c5RQNM6ipKB2IWoYdlRkI3oPDlpS8FFu7AXt95eL54oJmHVm9LvHmGyTyeibhFMOqjilmTxZEImdRo89mdAkWyz6r+P1CHzD5uSHJCLDBzjX3me7vo0JDfvDb7M3/H3yjyz5p49jxfydLof/3T/Gp4bK1VSu/sLihyjlfdx7g4Bgq33Iy5nCessuA1rdJfBkNPdU7IOnFrAgmnK2ZYOxE2wyxKYbtCHQLBeskZKONkuxD/eFa1AErqxf46FPaXrXMDIq7xCgqmrwnr7OVhV63UnYenkbZWRsHy4pxEYp+lk3KgMrFRmVvoL6EJMMeTmpuW4/IZMWqRW2tTEn51SwJH5eWzWRkq1ydi7s8E//k/+Y2WTK48eP+c7/9h0++LfvoqrY0QjO4suahR1Sjf6IVHaRQkUhUwLWe4qyYnJ3wlm5wY3BJUZJHxEErejSeM+ZUc7V4ZhRJ/AltccX+DnwXJ0AlHQkfsJAtIzTs6x2/uXaP/WWhEBW3WfWfRXlStLmgH75GUme09iKCsVk7fc46F6jM3+P7epDLi++RzX/AcUnQ+yf/RBTNog8Q721RrWxTSDOuvun+tE/DSE7THu36NvPOPCGDzrfoBQp2JrTXp31HoJfmWOcVsmlkAgfePzRIzbMI6orW7QYKtvglso+zgdCeNYxd/XdBC64O0wXc+6o6yihSaSK47fOR25/29AL0QTEWcfh7hHpZgdnLbaxmFSChDzJEBKCC9Ge23kWTct+mNHLN9kYXeNlbnMYWsY+eXYAaXlq8N5jtKGTZYQq8Ld/+7dcuHCe2x99ihSSt77xFpPFFCUVHdOhIxTvf/QZj8YFpA+49OZLpCNN41qUUGTB4FvL2jDnzg9vU8wLbr19i2vnLzLbPeK2fRlcweTwe3S2v01tNqjaZ2LsC/wceK4CgA8KnEc1+1FFRy3ZeEJwykqRocHYKcZO0W5Br/iEIBRe9wBBaWv281eYl3O8HjPt3mLavUWvvsfm3o8Z/d334GEcDpLXt5Hf2iERc37W4fJ03k2K+M/ATsnSIbve0MoOp6a38TLja6o2SomdSnIFH2jbhrq1dLs1gywQkhEIjQwOuzwxFE0VnW+fMuVQwdKlpqPgpij4gC1ctg3Bk6KREAVAgMI2zNua1jps0+J9lAhDsGLyKSkJAuq2wbv4Ouc8Xg54V2ScjPe5pBsGEs41R1jXYIPEomJFf0kHFgiyxCAFlKbm5XdeoT4ueOtb73Dnk89JTYJWCoMm9Z5pELx88wo777xOoaAKLdDgQiCxmoOfPOThJ/fp9brsPd7HWUdVlPzTf/ZHzKZz7ty/z1uvvISWkjPdhnW1YHeeMSkV/kUQ+LnxXAWAqupiK01S7aPrPUgTXAgEBCLEib2kPSRp9mn1EO1mnAzeQgXLsP4E7Y+wrubIfJ2H7TvstD+i377PvHuTSX6L1nVQn39Ktz5EDLqYP36NdrjPldnfcJLukOo+0sUCYEw+PEJoEJJEGlJl2Jx+H/o7TCti4AktLnikEKTK0LRtdLeRctV2s7Vltjeh29dc2TzGq5yF7hOArslo7TwuQp4sfIEnDwVnmfGSOCLTPca+xzy9TghQ2JpJWWBti7U2VvW15KhcMH00IThHb7tPWBJwhJBLBSGihJiLImJSK5QxJNqgkzX2wha7zYLr7hFXwyPOs8+DZIN7bcJYrK+Kh0LGYOtKx2Yy4u6Hn3HpymXSJOHazasIBEmekhcG5WtU7Zm4wODBISJJ6eQ5fs1QhAqJoK1a0jQl7/W4cq3L0cEh19+4yaE4YfP8GSgmnN0asHtSUs4OmM/vkgxfRcoBX5ItvcB/IJ6rAOCdpqkMxk5Q1UO0DzgV+ebKLejYewShmPbeQOAZzH6MCJ6ARAaHCI5Gj5jaHdCGsneVpCrI6kfM8yFyWpHc3Qcp0e/cwF1WPMzOs20fcX72d+TZJfAN2lu07iB1h4VcY65HOCSKQFdC20wo1eUnclwEEqkRIYpjBlgqFS09QqUgH6T0O1Ego5UJtbOkKl2+5tktzGBZD1OucMQZ46lEzqe+yzjZYdE6GldHenCIR3ghxYpw41vH4nhOd6O7XPwRgVjF9yFen1AyfrePk3YeT920WGdpWs/HoseEbTZlyTudlrVizMcY5s5Es1BpaJtT6fBAvtHHrKecHEygCZEvUDekWcGmOeH6y9vs+5RGWHL7CFyO9eur00S/16OXdqmrCp1ogl/n4pWLVKKlnBUcHRyz+2iANsPVhGTMY349z+Y/VDxXAQDA2fjUlnoN0xzREQ5FSRLG2PQGZXoOL1NE8Fg9IKsf05o1Qn2EzRISpenICpFNkcpjVZ9OeRdyT3t2nfKf3CR9eAfz+5eZbGj2+q+ipg0bzUN69hiJw7gCkW6gszMs/JhdcZW53iTxBb0kp672qHtvxlzbuyf9dGdjPr+slBupmJ8UOO8Y9hwju0dp1pmbbZxQEGIF/+kjvwktF8WYa+oYIeBe6HGszrJQAyobdQGeLlKKpeLuqb6XUIKNa1FE0DUOlTwlZhKi7JhcypKfFgW9izWLqi0j98AHTnTGXGbcFYGk+pSRhq+Hh5Q6Z0qXYxs49IqF7DN1c/S64u5sl4tDyU6mWcgRJ6Windxnq/uYk2yD3ZBQopBWMFi8S9m8hZQJtLHar6Skk3dYLBasb65zcH+P7Z2zHNTHbG32OCkl3bVtFmU8YQUUP7ti8wL/IXjuAoBoFD4z1HqA1yM67WOEF1g9pE428TIKQAQhKbOL9OfvIYKlEDklko50rIVdZliSxSFJe0y3uoub92DYRf7JeXTZR57tcpKtU+lN7ve+Rc+f4IUhoBChJciUVCm2w4Sd9h77viZ3YzqyZFeM8ELTupZ22TJsvcMFv7LVOlXjPbl/TL7VJe0UyOCYmbO4099AoGya1QkgCxVX2eOidjRqyB3fZZ8+QXSwbYtdjtTGG8WT71n6+Z3O5evMUBwtcHVL90x/9RohBaGNAcr7EJV+lnDWYVsbtf91pPja4LFB8Hf+HOu6ZqQsAyq2xAnbRlBqw9wXHNUpMzWiqyoui4J16zhsMh4e9FH1jCrMeTwxLHoJqtNhbjZJuUPe7FNmFxEe8l5Ob63H9GRKUFDVNUVRsHZ5k855w9Wz2zzYz6i9oCgK0t4mJcmLIuAviK8+AAhPPKsKhPB0xRSrcpzQ1HqdQoBtp1jVXS3+FYInaQ8Az7RznaG9y7as2ahv492cOjnDIr+GDB5tZ2hV0xu1pOcvUfnAXK6ByimylDL8tLSUQItAcCmX7AOu+fskSjMrJzzqfBMfApWtV1NsnpgXi7AcxSMe/5NBRt7XJH6BlQleJmi5ZOwJSbEclpHAhnLckCWVGnBfX+DYJ/FU0cZyt5ASreNcvpKRfrsyABVPTDqFfJLvr7T9T/v3p1N8y8YqxCKisxalFHnWQSiJZUkWCoG5HbEIll3ryZQnFy1DKjbEjDVVc67TogwkWlBaz5gOdjYhjHt0h5fYn02oegofJKFokZ2EiTnLRn2HunOJbJDhjGHhG1SaMkr7Sy1BmJkZF+qPWDM5e4Ntjtp1xOgsc3LmjXoRAH5BfKUBQMiWTndM3inQpkEKz3b5Ho1ci7uxkHgRq89AbPnZx3Tqh5TpDq1eY5beRNiKWg5Z2BanLSNK9pIRjVmn3x6wFsZ0lEZ1LtDtfw18RTG5R0gKlAi04cnM/dOwQAgOKQRTtU6LZCQnXLL3+UjcjH58P/2eeg2kRekZ+3f36Z/r0pNTbOhQ6jUg9sW1VFH73wcSEdhWjhthn9zkHIaMOQmNj+08BCTGkGoTmfWnY8VtHWfvtXmicLT8V9Op0aleLeIosU0UEz09NbhoFOKdJ1GGM/0hQQqmtl5y8GO7L0kTfNC41lJIRaMVtRSc0CLaOVmouNgccrN/lQ8etiQjzXZ+zI3tRyx6KRNxA5tqDJr53hT76B6jwTH3J10CRxyIKnoQGtCJRumAVILyzpikbmgHh7y/+Qr32stMig0IGucjl+kFfjF8pQEg68zZ2HhElhWIZZuvX+7S6j5BGJRQaGkQQpK2RwzqeEyf5zdp9YDWpczcLdbt+6TumBpFaRv62SZde0JW3OVar0dIc2wzJZ1/iMw2aJ1jbM6j7BzTHFPpEV/GNlS+YkDFwjnumS0q2eOqv8PZjuRes8dYPOtFH4LEB01qChaHCyZ7Y3bOtwybhxx1btKoqC/Yek9ra1rbkoaCV3nMNeUhWO42KQ/MgJkL1G0TrcpNSqoN+ikpsMa2tNZGMxGh0MtagAASofnog4/ZvLYFyxpALAD6FY9CopBINBKVJPTSjF6WM2kKXIinikRqamvp5jkLW+GEQC55DRaFRVIjCCGncjU3qkdses12O8PmHQ6SHLTH6Q1q15IIyWB7gD4+ZHF/j1mzztW1O5ysv0XZtJGTIAIiOJJij2E55Btv/w7/8t/WpOk3KKYvEcJXf2j9h4Sv9G4abTGmRconobyRCUn5mB3+hiA0OS2pbKhETtl5nTI9TxCaRdHFN54t/Rk7zfv0T8YUQdOaHvQu0Z8/orAFQq7xoJjSp8F01qjLQ4RQlMk5FskOafmARZ6v8vIVgmOz3SVpHnAvvcaEnBAEe2LI2RAY+DmP1RAfHCq0eKGpyvNI16era1wv4fIrA7aqD3ncfYNaPRGw8MFHC/AQeK38Lre2XuZgMeF2col9MyIIQ91UCKCXZCTGLLUBwsrau3bLYSEZrb+UkEBAS01TNFSTEpU99ecVrAxJvfNoJHkvR4Q4959ITRsc86qibhqSxDDIMsZNi1YKmiduRkEQax8hdgC8hyO2WIz/nJcu/EdMFikfzIf40RBjj2hDrJMYpWhti+utoa++yXo2QDWf0wa7SmFCCEgcX9MnfNgs+N+/8++o+9/Cza4SwrPqzC/wi+MrDqenraknidynm/8ZKZ5EGgTQuCNG9cdUeos62SYsx19TOeeS/UsuqQOytYuQvsXIlVDvI0xON5RYN40txODpGc1J2+LUFsP2EcFbarPBoPiUjfJDTjrXaWWOC/HhHrb7nPV7lPkl5nILv1xgk/wGfv7nnNPbHAuLcodcbu9wpDf4uLqA6pRMj44RHc+l9JjzQWDCCcfOUgdJqQY4Ee2/lZJc7o6Y2JYPe3/INBTUtkSEWOXu6NifF8shocLW8V4FIlV4Scv1IVDbFhEgSRRr/R6Xv311xUIUQjxj/Q2glVpafMf7b73HeUdr2zjmnCQs2hqVGOLowLLWsexySClpqoa2jqSnTGnGokNVl7zXXGZP3mJHfIgLsW2pVRZty5zDiS6qP8SEhtblS1cmu0pT1u0+GRq23qAZ/S7Ka/4eguYL/AL4SgNA5WrG9RTlotOtEIJEGjB9pEyQApzPCEvGnPJ1rHQLyTDscjGZk+aXmY4/Zh4eYkzOIBvQMQOGw+uo+m+Q9RFnwpjGXOcxIzZZgJVoX9FvdjnDnKGUzIrv8Wn6KseiS+MsfUry0HDowK3Yb4F+s4/SHdazDm8XP8HLhGE+5Iybkekf8r07KQtR8tqlhrezEifXWLdHyHDMkcj50DkK1SWhJsGRrL/J3ngP09WEOvL1HZ5MJ6Q6AREpyou6xHmPMnrZ0z/N52Mh0BOiZVhj2VscIbIni90ojdJq1XIUAYwyOO9pbEvjLKk21G2DI5Cl6bLI2dJLc+omLvToRmRQUi6lvpcDQggGScLQw372Eq3cwMwsIHCuwYkaobJoa/bMSvYYF9WPQ/wgpHCco+Tj8evcqX93qUnwAr8qfKV31zlDWRsUMxAOgqLxXaTTyI5Fy1iIczJl6Ma0ix/SkOB0j7w9IE17zItDdsU6i/wKVXqOnfn3uVgeIBZ3yTvrsLiNSreoi4cMUuhJh5aajeY+UjaQbrDvHLkRnK0+RYo+tVlnU1S0us9cZHi5dLMNlh37gJAOuTufkKebdCTcrUrmM1hPD7mxmRI6gZf1jIna5N3GkPuCl9WCXig428xxZkQuYSg81WTGbrhF4yyVbbDOrhxxQ4jtxaKN8lrAE8ON0+o+4glTWsDJZMZsb8b61Y0o5S0VgyT6FY7rAtdajNJ4ApVtqJoaEVju8g6lFQhBZaMzceta5otFNByVsXKQKE3bNJERiCDTCd1qSiHOUs4PCGaTYC2iPqb0FqclIoSVPNipW/Cp5mAIMXgFH1OrTWW5La4tlZRf4FeJrzQA+HqDNrwCvdvIZIxvNlD+DKZzSMARkFQy45AuF8MxA1sxE32kCPR9CVWBo4Pqf42+WxD0kGBGBCGwxQOETKn1FoEELVq27D6dzhZWbVKLwEH2ClNnmUuNaKf0OGLLn7ApAiM/4yQoEJ7MTQGBxCODwwnNXnKGKR2Ma2jEGR5PDujngldHY1I/4644w2O3zlx3mYQaa/cYugkFhlIO2U82yU0PcWSZd8+AP14x9EIgOuuqgF2aeJwiEFfr6WyCkRojo+V4KyShG/Cbka6rknjMt8HHbkKIdtsoufIZ9C62Duv2iQbCqY4BywEj28b/Toym28mxtqWqIyEp0Ya+6dIctHyW3OLE1Zgtj1w8ogq7HHXO42QGS5MPIcUzvgbwRGsgEQ1XxRjRKMrmxbjfrwNfaQAI3hDqTdqgkWYMKLLRCcY0aKGRhWc+s8j+WYxqyMWMeXINk12i747xxY/J9Dqbncs8vPcxi/0Ddjb7CDPA9G7SJDvsto4qWIbNhwztnLodMTEXOemfYaKGnPhF1NETPSa6w4kf0boFQXZI/ZSr/hEtOeCQwTIULToZoIpDTuRLuCpgUkNy9gxOWfbsmEpfZqbPrCzFWtHhkbnEIx3z5xAE2mqEzAh5js6mtMt5gnhjAlKq5Rp8Msa76udD1C5QCiXkcl5iOSylJeXxIkqCrXWpfUvrYyvRe7+sAyzHll0k/2itnxkMj3qBAdvEcWCdaEIAkybxe5GYVBMk9ExO7hWFsFGduZozKBKGyT7TbJtGdtBCrsabn+YiRN5FTGOkkqz5gk2jebxYZ+H6L2b/fw346hOsIPH1Gr7tY3qf0+pd5tawwYC7P/qMydEJ7/z+NzkxKQPucs4+QorzBH+O//vDu1RVRR3e5cP3f8J4UvLOazsM19ahldx66zrZKKOZH+OzHq1b8MndgnuTBZe/1iPLUwbW0XhNpVsKVzHXQ+7INSZUDMWcoZug7RwvTq2zFU09YR4yFsdzqlnF6MIaqmNQ3rFgk9Ksf9FP0MfmmxSRd6+FQgmNzwra0FLZFuscwXm0UqTaREOQp2jCp4s/1QYjIwmmcS7m9sHTVrEg51qHa10kBikFUqxGjFeqCiHglicAJ2JatPoOKeJnWItUCpMmS3cehS8c/rABH1BaEXSDdRV2cUw56KDlDt1yRlVBtnWBsp2hhaLhpyd2AtpX1KqHQKAkrEuLbk7Ybd6kDl1e4FePrz4AAHF70tjyLM28RKZH7D9+xKfvf8LNt14hyRI++sk95hl88yWDXvyEE/OPmJWSxSLQuJLD4ylH4wVHs/ME7QhWEGzB9OEJ/8u//De0TQ0+sH94wvFkztnvvk+a57jgyfKM3/sv/gmlrvHBUwXBVK9RijWO1CYyWDyKxM3YEJKTYo9Z8k1U1tAxOdIsxTZlytBNUSIwNU+YhSsyzlLlViKXO3GBw1PZhtrFACCFiMQeIaL1dnhq91/m/YnUuOCpXRs1BJbdlOPbh3S3+gwurC27BDxxERbLuYHlZ7mmXaUF3jm8lFEYZBlkTk8e3jlEuhTuDAE7q3n88QOcc3gPg36PgapxzvH21es8ur/HKJ3wwaPA1WtDgvUIJBPpcdKvdn8ZHGvVHabpRSCQ+YJNuWBiDUd2G88TsdAX+NXhOQkAAILQ9vGzm8jpJ3z3O/+aXi8nz3P2H+4zmyz4m492MWzxzkuSkf+AN1+9RlF7hO5h6xmPD8a8/bXXOHv2DMV0j3V1j6wj+N3ffoOjIkG6gof3HnBwOOalV26R9IYgoTfsoTJNaONicyHuqkqnS0+/uGv23DFpqPhklnJQTemc6aP0E4lthML1brBV3AZ7xFRHnb+VaMDpEV9AHVp0NcabLtZHVR8t486fKEPV1qvcXwgRp/dOx4uDp16eGNQyDQgh0JYt0khMR9OUsSMgpVoGgVgpPGUROheHfsSpp6GST/n9BaSQBBO7B0pEpWFbW7SVTE6mVGWFVJJyckwY5oQkR9kulIe0o028n5CJhPmDCQQwFzo0yp7+pcnsBBECtcoRwXImjBmEkg/bt5nZs4TwXIlV/YPFcxQAAAQJKWpa0O+coZd3efT5PsaAVIq0O+B//rMPWf8v/4irw33+/C++y3TR8vrrr7O+NuKlyxf40Y/fZTa/xl/99V/zx3/0j9i+LEiHPf7sX/wrbLlgPp9TVjWf3NtD6YTN7U3+9J//M/bcdJVH+xBogyUJBnk6ehoCF+rPGQt4aC6RjwZR7++pNNUHT6OHtMO3uXr8Hd4XGZXIl8q6crX4tK/o2DGjxQPmG+9QeIUUkm6aIoWkbhsWRYknoIyK9QAZpws72kQpLRkr55nUpNpwcjxj8+omKl92LJamHiF4QjilDz/FA0gMzlq00VG7QKnoA2gdyihMlqBDLPJpIWmaBtdaEClZlpKmCWVRspiecP7lHSY2i/ZoUuKWHA4jFPW8wofAgKeO9CGwVt1lkWxgRUrennApDRTuPA8WV2hd/1f5kL3AU3jOAgBUTnL+0lv847VBLGQpizQlQjhCMPzh7/4B58+tE47+D+rW00kVWtQ83j+gKBecTCaM1gYYrQjFPv1WUjVd8I7/5r/+Tznae8TnR4Hrb7/OdDznL/71XxDckyLaKZ5W5g0hMDma8JfvVtAx+Fu92C77KSihkELhlSL1NbDctZ/aeVM3Y2f6dziRcKhfo3YGKQK9NFsJfZR1RdM2SCnRqSHVml7SYWQ6nDQFjXe03qK0xijNbLLg/nv36V8c0l2Kf6Z5uuIKfJl9l5Ai5vacdh4CTVkvR5OTpZy3xHlPG55oAkKUOIdAnhiuvn6NTio4GVuCj0YiSqjlvVsqIuOXrcqomxiE5KBzk4uz71GoEUPZMHRjPqv7zMMGIbwo/v268NwFAOdhcjLhf/0f/wfSTgelTi8xMDs54r//b/8r9Ll+lA8TgrouKIqCjz69y3w25dbNK0ynM9rWYrPL5PX3SMIF8m6HC2cM6WyXMa+iNjp0lSRNE75UdThEZpyUgqZs8Crw7VcCM53w4y/RodBS0zddOlIyWHzAkdqgXdKLn16AG8UnJLbkwehNqmSEQJCbBOsdlW1pncW2S5qt85ggOJ+PyFRC0dYcz6aIJJKBUqWX6QFsvnwGlcYTiVzm809+S/hCEDitKYQQj/veu/g+rVBGr17vvcdZuyRCLX+rif4FB7u7zA4fcfWV1/DB0LSaOx/fxn7ygPv3H1AsFuw/3ufsS+dWf8NTtDrnKL/OxcWPOKccTTLkYbFNY9e+9O/xAr8aPHcBAOID9tqbX+e3//BPECbaRWth+X/+z/8JZELjJBl2RYntdTucO3uWaaZ4+cZlNtaWQzqhxg5/Gz/v4VE41SWIBBk8qnFUi3KlmffTcMGzsGUcAT6eUSwK9Iann4IkrGraUc3X0E+6dFRCv/iI1jXcz1/Bf8lOFtDUdh3hBJlUBKFiByBELUC3UuCNe2dfZxAER+Wco9mENjgMavl/BWVRUdUNKlXPUH9X3+efFN6euY6wZBOeugUtHXxFkCsPQ3x45jODFAQDmxe3WB/2kZf6dDPJw4liNDzD7izw5tc2GZttLr99LV7/9hDVMTjhV8tfCoEWBpudJak/Z+Sn3PFvsmffwL8w/fi14rkMACEEyrJi99EjLDkeSJVnsagYl5rPjyUvC9BaUIqU8byhLCZUjeV4PKU/mEdhi+YBtvPHZMmEjVEXJ6ExXRJXUnz+gNsf3SHLNOgn1fbVNSwr62Vd4RPoZDleaRL8anID6rMbAAAgAElEQVQRwEjFwKR0pCZtj7AYHiWbVO7LheoameNFj7w6pOmuMVlaZj9pzcX3SSnQSCyB/WrKbLGgaRqyfr66vtZZ5ocz2rals5E/GQmOlKJ4nF/u8F9ykyOjUChC8Cuq7ykD8XQUWDz13iChTizdi106esEb5xSVzOmnL1H6lA8+ndLh7zjY+DpWpygh6bzUW+kHnvIXUmkIwePbhr4QWHOdR/NL1PUL049fN567ABACtEGTdLo8uv8Z4rQ/TSDNeljTYzH7CL2V8/oNTaG63HrtKi9d7DIuBG9c32TQW4d2zGBwzNjO6W/k/MHvXGRQ/YAqKdneOMNoIMivOmx/CxM+Jm1TSj16hnwSfIiV70yjjCDUEoNfadInIrAeFozqQ4LqEELgRHYp/M+eXKnNgFZlbBXvczy8iNFxSrC1lma5+8e8XRI8lK7F2ZiO6DRZ7e4hBJrWErQg6aRfYNcB4AM8ZbAZ72MMD/5USleAbewTzYBl7n/aITjdtuWyCxFCoKRGUuDqA471OY7FAkcLps9he53+4hP285exQtC4NtYFpCRXkUjknMXVx+y4fay8xo/mb/FwfhHvX+z+v248dwHAB1j4Htd/6z/HZAP8sh0kBdjqBJtI1vi/SM0G37zR8rHZZEzDzkVNFrq07QNENeHbb3S574fM5j+g6X2Ni5cEndltko1XOSvhfHbAa+eG7E7uc7st6LmUQKBRPcJSJDwEUElskfXsEV2TMnYSJ6Iqz0BYNuwRiZtj/YCjzg1ObI0LX7QWO0Wt+3RUiaqXYh7K0FgbjTaa+D4pJVKKSO/1kYOv02jicYrgPMXhAqEF2SB/5gTjQ0Cezgs8FRiiEImk9R4vPcHHFMG1pxbeArUcMHKtWxU6xdJNeFUDkJosXcNWBxQ+2qfHQKEYy+u8Uv01j7Lry2uKluBaJiRLEZSqWXDLP+Al2fC96Vt8OP/mL/zcvMDPh+cuAAAsGkUlhrj6iWKuAJQcQusRXYmwU0Kzx0JfJQstoT7AV/eQ/hCtL1OV95l2v0VW3qW1h8hmnxrJYe8lEjflcPaA7f4224nhPbaZiw6j+gEBcCKhdglHiwx6a6TdhPP+gMSk3HMdnNAkITCkJqgulY4agYX3WGf/3t/mUUjZIkUk/dRtQ9k2OO/iDryk3p6y9lbqPT/VFw8BfOuiA/Dptg4r2y7gmcUPy9xbakKw2BDiwg/6GVmtEJb1AGtjITE8EQ49hfWWRlQYPAN/Qum3sDJDdw6wzZRQSZSvaTFxXBmP9ZZxNad1ljU/40YmGRcZj+zN/7+Pxwv8EvFcBoAQwP5UmT3q34EJBVl7QBg/xHmFTBfIIMgXH3O+Poojw50BWdplff59QnPE+nifjhtzrEbMVR+NJPMB7xukjHJXlV5jgkCGFhksi6MJxXFN3luj4+ecyzrM60OO1EUEgo7w5O0Bi+4ttD2hcg1FqKNK8Kn+3pdBCBAeESytt1Suibk28fitEx13+hVzcMmceyaPD0gt6Z7pr5yETrUAEfzM7z5lD3ofVhbcUsYW3amhaPy8JxN6Kw2Bp23OlKIQHRZotpp7HIiX8Bk4fZtBc5tK9TC+wup0lX5UNir+CO/ZEQ/JguIj+zbzduPneEJe4JeF5zIA/H0QeIRbgK0wwXH98F8AktSNKc1Zdntvsl0es9E/x5nFLt4f4esFj4e/xUHnJk4meAReddC6Q9W02OXYaalHQKSppv2Ks0lF3VGs+wkjP+N9hrSqgxSSjslo5Dms7iGaIwpb08iGEMTf61sXEPEEICP9159KXAki6ef0mP9UEDFSkSqzKtAtmmrJzQdbWMBgOvpnB50l/KkvgIudAZMleOfQRi9XP8vTxooBwReKckJgtCEkPcryEYPQsFjklO2Yzfm/Z6GHPMzfoJGdJ/UK75cORI6BbripS+5XA+4V7+DcC8rvV4nfuADQih5T8RLN6ArH84cs1IBe85hGRsOQo/w1xPxH9L3jJL3AcXqDfPEph/13aGWO8JYgISRrIBMqH7DSYKuW4zvHrF1Zx0hPRsGWvkczP2BHO1KR0YgeIgQyJenbE6rsHAG5HLctEXpAojskytAEi/VfTAfyUJIaB8nSTnRVZHtWsQfimjRCkSgT6b5A66ITUCAWKecHM9JeB9P58oUUjTv8Kp9XIl6vEAKlNW0A17aoJFqHxdHcZ6f2noZEYIRGS0OKxQlNqI7J5u8y6W4yMdvPDEJ576NQifNorbkZPifrXuCDR1sU5ebP9xC8wC8Nv3EBICD5d4+uU9Uf8bWb1zHzIx4eaI5Eh8d7E9ylGYejd+jO/prN8g53zLcp+r9FXnxG238TJRTO1yRSLjnuAecFKtGsX90ghMDR/SlFf4fZ5lUE8JjAYfMZb3XhcvEj9sVltG8ouMCiLRBqyFn5mI3EUnbWEUTX2/3yiPapINCh5Zw7JLDGXH6NhhTbtOjEPEPcWf3WAG1wsWi3bBdKrZA6EoGkVqy/tPmlKcdp/9/aFltblFZ08xwtJZa4GyujCc5F5+AASZaijMI17Wrw6BRZkpEnHYzUZCohcTMy4ZiLDkP/b/i4f4tSD4AYZIL3tPZUN9BjEsWlsMerg00+2DvhTvHPXzD+ngP8xgUAgHrwLV47912m1Yyj/AKDaxt0p7s0jw8oFvdoOhk/+FxyOb/O/t7HrL3zezC7z6w8JB0O8CjmVlA7Rz3vMnm8S/rqTUxiCAQ2rm7GnvxSW79F8En6Cq74nK/nQ/rFR3yaf4OAJJUJxnTBj0ndDBtaWilZtOXKMwDiuP3ATVC6T+m6zEROawUmMbHTsDyCP6HLRET33yfCHQCnpiAAbdFGgZD+s5Rfv/QIiM6Zp9qLntaHKPBxqu5r7fL1Du8sRmf4p6THTxmDfZNypf6UNbtPKRJ88KRph9pbFjpdsR4TqcF5iqZdZQ9aKy77Xb6elizmY35Y/ynOPhFJfYGvDr+RAcDrEeNmQJa27JuLDP2Urc5DblwZ0coJ708eUCVn2b6QMEgWzOUJJQNm9+4w7W8jJEjhmdT3mZfneH1zwl0BRklcM0X7ErlU+vXC4IXCC8VDs8OZxfvsjG6i6xKNwwiP8AXaLTgt3TeupWjLVQdD4un5gpE9RouEZF7QiJewWDqpIjMpUgicdxS2eUYkVSyHEuRyIvDURkzJ2Fv3lcNaS5InCL2k756KiAjgtLhoogxY8NEGTBvzjNiIkopOkqGkpHk6cOk4IWhcwaX2M3r9l6hthfcVQgrG4jJJ+xNUxyGkRrjAZDZDLCnFSgSGouBKqpi1mu8XbzOtX/u1PCcv8P+N38gAAPC42uG13nt02n0yP8NJRY0hoWVHPkJdepW8/gHnL15iOvuUcv0qWW/Giekz270HVc0iFbx8JaedPaDwY6QHXz+K6rUyQeBRoUUEjxMGkwyx3qJCS789xEmD9C3SFfQWH9GYDVKzh9cjQpKzaAvadk7uZmxS4GyH8TSQlVNqXWNVQHcTjFRR4rsNiCCwTQsEdKLRUpPIqMfvgLIuEUJilCZTBr05YlGVuNYSgkJqGXd4WHkArui+y8CitEJJFTUSllAyfmbjol3409oBAPN6woKEtNzlpGnZz18G53noL5D6h2ShxSnNoloQRFQ8NjKwzoxbYoy0ju+Xb/B48TuEF4Sf5wa/sQHgoN0h4z2ut59hRCCTktILZi5wpuPp+c9Jmhm4ki4zKD9n4C3Cl2x1H9MOBtRii7baozu8zqWj73M/e5mT5AK1zAhCIQgr12EdGs6YBNoHUD5ko9xnIUfRr1APQSiy6iF5dRejxiTpNj1fUTZ7hNIxz69zUvaZ7T3gYjajaubM5i2DtSiXffR4TFVWJGsdqllJ8IHuVh8pHEoZtFAE/Oo0kKloMSY6glZYjnfHAHTP9LCNjVwCiIagLqoBG3F6GohS394ud/qlVkHt2lXeLpYCIonUNN4yJ+N9scO37G3K5Cz31TaFballoJutY+yceTOk9Q6TJiQatvwJr6kT+lLw4+YKh9XXcO7F0f95wm9uALCXeXfxDbLuCV41bIYTVKhZ6G2cqhnZCe3om9j6Hqp3GTW5T51ewwVH6JylSrZpbM3d6jNeFpqtNOc9tUYhn31AnTDLf/dp0h51e8CBG7NmMjrUTJMzeJnSJGdozBpJc0wQCmMXKNtShR0eL9bQTZ9eUnDmIvSNpDYp5VgyO54j1mAymSKNIlWCpJvGgp+U1GVLURbkoxx9yswj9umLsqJpW5yIvABbWmxl0UY904Jz1iKEXLb7npCFkiQBHeVXEQIbHEhQJnIRUmNIlKZqGxSwQUmr13ks1li4QBsCSkxIxBhpZxzobRAwkBWXWLDuG2p7ls/9gLvVDZr6zBcITS/w1eI3NgBM/DbfnfwuW51P6elDgpOc9buI9AxtaMipIdthTMKwfA/VO4u1giK9hAiWuewzpeDQeNZP3uXc+stcGX/OJ+YylRp84fuUUKTtEU6m7OlrbLYfsF59zlHnBo1M41RfuoP0LUk75sSf5eGuoknfxrqW8/onrPempKKkCn3IuiRtwfjhGNNN6J7pI5WMx/NExyKfiH35IEK0R9MJVdOwOF7geo4go6uvaxz1tEYlitnejI2rG6u+vrMOIeRyUT+t/CliV0BIiraOrcElpVAqtRwGChR1BT6wZSTXTM5CncOKbfpB4oLD12NM23KSbmF0wpYsueUfM3AdPp7c4o59nYIc6/IXR//nEL+xAcCjKF2XohmR9hbMfU5AIfyCqTlH7h5SBceJb/h/2XvPJcnO9M7v95rj0md50w6NRgONgRkLDmeXs8Pd5Yqxy1DsUiHqk3QJugLdgC5gL0ImpIjdkCjtLt3OkEvOcAxhG2g02leXTZ953Gv04WRVtQFAisQA1ej8RQAIVGWeypOZ7/Oa53n+/+boOuHq91ku7jAJlilkg9QV5K7E6zbv20306C5Xax3U9GNu6EvMgg7+EancQEoaszvMGi8T+AJXeAI3RdkZBFU1mxeKNL6AKRyf/M0tevabxGstVpv3WWkOsM1VxOSQHEnqQIaKxnoTh0Mdz9qPpPQEEEQapSXZKEUmnmKWM9ofISOFjjUykNjSEjYjgjhk9HBwWkzkK+UfFehKi/+J0mDjLFEQVCk/d9xkVK0anAcz7xgMdUicem4drXCUF9zp3yeIIhqdLvWoRZJcw4Vtmj6gOd1lpfUSe7NVjsSrTOzKwsTzDPPMBgCozDjTWYtm+5AMRaFbaDdl15UEJNRm73HOT7DJFi47pBs2GY3fYb/1HRxzhx0ke+ElfmoO+JE75OX2CvXBe7zvLzMIN0+CQC3fxcuAMlhitnuLjw8zNrsWn00xslp2IwSFC3iYvoUPd3gx2CVv77G61sfINQRQesNUNCsZcC1JmsljbjlCiJOmHSUqPb5U5IwnI/oPenRfWKZzYQkVng7msB6StBJsbgjrj8yyojrwO9bdf1IYpHS28gewbu43Mq/YM3ZeKDQPSkqw3FlG+QJXTCmn+yQ6oZusEUcF9z7Z5Wg4pDQWPxmy06yRh3WSDYuWCxffs8wzvyFzXuG9JJc1UhSRmyJ8jrApjXKHfRvyUe279HxEGDZpSIvwrrLZnieqndAMgg1+mWmydI+LS1f4Jg9Zze8g50659fwBI7GG85Jg8AlB4xKidoXevV0+/uUNBgdDiqzgo5/fZedhE9t9k/ZGxCu1P6QuDisJLjuiICCVDUBQi2IifVrBJ6REiOpEvrIGC7BUrcDJUo3acr0a1OHjOX+lFUkY4a1ncK9/YtkFnMh/m6J8rJ7/mMwUc5cfhy2qx7m5WvDxa/LeY73lx3/xM375y3cZDoZcf+8jbnx0A+P3WduolI1azRbNZocoifEqJmosU366LMKCM8IzHQCq5arEO4VRLVInCXxG6AsyUzKd7fIgeZVxdJFZsIUwM+J4mcAXaKHQQnHc5OoR3Imu8rOyzXh0m/Pt83xDHNEs96o8uC/54KefUE6GfLtzh2svrpM0Opx7cZur33uZ9mqbspT45E3iesTFF+4RbK0QihEbB/+eqDhAuAInA7yKSIKAWFdSYMBJ119V7mtITUFWVvqApTEILYm7CWVRYvLyse6/aF4qrCNNfbXxWAmvc36eVqxy/U9WDJZZjilNVa47PyxUWp1qCXpPLEPM1DEajdnd2WdvZ49+b8h42EMagy0qNaONrQ02NlZZX22TzsYoJXFPx5wFZ4hnegsAgqJISKddGoljFm7gihHNco9ecoVle8hr9ja5bZLYGa54iF56C0WXhIhIhVjvmJQpqZnhhWI3usxPy4RvZTM6tRWWp2NksU/N53zvYsq5yf9BY/0tpoPreN1AiC5CKPIiYjTrsr5d0qjfo6YHNCcfkMYXKcJVnAyRNsXKGoEKCWWlymu9q2Z1VRX2hErjnCcvikqi61jNdz6T60BXZb6nbwGFNRTG4BWsXlnj6OYBRVqyfHmlSh0KQRzHhEpTOFttfVxlJFIWlQegx8/NRsWpA5Gs2ocjGRFGkpdevMDh4APieoIOE5aWlkjDDivxmItmgz//058wPNjn3/zuj3jt2mXuZYtS37POMx4AKoPR2ayJtX0y3SG1TZbHb2NUH6s3aGU7NFRAaUNsfAWZ7RKGDZQMkVIReEEQNrDekNsCJzRj1WJgD+gEMS+rQ6Q5QFhP88ILBI23KLI+hy6m6SOmWY1+3mE2qxOGBd1On8gPaEw+wKkas+QSAktQDtB+jFP1udpPpe1fFeqoSvRDqkpKey4oIkRVyOOsrZb13ld7/ydUfuwjqwipJEuXV5nsj8gnVbVe0q4RB8G8NNjgrKXMimqvL08NR4RWpysLKVFKUQ9rxEFEWRScO7fOP63XuHn/EBnW6S51CWTCYX/Cwf3bvPad11G24O6926y4JnHrIoFqUtrFMuCs8swHAO8FZRmRFZowlsxEjVa0wjh5Axdvo4d/TT1/D127RO4NcnKDVpiThZfwQqHcjDQ6R10nFLbE4zEoUutQus7y0mtkecnP3+9xtV4nzO9yd9TjMHmB7XLC4bhFXyzTbvXpNPtEvk9jdhOj20xrL+GFRNqUJLuHR+LCJSQCay2lNaezLtXhX2ENhTU4Kl2+E0sv61DHxT2PLOOPZ2vvq1ndz4NAY7VF7/YhKlSEqwECgXF2rgBk8VTtx0IplJSVNLhzJw5G1erfE8qASIVMM8nB0QGyyNloabz2hMUhq3nO1B3RvaoZrnRYzcesvXSFv7pdIzc8Jbe+4GzxzAcAgKKIGQ6XiIKCGSGEK9TMEZNMMrY5RWGpywOsc1iT0XS3mThJqdsk2V2MbpEEawyLCc6XRG5G5GYIqZjlA/YO7zHMIt552GSqLtAXTS63V9jNLE7dZl15EpsRTApieUAZNJnVLuNFZbKp7RTpcoxqorzBi5DMlhjnTqzAtZSYeVA4bvVFzJV7lcC7R9R6OS7zrwa/VhrnXaVw/AhKK+JWghcwK7LKZ3BeW6CEmpcKi1PxDzhx7/UetFcEaLx3NJo57W9fQnlDt9yhJQqEL8nsPitRD29HzKYpDS14ONLsye8xyxuLDMAZ52sRAKxVTKctZo0R0zChlAmNYsTMSQ5khG//Jhv2IS3bJ5UbBMJhonWGtZeQvgAqQ4u2HdAqHrAuUrbjWrVNYEqoPWG7zg17mVnR4zcun+OtKz/iwdFHvHPr/ya0d5FmBdQaQ3+RzK8RlJ5Iz6innyBdThqfQ7mUernPTHYxVp7MjokOiVVALx1jXVWGy4lScHWPSuv5UUCVm2cu3hmoyh48K2wl6CFEVdcfKjpbHZysOv5MYSqjkTCoAoqv5E/LstoSHHsJVAVIoupeVIq6H7OSHVC3I6wIKFFY00NIgzWOu1mXqexyTgW8rg85SGv8Yvh9hsXK0+YJC84cX4sAAIIirzEadWksrzIxd2iJEhOukOouCAhzTcM4JCGBUtTdjLFNUWZCd/w2rvttWv4+NXubMrnAoVphf3xAXVhi4Qjjgm90DUm0yqWVy0xGM4qx4oX136LwUx6MdpBRgtKrWBMSzg6Ig3100SeNz1OGKyiXEpubNPIHTNQ6Qie0ohr1ICItC0xp54dxlTiIQOBPgsE8l++q36v5YzyevCwqY9F5pZ9EoBA44/CaE68BGcmTVuLj9mBv3cngV3K+KsCxIgoumjsk+YiwcRHpJAqL1hE2vMDAlezv7bOftjkqA8JVONfc53bxFv38m4uS32eEr0kAAOcUk3GXYZJyGC2zzG208DgZAp6J7pAVt6irEo2jxYxJeotucZfl5gXggGFxwC25xQGbzEwd7yK6EjrpXaLWOq+98C3qUQvn4P69+3zwzkf889/55wSRYv+D/5NJMWIj1NTLm4TZLsP4uwxqbzDM1qnLMbEuq7yrEAgV0oxqNHREnvVJpz00ASUhSkIchlgqBd/q1L7KAnjnEYE4ke4q58t+qeWJhr/xDuM8ZWnQOqhaiOfNPcdmKsfFQZUpaLW9iIIAJRV5mbIi+pw3d7huvoXRLyJUVp09yBAvFNiCQxEy6w9Z0X0u1hLupTm3s4t4/7X5Wn3t+Vp9UsYEZHnCNO7i3U2krs1/I8hlnYFaolt8gtIJNSfZGPyUetwkbmxztPdT/jr6JmNRx8igqgCUEVJHhGqZ+70D1kY7XFlfwjt74qwzncxw5YzM5ERJJRaSFA/pd79DGa3ifIhLFbY/Ykn/JaWukwarOBkQS83+ZMDG9BcEXuCFwPgAXVqUWGUYbmOFrwQ6lEDIAB/4k/y8c+5kRSDnNQQw3yYICBsRfl5leHxYWD2g+o+zVf5eKoFWAZGuhD68h8Kk6No201GLwWiFTmcAVM7JlfKxoLkqudZIWVWWvbLkZ+nvM8o2WfDs8LVap3kvMWNLMLrPzApq+S7KFQBYGTMNNihljAia4G3V7x80cSZl4EKEmSF8+djeVdkUR5Oj4SV+fP0/U9iCPM/51a9+VbXYRoo7vZuUKmBF5YRmSL/9XbLoXNVSLBxhUJJlMblNmNRepAiW8B56+ZSV8c/JdINh+01M61V0bY0aM9qT91gf/jlL6Y2Te6isvOeHgZxKpoMnVAH1ICLWYXVA6KpVgzPVbO+sm4uBVs9w1mGNRSGIg4haFCGEICuq0uCp9bjkPMvRfayDybRRBT2bI82QTnqDl/1N1uIJN7JV/qL3X3Mw+SbeLUQ+nyW+VisAgGnR5oH4IZH+Ja+Y24jikJ3Gd0FGoFrkskXiHYEMSFRELDWk9/HFAQk1GtldCl1nFG6R6hVCNySbZQwP+6yuNAl1SNSI+b3f+z2Uqirm6pOYRAlasw+Z1l4ki7bmGQAQwhMEBUO5wd74MkvBQ2S0CkgwM2zQoGy/SUtHFM4yVE2K2gskbojNDmlPP2Im29hkCyFlZV0+z/tXlt6Vcm9hDaAwrjo8LAtDmRao+FRl+DjdCJWmQLNepxZGBDrAOstwOmGWpqhAk+rK+KMlZjTaO5TpMgwnXJLv0VaWViDJC8fPh+d5f/QvKUznS/+sF/zD+doFgNI3OBhtkzRzVuhxMSxoT39B0fohUbhBXLTAHxKoBkpGqLBFMXvIzdZvsa9X0C6jVh7Rzu/Tye/TwDANN4lbLzLJ7zLORtR1wGC2R6u+gjUeO33IhaP/RBS3GDS6OC9QJ/J9lqa7j4267GXfRY1/yZr7GKJNGvkn9OMrbEQNJIK0HJMVGWEoscEyI5cwdrqSGxMQqoBRkZ1mAuBEydd5R1ZW4qHMtQC9seCqQKSURKqqgCgOIyI9Vxr2jlmRkWUZuSnRgSZSimWRE8zThPX8IevuHVbIiJMuUtc4zAv+ZnKR25O3KEz7q/q4F/wD+doFAIAsjzkadbi9/G0S7tOUOzD7OV51UEKCCPFmPkMHXdLyE4ZRB+ktHsk43GAcbdH2U1bS64xVnVr3Ghkhb++9w6vscDDpM61tsj9pcP/2Ay7VXqOfxQx3clzQ5/z5JfJZhrWWoHeLZX+XoKZQcpUl+y5KFsziTXIZMCozjDEMsinOe8Z5yqTI5rN6G6FbqNJgkbi5izCcynVND8YEtRAVKkxmkKGqNAIDibOWQKuqvl9WlX6FK6usgRQYY6r6AO/RUhGHAZv0uOIP0bOMIFjn8ujPKbvfY591eodDrJ9xaC/yYPotimIx8z/LfC0DgPeC0ajNjhKIpQZrcZtz45+gxQOoXQTq+NluZTAiQKk6bTemMBOUyzEyxusmUbzCKPpH3Hl3SOZnbJy/QCYPGPbe5qXmBoPx2+zePUf/gWXj5ZdI4jpid4eDowe8svl9Prm+y2ick2YxAqjXPmJrWVJsX6AI1xh5iS+m9LLpXJq7OpkvnrAX817gjcX7giIvK1FTrbClRcjjpqiqgi9uJyfPE6JaIUhZpQ1jVQOnSMsRpSsRQhDKgFALAhkSY6m7Hi+auyxpjw0vkzjNreV/w0R2yF1CXzfpDZoURYS1X8uvz3PF1/YTLIoauwcJtWSKrAWsFX2k1Ei7AkGA8BlSR1AOkcEKTTNgaAuMjElcRt1LosKQiTYl69Rbim53gBQWI2qU+QTvJdZYxoXixp0dNpcSxqMZF7ZXKOtd1s554v6QINAImyOxtJcS8m6LQTFlWk5PioGklnOzztPe/UfxeIw1zI4mBEmAjgIm+9XMX1uuPXX/J9fwlbJwJANqYhtjW1hxHS+GNMMGzm5irULYEO9y8CEjGdFstLk+vYJOatybNtmoS/oTCaWkLASf4X6+4BnjmQ4AQkCsBQhP9mS7u5d0GhMaCdSLB9SUJoiXEcIhZICKmoi4A+WMvPEDhmXBwEOsE5wKsRh8/pByWFDvrNNcyQlURqvYZXS/R9Z+nfrKKjqcUqtljCYpUSgJooRup4lzht2Hezy4c5flbhNMTpqXXLIdojaMy7zS4Du+F0ApjRXucR8+qsKe4zReUcvx+MouPNaoSPGpeN35VNIAACAASURBVA/OE6k6tWCFUNYZzZYYTmustM4RBR0utur8/O4Wy4lhVkqchlKdpxnvk+ucv9pd4o3zml/cq/HPLkvu9wUrsUNJi1k0+HwteKYCQCWWceJpQaQcSfmA4WhE3LmKpUpBOQ/WwkrSZ3TzY66t7xMEdYroFQ5HEJqIbmBQpkdpBC7Yoi0NRX5EdntMUGsQXlzH2gnTmSWqZdRrjsBN2Ha7/ORom2vbrxAxgqJgNkvpD8bMcstSs063N2RlK2V1Y5VRv8+NDz8iiGtcfeVl2i3LoBhiHymWEUCgdCW8IUBLRag0UlQpv/lpBQKYhFOscwgJyXLtRPL7Saq0nyfUCQ21hfMJh5OIu72ATm2ddrREO3FMck0r8gwLzXroSQtPkHisy5mWmlkeM8slpYXCMq8kPFsIacELPOLYUvmrfknPDM9UAGhEggtdSxTMG1e8Ze/OPun+Td68fI4wrgGCWanY6U25/e4veO/P/5DN3/82QxwDDX/18/dYWe7ym29usrZynpmZsLMzxDiFy3I+/OkHDPoDfvS7v02iDeXM0W5PabgZiZjRkIKVcI/+w/dpnD+H0iFb29skzSmbyxGNKGZrPUIEirW1VfZu3+T8VhcbdWk0YlorLfp+AsaeFOkoIQmEIrUFwvsTM1AesfrW84FeTHJkTSM+pYTjVAnYn5T/pmaE1reJ9RrOrxMHmjAYYtUR1q9iHPRSxdFEoXFkuSVvJAyMorAB7+wE7I4lv9rxjHNYTeCs9fcoPSVq7OCcxtsQk7fxLsDZGL8oSf5cnqkAUFpPahQ1OebP/vB/Jc1SiiKjyHN6BzusrW9x7Zv/GBtvshw95N//xR9zcH+X/+tPbyJcwf39P+TwYJ/lpTbvf7jCv/wXP2RrJWF/f4/URmTFjOl4yt7DPXr3d2gkAeDZKPc456fUo4jISL73sqC0t1Ay57ULG+SyzazUbCQjjPHs1VuU3hG5A157YYS/3GbQepPIDZn4GTOvAHMi3VX4yqrbOls194hKlbe0htIaQqlpBBG+tKhInSj8nlqFzQuE5ksjO08FykAhFDSiiMNRm8Es5DvnDFI0aegJpYFJITBOMi0kuyNPWQj2Ol1KNK+uRVgPN3uerZZHCVDeMzxjMj/OxqhwTBz3qwNTF1Cmq8wGL+JN/FW/vDPNMxUA8hL2x6CCMT/7yz/jX//Bf8/q+ibeOW58+D43rr9Da/0lxMo6K0sxrW6D11/6If/qd37An/zpj/mLn/0xFy+ss72xyrfeeImrl5aohZZmq83IbWJszrDXI59Nee3qOZbqgiSOaPvrlLN7HKQ1puE6MlxDmQmToEtd9diwHxCUDwiCy3wcv8AhAeRHrIx/xbSxRq04wMaOMj1gmE2Z6hWsnVt+zRV8Kx9BMU9TQuEMmS2w1qGEIp3m7OwfQCQfN+6c24RLeermq7VGBgE1HaJFm6PRC0zzmFc3StJS0U8jetNtXlwxKAnbbYv3gm5QMFMB/SymXVOsN6sFSDeBjQZICVkuGAaC4gydATgXYPIWOu4jVQHSYFSOEGdtrXL2eKYCwKO17sPhgP/8x/8v9UYTj6d3sF8p7XiPczArAw4Ojnjl/CX+wx/9hJWlNq9/4yoffHiDo6MB4/GIjZUab7yYcO++53/+t/8WYwzDQY/JdMr927dRSvPDH77FP/lBiKutM2h+GydD4nyXUB4wii8xdBl23OeF+jbC5cxMD68j1oc/YZS8SBmsEuW7GJvhihm599h5rf6x7x6A8KrS2fdu3qNf6fQLIXB4fvlX76EbAe3tdvVzKU6sv6WsrMNPdr6iqvSz3hMpyfluhtKHWFLyos7WUk5eNEF4vn/5gHoguLJU55zusz/tcpCtM0olhRM4D2+d8/TT+aV9FQjOFF6QjV7AmTphY4cwPgLEwn3478AzFQCSULAsdzh68BG//9/9D/OCmHlYuPoqgQ4I/Zi6HhLRZrm9ymA0YTY65F/97o/IrSZNpywvtfjO6xe5ui1IOCCbJeAL/qf/8V/z1+/t8vb1T/iDP/gdhv0+M9diloR0ip+i7ZhCLs//5rGicIALuhCWMLlBjKJTjEmDTQrdpjn9iFS3sS4Hb7EiQAh5orhjS4PUqmr59R4jPJkrCGRAK6xhnWWcpzS3W+hEVz0AVCsHY+e9/PppsU8HlM4wKQ/xYoo1jtTMBUCtQwoJeXWxepCwHVrsaJf7B69yN9tESYtWjx+necA6T/F4mcKZwNmQbLJNmS6ThSO8jXCL5f/fyjMVAGoh3H7/5/zkP/7v/OC3/im9w8NK9BIIoxghBD/7y5/wL34vohVe4OWXrvLg7i2W2ktc//AmzuYIFSFViJrvl9281z4KNEnT0FhZI2oekSw1yYsjTCYpgmUKlomKA6yqI12OF9VbJ31BTIHODxk5zUp5Gys6jMPNqo4/2mIaXyQ0g8pxWDWBeZ5+LpdzbP0tAGsduTcEoaauAgZpwaQ/IagfN9lUZcDHLj7ef/qZt7UWh8cIQTEzJ2IiZVkJoBwHjEBplMspDz7mXqq5by5jHBjnyc/gQP9cvMCaBGuSv/2xC4BnrBvweOm5vrHNq69/i/v3bzPo9+j1jkhnM1586RrLq2soCbO0IMstR70BXjf4kx//jIc7O9y+c5e33/uIP/rz93nvnmJUxlidENcbHESbVamtdTzYTXnngwNGoxFOKobNN5GuICj7CF+eNPvExQEt26c0M/b0BqL1Km2fIoF+83Wm8UW8ECg3q2TBZDUribndd6D1XLDzVO3He0dmCob5jN5wyGw0Oy0M8qddgELKE3WfJzX/rTGUxmKNxbhKfdi66t4EVYVgoAJqSlOfPOD29ZTrB5cwbjF4nieeqRXAseSVFJWwRZzUuXz1G5UsdzrlYO8hpiwxhJTJRQ7Glu7qNlGtS721xGQ2ZLnbZmW5w+pKB6U1OQG15Tq/8U/eQmmPokRJgc1KpPe0miUhA0qRMGp8Ay8USX6PKN9HeEvN9GjaPmO9xEhv0ml0IR8waLyGeWRuFt7gvMHMXztU9xIoXQl5GDM3BqmeUzpLP5tilSdqRadnBY8s9fXc8mv+i8feKilllQ2Yq/3gq+Ih5wRhEJKEEaHUNO2EF8Uek1qHntxaLJufM56pAFBYaHVXOf/CFeLWJt/70X9D2NzAiRDtU2aDe1xpbeIb59kfw6U3/ys2OwErnQiV7zLY+4Rp7xabay2kL9mo79Gc3GA7WKb7xhKZOGRrReNfWeHNSyVvbQlcfoPx3k1UvcGsdp5h7QogSLJ7jOvXUHPzsHzuKixH7zOQncpx95EA4JEIJNJXAh9QzeT5fEmOFCjkvD5fo4SgvzegsCW6pk/8AaSWczHP6rqPGX5Wf6haEUiBEvqxjIFWGq9iXNklqmUEStIshyw3mrS36shsHbJf60e44IzxTAWAWe5pLl1jq3WBh/kyen2VSeEpLcQhJNvnSYRgXAiyEnR0jgMjWAol9XqLN9cUrXSPJJjhSLCsIce7hMpRd7uko+usNmKuvuip5YcIl3G3l3GQRVxe2WHF3OIunkx3Ccse2o5ROBASJzRN06dI7zELX3j6xQtVqe5IhfWn+n7WOaQQ1UEg8/JmpWkGMeNZj1xYSKqBXMl3qVPzz0/Bz5WCpKrShVIIAqmQQs5TjQpbluS2QImQpWKfHMeu/ybGdH9Nn9yCs8ozFQBKC0PfRIomZvKoIg6kBWSFfEyItjQwMp77R45WLEBNWPYfQCkR8SVE51uIpe+igwjtS3YO36XMjlgv9rHN74D39If32Q06BMsFL07+A+eHf8Zu8irSlawd/SdqOkJEEWFxxKpw7NZeIZw9QCY5Vp7up71QSKFRAoSvxDyFFAhfnQUc47wntSWBUnQ3OtjZGOMdHM/kc8eez6J6yOmsr0TlMyiFIC0LhExRYU5mHL4YssYRD8wmY3sOa6Iv7sNa8EzwTAUAqJxmP6sR7dNKUzywN/IMZoKh2kI3f4ftuEeDAWJynaz5A7xapl6rQ1vRl/cIZINl1cZ7h+qcR7jzTGpT7gaOl/r/Dxdmf4OQDsyEQHVQ4RWag+uIoElMDV3skRT7TOILHK/VPRKPmOsJHqsFVTP08WCVc0lu4x1Hswn5JKX0BhS4EkQkCJR8yuX3MYSohD+oagGOfQOPVwaV5l9lEHI+ewfd3OBG/9tM08Xs/zzyzAWAvw/WwayATKzxX9yPeCnIuBrfo1v+lKj378jjN1HNHxIqjZURI91ATd8jlQEHU41P2kgpMbrJw/gqw9a38SJA2TFbxR02fc4gOsfEONqjX3Gj/dt0x39DFqxgVB2oVgAWgXcFnuikgOd49g+kZCmq09AxqTXsDvqkswwZVYd4zjmEsVhhTjIIj4eAeXHQI8FBIwmkwlhLWuYUzuBt5f4TuwmvN2rsjkLuzt7A+c/eViz4+vJcBIBjnBd4EVKIiPumQalC1syfUMv/Gt+PWKl/g53RPSh7ZOUeRjaobV4jCTxaGprD9+g33yQPVgAIvMcJjROexuTnlD5BKUkNg9AtpDgdVF4oHOC8wRPMG4HEvP8fjIMJBcY4Cmuw0hIvJXMbr3maT5weHrrCzN18BUpX3oJSqMo4dJ5NKJzBFSllWVLOjUXn5QN03IBOY4tf3obC17/8D2PBmeCZqgP4ImjEgle2FFc2IurdS6S136zSZf2f0qDgaq3FstnHBEs4FCKIURpak3fJw1XycBUA5yRFoRGiygKEQrIcxSTC08juMux8Hxm0q5QlzOsGqiyAPynkqTwCnbWUpmSUTdifDulnE5z3CC8wU4M4SRtWKURbGsq8mD/XVY+Vp9Zhbi7xdawuVJYGW1YpQLwCBJsqxfY/4BP321/Fx7DgjPDcBYC08EwyaCeCpVaMilcADUEbLUPWZMl69xqRbrN7pBj2UnAObYZk0TYg8V5grELJEumrpXxU28BG6xzJNuP4AkZXgz+QQbXPZ665JwMkumpXdQFinvpDVC5AxwpBYt7cM7jfw2TVTK8DjdRVN6AONUEYVluBRw4GjysMnXVzqbCq2lBKgTMNymwdZUO2ZcbNXoepWOj4P888V1sAgEnu+XjfEmrP9pKgZu+iohaE6yAUlEOS1svI/i8YpjVqbU3VjqPwCJyDrFBY56nJDOkKhIjxNqPvOzzs/JAk20HbMaVuo4RAeUNohmip0WIdmbfIc0UUZYh4DzdXBjqW8IJqRg8SSedcFxWqk/z/cTrwSfed49lfPKLYIeYZBxUE1RlGGZKZFsvZDWrLda7n//jLffMXnDmeuwBgLHyy7ziaeF7dsFymR0c7pC/x6X0wIyQW4RRB7RxxGKBcBkJSWk3mqmV1rAZQ9jCuwFuB8xZhJ1jVII9Wqc9ukkWbCBylqOPKGkdunYFZIS0kUuWEUYYRx9uB00E8L9wHKtWf6cGEIAmfPvk/NhCFk/6kaiUgkLLKAMytBeeBY4qXUy7bfUZFk3175ct50xecWZ67AABVVqA/8fz1bcdueJ4X64bz2R1a6X0wUyiOKHsjdG/E+Y4mKDKcm1Baj9MlDXFILX9IoduMXANbHCB1A5mnxOktvIwJyj5eCMKyx379tzgsXyQzGoJ9gkYfqUpKYR+rZfDueOl+epLvnScf5STd+snMftwG7J3Dzd2ElVLVdkBKvHUoKlERYw1mbiSClEhR0mxtcPOuJmWh5/+881wGAKgmzMxobtmXOchW2Mkv8v2Nj2m6Hj7bw8xm2HFGnAUsqxmFG/BQDImLe9SzexTBUnUhM8KLFBl2aMw+4qjYZxq/QNF4FacShDOExSFxskwohmT0KH1OqBSgKWxZdST6ysbLlqYSCtGV65DSisZ6ExVUmv7VoHeneX1jUYE+SSc6a+cGoI7U5VX68Nj2myr950e3uJP/t3gWqb/nnec2ABxjvWbo17k+WUaPzvGN9jqdoI/rKHrFFX5lJ7zuf8qm6LOUfogqqvSgtDMiwJmcItQE5YQYiwmWGIUb6KCJEpJZconG7BPK1jqpM6SFAe8r5Z/jIqG5Saed+/gdb+MDpRnuDlGJrsw/ncPaqohHyGpQP+ru+6gUuLFV+vC4KvB4RdFhysFQMnKLw78FiwBwQuk07x102Jt9hxdWLBPRoz8rUW6VI9FlO6gT51MetP8RRtUrBVoEQmpycURSPECHbWTQwMvgpHnH6CZOJYTmiFS2gPnqwxoE/sSh97iJx+NRShOFIdJLRg8HNLZbhPXw5LV6wJVm3g6sTlONJ4eIp9mEJ1mSJTv+n1GyyP0vWASAxyis4OE44nAGkhjd9OT5jGKS4jsNYnpYVaNUVedfaIesmANaSURhG0g/Qsq4kvPmOP8fkEdrVBJVp4Yfbq4IbI/356IS/nbOo6QkCiNwns65JXT98aW6FAIrOGn6+TwV7EcPDqU3rMqCB2J1sfxfACwCwFN4z1zySiIk5HmD3egN3jPvs24e8kZxHdW8hBu8izRT2o0N0sldbqktVLBFZ/Iu/XqEiTdQQuOFolQtpJ3gsU/PzI/8r5BVV2AShigEGQYVKfbf36O13aG52T4Z61IrrLEnSj+uNI9dWfgQU6xQ2CbehehgwsvixySBJzfyNNuw4LlmEQD+FrwXHBVX8DbmQ/cDNou/4dLR+2wHnlrnEtP+e9yxDXaa30R6w+tRxMXsI+4ELbyulvxOBnjRIkQRyAJr8/m1/SM1/dXgV1IS6BDrHYUpCeohSy+uUs4KXGGRwXHhjySYuwJVKwtbOaIgEUrjyk71mGCAUDk1ecC2hHTaZGpqcxWDBc87iwDwd6DIEwaDDQJV8LD8Nq5Zpzb7jygzoixn5MlVPIpSxxyl8EKoKfNPeKhexYkQEHih0aIy/MhdcZLqk4+oAEG1IJiZAvAnPoFRMyJqxUz3JzTWm0+1AwshKo0ACdW/FDIcAw5EFRjqZkS9UePBYInMLdp+F1QsAsDfAecU6bRNoQoimzLQW9yVl5nZHZbrXbbJUOVd+n6Jh8E5OuYTzvtdsiyhF1fFNtIVeJVUisCI05Lfk+IfTqr4PHPBEDip8RdSECTBUwHjmKqcGObaveDdSb0AztMQjmC2z356ldIvdP8WVCwCwN8R7wXGRNhpSFEklJ2Eo+YOS8UeG77HturTLEf045fI5GXK8iPOuT1mpkspaoTlEbN4e96P/0Txj5sr/T7R5nss9yVE5Xmn4+ARNWExbw4Ujwz+49fqToqKABI/Y0XOOJrU2Cu2sCxWAAsqFgHg/yfeC8oiotfbJs2a7IvL7Ef32YwPqIkem2aXloqZmpImMzbdx+xEVwjMAGGXTk7/q4txUvlXXdsj5rl7hKgq+fISqatAMLzfp3Ohe7oFmGcOpHraF+D4mtoXnBNDuk7zdvYtRn7r1/8mLXhmWASAvyfGhIxHK0hpycs6I79Oq75Lqu8hsjs0tCIwljXtGBS7GCS67OFE6zQTICqDD++ftLA67g7wTPbG6CQgbscEteBppw75GXa98z+RkLOtc9LsHLv5BYxfqP4uOGURAP6BOKfI0iZFXiPL6rCimAUhy26f87KkgWXZDTjwdTAznG489nwhBQKFOhHtfBwVqpOlfH218akNQZ+GkBKsoSE9TTvh+jhg4la+mJte8LVhEQC+ALwXWKuZTrrsecms2SFtdcjEiO3Zu3QDzTQ/opdcxH+GoGGoFN4rcmceOyNIujWKPMcYQxAGjz3nUR2AT/t5gGXL7DMp17g1ewXDYvZf8DiLAPAF4r1kNu2Qzpp4Wydef8DDmqOev4dpvoxXbZSbfsazBUpKcKd+XMUkIxtl6JomiMNK139+uu9PPMHEp+4AhIC2SDlv9/mwfJOeX7T+LniaRQD4gvFe4L3m8GCj8qrrwIF/ALZAaUWiYwpXYtzjxnuFNUgEztp5ahCGOyNUqIhaMUpVTp1CVBWK3nn8cUsw4jFXIQDlDVtuiIte5uFwDbco/FnwKSwCwAlfbGms9bB3sM5w2CTsPGC7fBcZXiRWEZnKse7xsuDSGHBVeg/hcd7TvdTFu+ogMBuktLY6J0t+IQVCPiI6+sRZQCADloIOdx/m3E1f/ULvbcHXh8W0gEfpFB0Pqqq5L5iijNmbXsOpbXQxwXn51KK96uH3RDqkFkRVodC8LkCHAUmnxqw3JZtkmLw86SB01uJM9c+TAaApDC474H7w4qmr6oIFT/DcfzOkKolbt2ksvY9U5Rd+feclM7uGZ5lmuY/wOdY/PvsLKZFaIZTAS3AnwqCVBmDcTli7tkEQaQb3+hSTrBr47rRaUD4xyGOfkU4HHNhXcW7R+bfg03nuA4AQBoSnzLv4X9NAKY3HZAVrYkBU7mOf2P+fOgI7srKoynef4NgQ1AP5JJ//TJx4AD71eO+YiAukafOLv6EFXxue+zMAa2PS4WW8U3gX/O1P+HswMzG3Rufo6H2Wg3sciFVKWZuLioAUEi0l3jnyTxn8MJ/lvae91caZ48eIT+0LAAjMlKF9haJYpP4WfDbP/QoAL3Em/rUNfgBDzJ38Gr/qfYsgi3nZ7VJ3MwQQSk2sqk7BSsbr9IT/UbEAjycdZghRNQUdy/0eZwKePANoFPuk/hKLw78Fn8ciAHxJZL7JzewNbg6vsVwaun6CwGF8ZQWWlTmWyv7Ln9iAPWL24Rw6VieOP1LKeRmwOAkTwjsa5RFb6Qd07RAvF7P/gs9nEQC+REoS7hZXmZoVOuU+ypU47yjn0t1Snrr4HlfznbT0elCBYv+jPUxuKy3Aee5fSomm5Gp5g3+s9/iN1Yu025exxeSrvuUFZ5xFAPiSyV2NiV+lY47QvgCotP3ngx/vUVohtZov66t0YKXwK2lvdXl62++5WN7h1RhWtSSY3eW9ieOgWAh/Lvh8FgHgS8ahGRV12khCDM7YEy0AqLoDdRicynnPZ3mlFEpLombMwYf7lOlpyvJCcZvXQ0sjXmKYT/iTrMGt+CpO//rONRZ8PVgEgC8ZR8C4CJHRJnU3A28fS+Mda/w/quV/rA+AEEglqC/VUFqgXUnX9rkUa6JkhUwv8VHuOAjP4aRH/BrqGhZ8vXju04BfNh7BQbbExG9ynrvs61VK8Yjyz6c9x1VbAajUgJN2hNi7z7WlKRsUhAW8l7e4H3aY1d4EwDhD6Yov5Z4WPLssVgBfAQMu8MlhxKoQJJjPHvh+bhxi7fy/Dik9W+2C72/mXGsoimnJxzs7PCg1g8xS+MpApJhmmLzPY7rjCxY8wSIAfAVYYj7IfsDhbJ2lcg/xKYP0URORk9QgEPmCa36Pc2HAjJCs2SFdvkjoJuR3blH2+gjvGO+NcGX2Zd7WgmeQRQD4ipixynvDa1z2Ixqm99Tvj9N78jGRUMFGcZclafg4N/yiiLmuOuw2X2ASrSO1Rh/cQnhDrVsnbjWeuu6CBY+yCABfER7BA3ONRrjJFbeL8qf9AcI7AjdDuxzcsV041NyYa6JPzwd8KDZ5qDcYBmsUqs4sWCG4cIlz7T4ISdKt46mzqARc8HksDgG/Qgrq/PTgDb699KcEwaQyDlN1vM0R6X2kinAiwiVLOJcTTK5zFHa5JVbJZINHB3ej2KVm+vjWKl4o8ALvFh/vgs9n8Q35ivlw9jqbwQ1eaeUMDn/BkerSEy2mssmWS+lwxLjYZd+3GEdXSWWdnIAnZ/ZmucckWCPVXTwCgUX5RRpwweezCABfMcaHfDh6iXPNP+JD1+Fe7Zs4JF4I+i6v+gVUgEPhvMBZh5A8UQ3oUS7DCY30JcoJtkZvc79YJeX8V3VrC54BFgHgDPDAvcF/OXgPuzTFiNPqvVyeWng556qqQSFQT6QNE9OnXvZIzAgrArTNmKp1lFusABZ8PosAcAZwaO6Xv80L+f/CsXJ35RJUmX4c1wLAaaXgMcJbkrLPQXKVUXQOJxSxGWB8ghnF8OnyAgsWAIsAcEYQlL6JtRHKl9j5KuBYF1BwaiJ6LP0l8ChXEJsBhWowC5Zw8+fNghWUMRSqDuaz/uaCBYs04JnB+ZBpfonAzE5/5ioPACHlSfsvVIM/NGPa+X2UL8l1Cy8ej+VWRlUAWLDgc1gEgDOC95rCrBCWGRzbg3tf+QaKuQy4kgg8kRnRzh9gZMg4XKeUyYm82CMXRJF/Jfey4NlhEQDOCA5NbrpEaYp4RN7rUQlxIQShmdAqHlCqhEm4frLsf5RaecRSeovApF/Ka1/w7LIIAGcEj6T0DUQeIJ072fdzbASCo1ns0i7ukasmw+gcVoRPXUe7jOXsJoVokbq1L/kuFjxrLA4BzxAFLaZ2m6gYYKJWtewXgtCOWUk/ohR1puEaqe7gxNMfnfCWpfQmU73MSG9gVbA4BFzwuSwCwBmipM7EnaNb7DKL2ic/b5QHFLLBIL6EleHT+31XkpSHRHaC9ZbDcLvSApCLbsAFn88iAJwhPIrcLmOKFtoVOB3TUoolO+Be/BJGRk89JzADWrNPsMAoXCcNNrEeoEToEbDOoiFowWexCABnDC9DlIyIpSXSis3sYybBEkbVnnqs9Y5WvsNMN+iF5/CPHel4kIv1/4LPZxEAzhBSOjr1A9bbI4qoSyO7TaHa7Idd7KdW9FXW4IbgicEP3kuceZ7bgT1SlQj5eDm09wJnng6mzyuLAHCGUMrQiA5omAeU+Yw86HCoVshMwafV9GpXILzDyac/xspM5Hn9eD0qmBE17xHEPR5975yNmRy+ibcLxWRYBIAzhQDkfDCXeolBsMq4zHD+6cHv8Wg7RXj7qWcDlZDoc4oAFU6I6nuo4HFzFFtYhCwXAWDOIgCcITyQhauMaq/hVAQyRIinq/k81f4fJB6Q/jP2+v55LfPwCBxPr5okRbqKt0/XTzyvPK/fkDOIx6spuZqBEETFIQmOuk6Q4sn9vcc4SyYTrNCVdNgTwqJSqk9xEHpeEHgvwSsePQPxXlBmned4a/Q0iwBwRpDBlKB5E4I+RtXRdkpU4vWnqAAABJ5JREFUHhLLAPVIADh2DnbO4pFYESJwyCe2CUI6ZPS02OhzgQdbNCnSlccGu8CjozFSLXokjlkEgDOBJ6rt02j0SbTGqgZ5uIo2YwKfI4UAPNZZclNQmOJkvjcyBs98yfsoDqGqxqLnD4E1Cfn4HOnwIqZoVdsh4YgaD0janyD1okgKFmcAZwPhcXKKkBYpBF4IimCZsDxC2RTnBYUrsc7jcCBPXYSMCEB+yiGhD3Dp81wEJDBFE2tjitkacfMeUfMBSqfErXtIXTDtvfTcpwQXAeAs4AU2W6UoH5KrgppOKEuBoIGd5QR+SOLSKrWHhLlSkBWayE0Rjy3/Bb6sY7MtbLb+Vd3RGUHgbYixATOTYPIOcesuQhl0OETpfBEAvuoXsACgCgBZ/2Xi1ZsUgWF6d8BS9xoHH79NtHaHWlyCFxip8EgClyOw7MdXSHWL45neFV3yw9/AP+df7McROBuTjS+QjS+gwglBdIQpFsYpiwBwBliqe6JyD6U7iHyNIExJmjVufPIrRCOgWP4NfBBiRyVF3WGwlD6jld5iLfuYXnSeqVrFFOvk/TcXg/9vwRYNbFkH/7xuj05ZHAJ+xSgB3XDEuz/+39D9G3Cvz9E7uyQu4vIrm1y9sEL9SDB6/5C//Hc/JtrxtAYRnaDLMNqiF13AC4Ev2hSD1/Bl86u+pWeDxeAHFiuAr5xaJEgPPuLunY9ZW98kSmJ6vTsESYBodWnanGxywPW33ycIAmbjKXXVIOT/a+9ufpoIwjiOf2f2tS0tdGmBYvBiNGL0pBy8GRNv/t0eTDQmBi8exAAKhVLo676PhxoiEbV4aek+n2RPe9nN7vxmdvbZ2QqZLtF3XBSGZLSBSa/+LUiIf5ERwIz5LowGPUqlCquNJoPeBe3jE/a+7DEKQ4a5hdYKz7XZef6MKIrxfZ88Ti/rA4yxybPypPhFiBuQO2bGhiFU1+8TNJos1WoMh30cx8ZxHXzP5+ioy6fdr7Q2W2wEVT6++8DB3j7j3hhL6ckbgKSMiZcLXPor/pc8AszYKDas1Zs4toPn+Ww/fkLn7ACvorBdG6dWx/ZX8MsbJHEFR2uCssGxzxiaChYZJk9QZLM+FXELSZcxB9JcsxKscXbaptvpEocp/W6fk+9tjN9gtXWPNLFod2JqwV3c2gN0lFIatzEoyvobnnOIkgVAxA3JCGAOdEYuzUevUZaiHKRUvS5WZZ9YuQz6ddxgC1cZEq25+/Qhx7lPNtikEb6hXj3Ftnq41ntivUWSN5CJQDEtCYA5ME4UoVq6bLZapVhWQDZeJ4sChuhfmnSJyW8D7pAkr2ievyWuHbKkDqg4n7nI6hgjl1VMRx4B5oQxkP/c0rBO1N0mDRsYo6/sy83k8x6DJiLgKH9BGrYmZcHLu1j+6axPRdwi0lXMpelzOcXnJHpJpFbI9QXkkuliehIACyAzPufRDiQJJi3N+nDELSIBsCBM7kAu69yJm5HxohAFJgEgRIFJAAhRYBIAQhTYtZOAllZUPKkmE2IRWH/p5pUx5rdlY/McxkkRV5MVYjH9qUO/NgCEEMUgcwBCFJgEgBAF9gMVU3+KcV4A2AAAAABJRU5ErkJggg==;" vertex="1" parent="1">
          <mxGeometry x="-120" y="-120" width="300.05" height="470" as="geometry" />
        </mxCell>
      </root>
    </mxGraphModel>
  </diagram>
</mxfile>
